<mxfile host="app.diagrams.net" modified="2021-12-08T09:26:10.309Z" agent="5.0 (Windows)" etag="skeZWwl_qOdkr4OdnUgK" version="15.7.3" type="github" pages="15">
  <diagram id="f8OJzP0awXxHJsem1DpK" name="basic">
    <mxGraphModel dx="1422" dy="724" grid="1" gridSize="10" guides="1" tooltips="1" connect="1" arrows="1" fold="1" page="1" pageScale="1" pageWidth="827" pageHeight="1169" math="0" shadow="0">
      <root>
        <mxCell id="GQKfo5zVOm67UikEeu_9-0" />
        <mxCell id="GQKfo5zVOm67UikEeu_9-1" parent="GQKfo5zVOm67UikEeu_9-0" />
        <mxCell id="nQrlEl7oSCitLUacXcIs-0" value="&lt;h1&gt;网络协议模型&lt;/h1&gt;&lt;ul style=&quot;font-size: 14px&quot;&gt;&lt;li&gt;OSI的七层模型&lt;/li&gt;&lt;li&gt;网络五层模型&lt;/li&gt;&lt;li&gt;TCP/IP的四层模型&lt;/li&gt;&lt;li&gt;协议栈对数据包的封装和解析&lt;/li&gt;&lt;/ul&gt;&lt;div&gt;&lt;br&gt;&lt;/div&gt;&lt;div&gt;&lt;br&gt;&lt;/div&gt;" style="text;html=1;strokeColor=none;fillColor=none;spacing=5;spacingTop=-20;whiteSpace=wrap;overflow=hidden;rounded=0;fontFamily=Comic Sans MS;" vertex="1" parent="GQKfo5zVOm67UikEeu_9-1">
          <mxGeometry x="40" y="30" width="670" height="150" as="geometry" />
        </mxCell>
        <mxCell id="nQrlEl7oSCitLUacXcIs-1" value="&lt;h1&gt;IP地址及分类&lt;br&gt;&lt;/h1&gt;&lt;ul style=&quot;font-size: 14px&quot;&gt;&lt;li&gt;IP地址的分类&lt;br&gt;&lt;/li&gt;&lt;li&gt;子网的划分和子网掩码&lt;br&gt;&lt;/li&gt;&lt;/ul&gt;&lt;div&gt;&lt;br&gt;&lt;/div&gt;&lt;div&gt;&lt;br&gt;&lt;/div&gt;" style="text;html=1;strokeColor=none;fillColor=none;spacing=5;spacingTop=-20;whiteSpace=wrap;overflow=hidden;rounded=0;fontFamily=Comic Sans MS;" vertex="1" parent="GQKfo5zVOm67UikEeu_9-1">
          <mxGeometry x="40" y="180" width="670" height="110" as="geometry" />
        </mxCell>
        <mxCell id="nQrlEl7oSCitLUacXcIs-2" value="&lt;h1&gt;ARP地址解析协议&lt;br&gt;&lt;/h1&gt;&lt;ul style=&quot;font-size: 14px&quot;&gt;&lt;li&gt;用来获取指定IP主机接口的MAC地址&lt;br&gt;&lt;/li&gt;&lt;li&gt;请求广播、响应单播&lt;/li&gt;&lt;li&gt;ARP缓存表&lt;br&gt;&lt;/li&gt;&lt;/ul&gt;&lt;div&gt;&lt;br&gt;&lt;/div&gt;&lt;div&gt;&lt;br&gt;&lt;/div&gt;" style="text;html=1;strokeColor=none;fillColor=none;spacing=5;spacingTop=-20;whiteSpace=wrap;overflow=hidden;rounded=0;fontFamily=Comic Sans MS;" vertex="1" parent="GQKfo5zVOm67UikEeu_9-1">
          <mxGeometry x="40" y="300" width="670" height="110" as="geometry" />
        </mxCell>
        <mxCell id="nQrlEl7oSCitLUacXcIs-3" value="&lt;h1&gt;交换机&lt;br&gt;&lt;/h1&gt;&lt;ul style=&quot;font-size: 14px&quot;&gt;&lt;li&gt;用来连接多台网络设备&lt;br&gt;&lt;/li&gt;&lt;li&gt;工作在数据链路层，所以称作二层网络设备&lt;br&gt;&lt;/li&gt;&lt;li&gt;MAC地址学习、MAC地址端口映射表&lt;br&gt;&lt;/li&gt;&lt;/ul&gt;&lt;div&gt;&lt;br&gt;&lt;/div&gt;&lt;div&gt;&lt;br&gt;&lt;/div&gt;" style="text;html=1;strokeColor=none;fillColor=none;spacing=5;spacingTop=-20;whiteSpace=wrap;overflow=hidden;rounded=0;fontFamily=Comic Sans MS;" vertex="1" parent="GQKfo5zVOm67UikEeu_9-1">
          <mxGeometry x="40" y="440" width="670" height="110" as="geometry" />
        </mxCell>
        <mxCell id="nQrlEl7oSCitLUacXcIs-4" value="&lt;h1&gt;路由器&lt;br&gt;&lt;/h1&gt;&lt;ul style=&quot;font-size: 14px&quot;&gt;&lt;li&gt;用来连接多个不同的网络/段&lt;/li&gt;&lt;li&gt;工作在网络层，所以称作三层网络设备&lt;br&gt;&lt;/li&gt;&lt;li&gt;路由表&lt;br&gt;&lt;/li&gt;&lt;/ul&gt;&lt;div&gt;&lt;br&gt;&lt;/div&gt;&lt;div&gt;&lt;br&gt;&lt;/div&gt;" style="text;html=1;strokeColor=none;fillColor=none;spacing=5;spacingTop=-20;whiteSpace=wrap;overflow=hidden;rounded=0;fontFamily=Comic Sans MS;" vertex="1" parent="GQKfo5zVOm67UikEeu_9-1">
          <mxGeometry x="40" y="584.5" width="670" height="110" as="geometry" />
        </mxCell>
      </root>
    </mxGraphModel>
  </diagram>
  <diagram id="b-mitFxcJzm53T9OMudY" name="tcpip">
    <mxGraphModel dx="1422" dy="724" grid="1" gridSize="10" guides="1" tooltips="1" connect="1" arrows="1" fold="1" page="1" pageScale="1" pageWidth="1169" pageHeight="827" math="0" shadow="0">
      <root>
        <mxCell id="vqjw8esuNNkUXTKa8ZrC-0" />
        <mxCell id="vqjw8esuNNkUXTKa8ZrC-1" parent="vqjw8esuNNkUXTKa8ZrC-0" />
        <mxCell id="vqjw8esuNNkUXTKa8ZrC-2" value="Application" style="rounded=1;whiteSpace=wrap;html=1;dashed=1;strokeColor=#3A5431;fillColor=#6d8764;fontColor=#ffffff;" parent="vqjw8esuNNkUXTKa8ZrC-1" vertex="1">
          <mxGeometry x="735" y="210" width="120" height="60" as="geometry" />
        </mxCell>
        <mxCell id="vqjw8esuNNkUXTKa8ZrC-3" value="Tranport" style="rounded=1;whiteSpace=wrap;html=1;dashed=1;strokeColor=#36393d;fillColor=#eeeeee;" parent="vqjw8esuNNkUXTKa8ZrC-1" vertex="1">
          <mxGeometry x="735" y="270" width="120" height="60" as="geometry" />
        </mxCell>
        <mxCell id="vqjw8esuNNkUXTKa8ZrC-4" value="Network" style="rounded=1;whiteSpace=wrap;html=1;dashed=1;strokeColor=#36393d;fillColor=#ffcc99;" parent="vqjw8esuNNkUXTKa8ZrC-1" vertex="1">
          <mxGeometry x="735" y="330" width="120" height="60" as="geometry" />
        </mxCell>
        <mxCell id="vqjw8esuNNkUXTKa8ZrC-5" value="Data link" style="rounded=1;whiteSpace=wrap;html=1;dashed=1;strokeColor=#36393d;fillColor=#ffcccc;" parent="vqjw8esuNNkUXTKa8ZrC-1" vertex="1">
          <mxGeometry x="735" y="390" width="120" height="60" as="geometry" />
        </mxCell>
        <mxCell id="vqjw8esuNNkUXTKa8ZrC-6" value="Physical" style="rounded=1;whiteSpace=wrap;html=1;dashed=1;strokeColor=#666666;fillColor=#f5f5f5;fontColor=#333333;" parent="vqjw8esuNNkUXTKa8ZrC-1" vertex="1">
          <mxGeometry x="735" y="450" width="120" height="60" as="geometry" />
        </mxCell>
        <mxCell id="vqjw8esuNNkUXTKa8ZrC-7" value="data" style="rounded=0;whiteSpace=wrap;html=1;dashed=1;strokeColor=#3A5431;fillColor=#6d8764;fontColor=#ffffff;" parent="vqjw8esuNNkUXTKa8ZrC-1" vertex="1">
          <mxGeometry x="555" y="230" width="120" height="30" as="geometry" />
        </mxCell>
        <mxCell id="vqjw8esuNNkUXTKa8ZrC-9" value="data" style="rounded=0;whiteSpace=wrap;html=1;dashed=1;strokeColor=#3A5431;fillColor=#6d8764;fontColor=#ffffff;" parent="vqjw8esuNNkUXTKa8ZrC-1" vertex="1">
          <mxGeometry x="555" y="290" width="120" height="30" as="geometry" />
        </mxCell>
        <mxCell id="vqjw8esuNNkUXTKa8ZrC-10" value="TCP head" style="rounded=0;whiteSpace=wrap;html=1;dashed=1;strokeColor=#36393d;fillColor=#eeeeee;" parent="vqjw8esuNNkUXTKa8ZrC-1" vertex="1">
          <mxGeometry x="475" y="290" width="80" height="30" as="geometry" />
        </mxCell>
        <mxCell id="vqjw8esuNNkUXTKa8ZrC-11" value="TCP head" style="rounded=0;whiteSpace=wrap;html=1;dashed=1;strokeColor=#36393d;fillColor=#eeeeee;" parent="vqjw8esuNNkUXTKa8ZrC-1" vertex="1">
          <mxGeometry x="475" y="345" width="80" height="30" as="geometry" />
        </mxCell>
        <mxCell id="vqjw8esuNNkUXTKa8ZrC-12" value="data" style="rounded=0;whiteSpace=wrap;html=1;dashed=1;strokeColor=#3A5431;fillColor=#6d8764;fontColor=#ffffff;" parent="vqjw8esuNNkUXTKa8ZrC-1" vertex="1">
          <mxGeometry x="555" y="345" width="120" height="30" as="geometry" />
        </mxCell>
        <mxCell id="vqjw8esuNNkUXTKa8ZrC-13" value="IP head" style="rounded=0;whiteSpace=wrap;html=1;dashed=1;strokeColor=#36393d;fillColor=#ffcc99;" parent="vqjw8esuNNkUXTKa8ZrC-1" vertex="1">
          <mxGeometry x="395" y="345" width="80" height="30" as="geometry" />
        </mxCell>
        <mxCell id="vqjw8esuNNkUXTKa8ZrC-14" value="TCP head" style="rounded=0;whiteSpace=wrap;html=1;dashed=1;strokeColor=#36393d;fillColor=#eeeeee;" parent="vqjw8esuNNkUXTKa8ZrC-1" vertex="1">
          <mxGeometry x="475" y="405" width="80" height="30" as="geometry" />
        </mxCell>
        <mxCell id="vqjw8esuNNkUXTKa8ZrC-15" value="data" style="rounded=0;whiteSpace=wrap;html=1;dashed=1;strokeColor=#3A5431;fillColor=#6d8764;fontColor=#ffffff;" parent="vqjw8esuNNkUXTKa8ZrC-1" vertex="1">
          <mxGeometry x="555" y="405" width="120" height="30" as="geometry" />
        </mxCell>
        <mxCell id="vqjw8esuNNkUXTKa8ZrC-16" value="IP head" style="rounded=0;whiteSpace=wrap;html=1;dashed=1;strokeColor=#36393d;fillColor=#ffcc99;" parent="vqjw8esuNNkUXTKa8ZrC-1" vertex="1">
          <mxGeometry x="395" y="405" width="80" height="30" as="geometry" />
        </mxCell>
        <mxCell id="vqjw8esuNNkUXTKa8ZrC-17" value="Ether head" style="rounded=0;whiteSpace=wrap;html=1;dashed=1;strokeColor=#36393d;fillColor=#ffcccc;" parent="vqjw8esuNNkUXTKa8ZrC-1" vertex="1">
          <mxGeometry x="315" y="405" width="80" height="30" as="geometry" />
        </mxCell>
        <mxCell id="vqjw8esuNNkUXTKa8ZrC-18" value="" style="endArrow=none;html=1;rounded=0;edgeStyle=elbowEdgeStyle;elbow=vertical;" parent="vqjw8esuNNkUXTKa8ZrC-1" edge="1">
          <mxGeometry width="50" height="50" relative="1" as="geometry">
            <mxPoint x="625" y="470" as="sourcePoint" />
            <mxPoint x="675" y="470" as="targetPoint" />
            <Array as="points">
              <mxPoint x="505" y="500" />
            </Array>
          </mxGeometry>
        </mxCell>
        <mxCell id="vqjw8esuNNkUXTKa8ZrC-19" value="" style="endArrow=none;html=1;rounded=0;edgeStyle=elbowEdgeStyle;elbow=vertical;" parent="vqjw8esuNNkUXTKa8ZrC-1" edge="1">
          <mxGeometry width="50" height="50" relative="1" as="geometry">
            <mxPoint x="575" y="500" as="sourcePoint" />
            <mxPoint x="625" y="500" as="targetPoint" />
            <Array as="points">
              <mxPoint x="605" y="470" />
            </Array>
          </mxGeometry>
        </mxCell>
        <mxCell id="vqjw8esuNNkUXTKa8ZrC-20" value="" style="endArrow=none;html=1;rounded=0;edgeStyle=elbowEdgeStyle;elbow=vertical;" parent="vqjw8esuNNkUXTKa8ZrC-1" edge="1">
          <mxGeometry width="50" height="50" relative="1" as="geometry">
            <mxPoint x="525" y="500" as="sourcePoint" />
            <mxPoint x="575" y="470" as="targetPoint" />
            <Array as="points">
              <mxPoint x="405" y="500" />
            </Array>
          </mxGeometry>
        </mxCell>
        <mxCell id="vqjw8esuNNkUXTKa8ZrC-21" value="" style="endArrow=none;html=1;rounded=0;edgeStyle=elbowEdgeStyle;elbow=vertical;" parent="vqjw8esuNNkUXTKa8ZrC-1" edge="1">
          <mxGeometry width="50" height="50" relative="1" as="geometry">
            <mxPoint x="575" y="500" as="sourcePoint" />
            <mxPoint x="625" y="500" as="targetPoint" />
            <Array as="points">
              <mxPoint x="495" y="470" />
            </Array>
          </mxGeometry>
        </mxCell>
        <mxCell id="vqjw8esuNNkUXTKa8ZrC-22" value="" style="endArrow=none;html=1;rounded=0;edgeStyle=elbowEdgeStyle;elbow=vertical;" parent="vqjw8esuNNkUXTKa8ZrC-1" edge="1">
          <mxGeometry width="50" height="50" relative="1" as="geometry">
            <mxPoint x="475" y="470" as="sourcePoint" />
            <mxPoint x="525" y="500" as="targetPoint" />
            <Array as="points">
              <mxPoint x="355" y="500" />
            </Array>
          </mxGeometry>
        </mxCell>
        <mxCell id="vqjw8esuNNkUXTKa8ZrC-23" value="" style="endArrow=none;html=1;rounded=0;edgeStyle=elbowEdgeStyle;elbow=vertical;" parent="vqjw8esuNNkUXTKa8ZrC-1" edge="1">
          <mxGeometry width="50" height="50" relative="1" as="geometry">
            <mxPoint x="425" y="500" as="sourcePoint" />
            <mxPoint x="475" y="500" as="targetPoint" />
            <Array as="points">
              <mxPoint x="455" y="470" />
            </Array>
          </mxGeometry>
        </mxCell>
        <mxCell id="vqjw8esuNNkUXTKa8ZrC-24" value="" style="endArrow=none;html=1;rounded=0;edgeStyle=elbowEdgeStyle;elbow=vertical;" parent="vqjw8esuNNkUXTKa8ZrC-1" edge="1">
          <mxGeometry width="50" height="50" relative="1" as="geometry">
            <mxPoint x="375" y="470" as="sourcePoint" />
            <mxPoint x="425" y="470" as="targetPoint" />
            <Array as="points">
              <mxPoint x="255" y="500" />
            </Array>
          </mxGeometry>
        </mxCell>
        <mxCell id="vqjw8esuNNkUXTKa8ZrC-25" value="" style="endArrow=none;html=1;rounded=0;edgeStyle=elbowEdgeStyle;elbow=vertical;" parent="vqjw8esuNNkUXTKa8ZrC-1" edge="1">
          <mxGeometry width="50" height="50" relative="1" as="geometry">
            <mxPoint x="425" y="500" as="sourcePoint" />
            <mxPoint x="475" y="500" as="targetPoint" />
            <Array as="points">
              <mxPoint x="345" y="470" />
            </Array>
          </mxGeometry>
        </mxCell>
        <mxCell id="vqjw8esuNNkUXTKa8ZrC-26" value="" style="endArrow=none;html=1;rounded=0;edgeStyle=elbowEdgeStyle;elbow=vertical;" parent="vqjw8esuNNkUXTKa8ZrC-1" edge="1">
          <mxGeometry width="50" height="50" relative="1" as="geometry">
            <mxPoint x="325" y="500" as="sourcePoint" />
            <mxPoint x="375" y="500" as="targetPoint" />
            <Array as="points">
              <mxPoint x="245" y="470" />
            </Array>
          </mxGeometry>
        </mxCell>
        <mxCell id="75HSfkbXQ4porPIJeLEH-0" value="&lt;h1&gt;五层协议模型&lt;/h1&gt;" style="text;html=1;strokeColor=none;fillColor=none;spacing=5;spacingTop=-20;whiteSpace=wrap;overflow=hidden;rounded=0;dashed=1;" parent="vqjw8esuNNkUXTKa8ZrC-1" vertex="1">
          <mxGeometry x="285" y="140" width="190" height="80" as="geometry" />
        </mxCell>
      </root>
    </mxGraphModel>
  </diagram>
  <diagram id="TVx2w12uFgqpH9ngccuj" name="arp">
    <mxGraphModel dx="1422" dy="724" grid="1" gridSize="10" guides="1" tooltips="1" connect="1" arrows="1" fold="1" page="1" pageScale="1" pageWidth="827" pageHeight="1169" math="0" shadow="0">
      <root>
        <mxCell id="b5YOmnXZOsyaE5r6TCuo-0" />
        <mxCell id="b5YOmnXZOsyaE5r6TCuo-1" parent="b5YOmnXZOsyaE5r6TCuo-0" />
        <mxCell id="kd1612YGboQataZ-IGLl-0" value="" style="sketch=0;points=[[0.015,0.015,0],[0.985,0.015,0],[0.985,0.985,0],[0.015,0.985,0],[0.25,0,0],[0.5,0,0],[0.75,0,0],[1,0.25,0],[1,0.5,0],[1,0.75,0],[0.75,1,0],[0.5,1,0],[0.25,1,0],[0,0.75,0],[0,0.5,0],[0,0.25,0]];verticalLabelPosition=bottom;html=1;verticalAlign=top;aspect=fixed;align=center;pointerEvents=1;shape=mxgraph.cisco19.rect;prIcon=l2_switch;fillColor=#FAFAFA;strokeColor=#005073;dashed=1;" parent="b5YOmnXZOsyaE5r6TCuo-1" vertex="1">
          <mxGeometry x="394" y="280" width="50" height="50" as="geometry" />
        </mxCell>
        <mxCell id="kd1612YGboQataZ-IGLl-1" style="edgeStyle=orthogonalEdgeStyle;rounded=0;orthogonalLoop=1;jettySize=auto;html=1;entryX=0;entryY=0.25;entryDx=0;entryDy=0;entryPerimeter=0;endArrow=none;endFill=0;elbow=vertical;" parent="b5YOmnXZOsyaE5r6TCuo-1" source="kd1612YGboQataZ-IGLl-2" target="kd1612YGboQataZ-IGLl-0" edge="1">
          <mxGeometry relative="1" as="geometry" />
        </mxCell>
        <mxCell id="kd1612YGboQataZ-IGLl-2" value="" style="points=[[0.03,0.03,0],[0.5,0,0],[0.97,0.03,0],[1,0.4,0],[0.97,0.745,0],[0.5,1,0],[0.03,0.745,0],[0,0.4,0]];verticalLabelPosition=bottom;sketch=0;html=1;verticalAlign=top;aspect=fixed;align=center;pointerEvents=1;shape=mxgraph.cisco19.workstation;fillColor=#005073;strokeColor=none;dashed=1;" parent="b5YOmnXZOsyaE5r6TCuo-1" vertex="1">
          <mxGeometry x="154" y="200" width="80" height="64" as="geometry" />
        </mxCell>
        <mxCell id="kd1612YGboQataZ-IGLl-3" style="edgeStyle=orthogonalEdgeStyle;rounded=0;orthogonalLoop=1;jettySize=auto;html=1;entryX=0;entryY=0.75;entryDx=0;entryDy=0;entryPerimeter=0;endArrow=none;endFill=0;elbow=vertical;exitX=1.03;exitY=0.306;exitDx=0;exitDy=0;exitPerimeter=0;" parent="b5YOmnXZOsyaE5r6TCuo-1" source="kd1612YGboQataZ-IGLl-4" target="kd1612YGboQataZ-IGLl-0" edge="1">
          <mxGeometry relative="1" as="geometry">
            <mxPoint x="224" y="374" as="sourcePoint" />
          </mxGeometry>
        </mxCell>
        <mxCell id="kd1612YGboQataZ-IGLl-4" value="" style="points=[[0.03,0.03,0],[0.5,0,0],[0.97,0.03,0],[1,0.4,0],[0.97,0.745,0],[0.5,1,0],[0.03,0.745,0],[0,0.4,0]];verticalLabelPosition=bottom;sketch=0;html=1;verticalAlign=top;aspect=fixed;align=center;pointerEvents=1;shape=mxgraph.cisco19.workstation;fillColor=#005073;strokeColor=none;dashed=1;" parent="b5YOmnXZOsyaE5r6TCuo-1" vertex="1">
          <mxGeometry x="154" y="354" width="80" height="64" as="geometry" />
        </mxCell>
        <mxCell id="kd1612YGboQataZ-IGLl-5" style="edgeStyle=orthogonalEdgeStyle;rounded=0;orthogonalLoop=1;jettySize=auto;html=1;entryX=1;entryY=0.25;entryDx=0;entryDy=0;entryPerimeter=0;endArrow=none;endFill=0;elbow=vertical;" parent="b5YOmnXZOsyaE5r6TCuo-1" source="kd1612YGboQataZ-IGLl-6" target="kd1612YGboQataZ-IGLl-0" edge="1">
          <mxGeometry relative="1" as="geometry" />
        </mxCell>
        <mxCell id="kd1612YGboQataZ-IGLl-6" value="" style="points=[[0.03,0.03,0],[0.5,0,0],[0.97,0.03,0],[1,0.4,0],[0.97,0.745,0],[0.5,1,0],[0.03,0.745,0],[0,0.4,0]];verticalLabelPosition=bottom;sketch=0;html=1;verticalAlign=top;align=center;pointerEvents=1;shape=mxgraph.cisco19.workstation;fillColor=#005073;strokeColor=none;dashed=1;aspect=fixed;" parent="b5YOmnXZOsyaE5r6TCuo-1" vertex="1">
          <mxGeometry x="594" y="200" width="80" height="64" as="geometry" />
        </mxCell>
        <mxCell id="kd1612YGboQataZ-IGLl-7" style="edgeStyle=orthogonalEdgeStyle;rounded=0;orthogonalLoop=1;jettySize=auto;html=1;entryX=1;entryY=0.75;entryDx=0;entryDy=0;entryPerimeter=0;endArrow=none;endFill=0;elbow=vertical;exitX=0;exitY=0.4;exitDx=0;exitDy=0;exitPerimeter=0;" parent="b5YOmnXZOsyaE5r6TCuo-1" source="kd1612YGboQataZ-IGLl-8" target="kd1612YGboQataZ-IGLl-0" edge="1">
          <mxGeometry relative="1" as="geometry" />
        </mxCell>
        <mxCell id="kd1612YGboQataZ-IGLl-8" value="" style="points=[[0.03,0.03,0],[0.5,0,0],[0.97,0.03,0],[1,0.4,0],[0.97,0.745,0],[0.5,1,0],[0.03,0.745,0],[0,0.4,0]];verticalLabelPosition=bottom;sketch=0;html=1;verticalAlign=top;aspect=fixed;align=center;pointerEvents=1;shape=mxgraph.cisco19.workstation;fillColor=#005073;strokeColor=none;dashed=1;" parent="b5YOmnXZOsyaE5r6TCuo-1" vertex="1">
          <mxGeometry x="594" y="354" width="80" height="64" as="geometry" />
        </mxCell>
        <mxCell id="kd1612YGboQataZ-IGLl-9" value="ep03" style="text;html=1;strokeColor=none;fillColor=none;align=center;verticalAlign=middle;whiteSpace=wrap;rounded=0;dashed=1;" parent="b5YOmnXZOsyaE5r6TCuo-1" vertex="1">
          <mxGeometry x="344" y="319" width="60" height="30" as="geometry" />
        </mxCell>
        <mxCell id="kd1612YGboQataZ-IGLl-10" value="ep01" style="text;html=1;strokeColor=none;fillColor=none;align=center;verticalAlign=middle;whiteSpace=wrap;rounded=0;dashed=1;" parent="b5YOmnXZOsyaE5r6TCuo-1" vertex="1">
          <mxGeometry x="344" y="259" width="60" height="30" as="geometry" />
        </mxCell>
        <mxCell id="kd1612YGboQataZ-IGLl-11" value="ep02" style="text;html=1;strokeColor=none;fillColor=none;align=center;verticalAlign=middle;whiteSpace=wrap;rounded=0;dashed=1;" parent="b5YOmnXZOsyaE5r6TCuo-1" vertex="1">
          <mxGeometry x="434" y="259" width="60" height="30" as="geometry" />
        </mxCell>
        <mxCell id="kd1612YGboQataZ-IGLl-12" value="ep04" style="text;html=1;strokeColor=none;fillColor=none;align=center;verticalAlign=middle;whiteSpace=wrap;rounded=0;dashed=1;" parent="b5YOmnXZOsyaE5r6TCuo-1" vertex="1">
          <mxGeometry x="434" y="319" width="60" height="30" as="geometry" />
        </mxCell>
        <mxCell id="kd1612YGboQataZ-IGLl-13" value="pc1&lt;br&gt;192.168.1.101" style="text;html=1;strokeColor=none;fillColor=none;align=center;verticalAlign=middle;whiteSpace=wrap;rounded=0;dashed=1;" parent="b5YOmnXZOsyaE5r6TCuo-1" vertex="1">
          <mxGeometry x="163" y="270" width="60" height="30" as="geometry" />
        </mxCell>
        <mxCell id="kd1612YGboQataZ-IGLl-14" value="pc2&lt;br&gt;192.168.1.102" style="text;html=1;strokeColor=none;fillColor=none;align=center;verticalAlign=middle;whiteSpace=wrap;rounded=0;dashed=1;" parent="b5YOmnXZOsyaE5r6TCuo-1" vertex="1">
          <mxGeometry x="604" y="270" width="60" height="30" as="geometry" />
        </mxCell>
        <mxCell id="kd1612YGboQataZ-IGLl-15" value="pc4&lt;br&gt;192.168.1.104" style="text;html=1;strokeColor=none;fillColor=none;align=center;verticalAlign=middle;whiteSpace=wrap;rounded=0;dashed=1;" parent="b5YOmnXZOsyaE5r6TCuo-1" vertex="1">
          <mxGeometry x="604" y="430" width="60" height="30" as="geometry" />
        </mxCell>
        <mxCell id="kd1612YGboQataZ-IGLl-16" value="pc3&lt;br&gt;192.168.1.103" style="text;html=1;strokeColor=none;fillColor=none;align=center;verticalAlign=middle;whiteSpace=wrap;rounded=0;dashed=1;" parent="b5YOmnXZOsyaE5r6TCuo-1" vertex="1">
          <mxGeometry x="164" y="430" width="60" height="30" as="geometry" />
        </mxCell>
        <mxCell id="fgXcFhg2f6lObZQllcpd-0" value="" style="endArrow=classic;html=1;dashed=1;entryX=0.5;entryY=0;entryDx=0;entryDy=0;entryPerimeter=0;curved=1;edgeStyle=orthogonalEdgeStyle;strokeWidth=2;" parent="b5YOmnXZOsyaE5r6TCuo-1" target="kd1612YGboQataZ-IGLl-0" edge="1">
          <mxGeometry width="50" height="50" relative="1" as="geometry">
            <mxPoint x="240" y="213" as="sourcePoint" />
            <mxPoint x="500" y="190" as="targetPoint" />
          </mxGeometry>
        </mxCell>
        <mxCell id="fgXcFhg2f6lObZQllcpd-1" value="" style="endArrow=classic;html=1;dashed=1;curved=1;edgeStyle=orthogonalEdgeStyle;entryX=0;entryY=0.4;entryDx=0;entryDy=0;entryPerimeter=0;exitX=0.75;exitY=0;exitDx=0;exitDy=0;exitPerimeter=0;strokeColor=#FF3333;strokeWidth=2;" parent="b5YOmnXZOsyaE5r6TCuo-1" source="kd1612YGboQataZ-IGLl-0" target="kd1612YGboQataZ-IGLl-6" edge="1">
          <mxGeometry width="50" height="50" relative="1" as="geometry">
            <mxPoint x="460" y="250" as="sourcePoint" />
            <mxPoint x="500" y="140" as="targetPoint" />
          </mxGeometry>
        </mxCell>
        <mxCell id="fgXcFhg2f6lObZQllcpd-3" value="" style="endArrow=classic;html=1;dashed=1;curved=1;edgeStyle=orthogonalEdgeStyle;entryX=0.01;entryY=0.581;entryDx=0;entryDy=0;entryPerimeter=0;exitX=0.75;exitY=1;exitDx=0;exitDy=0;exitPerimeter=0;strokeColor=#FF3333;strokeWidth=2;" parent="b5YOmnXZOsyaE5r6TCuo-1" source="kd1612YGboQataZ-IGLl-0" target="kd1612YGboQataZ-IGLl-8" edge="1">
          <mxGeometry width="50" height="50" relative="1" as="geometry">
            <mxPoint x="441.5" y="290" as="sourcePoint" />
            <mxPoint x="604" y="235.60000000000002" as="targetPoint" />
          </mxGeometry>
        </mxCell>
        <mxCell id="fgXcFhg2f6lObZQllcpd-4" value="" style="endArrow=classic;html=1;dashed=1;curved=1;edgeStyle=orthogonalEdgeStyle;exitX=0.5;exitY=1;exitDx=0;exitDy=0;exitPerimeter=0;strokeColor=#FF3333;entryX=1;entryY=0.4;entryDx=0;entryDy=0;entryPerimeter=0;strokeWidth=2;" parent="b5YOmnXZOsyaE5r6TCuo-1" source="kd1612YGboQataZ-IGLl-0" target="kd1612YGboQataZ-IGLl-4" edge="1">
          <mxGeometry width="50" height="50" relative="1" as="geometry">
            <mxPoint x="441.5" y="340" as="sourcePoint" />
            <mxPoint x="240" y="380" as="targetPoint" />
          </mxGeometry>
        </mxCell>
        <mxCell id="fgXcFhg2f6lObZQllcpd-5" value="&lt;span style=&quot;color: rgba(0 , 0 , 0 , 0) ; font-family: monospace ; font-size: 0px ; background-color: rgb(248 , 249 , 250)&quot;&gt;%3CmxGraphModel%3E%3Croot%3E%3CmxCell%20id%3D%220%22%2F%3E%3CmxCell%20id%3D%221%22%20parent%3D%220%22%2F%3E%3CmxCell%20id%3D%222%22%20value%3D%22%22%20style%3D%22endArrow%3Dclassic%3Bhtml%3D1%3Bdashed%3D1%3Bcurved%3D1%3BedgeStyle%3DorthogonalEdgeStyle%3BentryX%3D1%3BentryY%3D0.5%3BentryDx%3D0%3BentryDy%3D0%3BentryPerimeter%3D0%3BexitX%3D-0.05%3BexitY%3D0.094%3BexitDx%3D0%3BexitDy%3D0%3BexitPerimeter%3D0%3BstrokeColor%3D%2367AB9F%3B%22%20edge%3D%221%22%20parent%3D%221%22%3E%3CmxGeometry%20width%3D%2250%22%20height%3D%2250%22%20relative%3D%221%22%20as%3D%22geometry%22%3E%3CmxPoint%20x%3D%22590%22%20y%3D%22360.01599999999996%22%20as%3D%22sourcePoint%22%2F%3E%3CmxPoint%20x%3D%22444%22%20y%3D%22305%22%20as%3D%22targetPoint%22%2F%3E%3C%2FmxGeometry%3E%3C%2FmxCell%3E%3C%2Froot%3E%3C%2FmxGraphModel%3E&lt;/span&gt;" style="endArrow=classic;html=1;dashed=1;curved=1;edgeStyle=orthogonalEdgeStyle;entryX=1;entryY=0.5;entryDx=0;entryDy=0;entryPerimeter=0;exitX=-0.05;exitY=0.094;exitDx=0;exitDy=0;exitPerimeter=0;strokeColor=#0000FF;strokeWidth=2;" parent="b5YOmnXZOsyaE5r6TCuo-1" source="kd1612YGboQataZ-IGLl-8" target="kd1612YGboQataZ-IGLl-0" edge="1">
          <mxGeometry width="50" height="50" relative="1" as="geometry">
            <mxPoint x="441.5" y="290" as="sourcePoint" />
            <mxPoint x="604" y="235.60000000000002" as="targetPoint" />
          </mxGeometry>
        </mxCell>
        <mxCell id="fgXcFhg2f6lObZQllcpd-7" value="&lt;span style=&quot;color: rgba(0 , 0 , 0 , 0) ; font-family: monospace ; font-size: 0px ; background-color: rgb(248 , 249 , 250)&quot;&gt;%3CmxGraphModel%3E%3Croot%3E%3CmxCell%20id%3D%220%22%2F%3E%3CmxCell%20id%3D%221%22%20parent%3D%220%22%2F%3E%3CmxCell%20id%3D%222%22%20value%3D%22%22%20style%3D%22endArrow%3Dclassic%3Bhtml%3D1%3Bdashed%3D1%3Bcurved%3D1%3BedgeStyle%3DorthogonalEdgeStyle%3BentryX%3D1%3BentryY%3D0.5%3BentryDx%3D0%3BentryDy%3D0%3BentryPerimeter%3D0%3BexitX%3D-0.05%3BexitY%3D0.094%3BexitDx%3D0%3BexitDy%3D0%3BexitPerimeter%3D0%3BstrokeColor%3D%2367AB9F%3B%22%20edge%3D%221%22%20parent%3D%221%22%3E%3CmxGeometry%20width%3D%2250%22%20height%3D%2250%22%20relative%3D%221%22%20as%3D%22geometry%22%3E%3CmxPoint%20x%3D%22590%22%20y%3D%22360.01599999999996%22%20as%3D%22sourcePoint%22%2F%3E%3CmxPoint%20x%3D%22444%22%20y%3D%22305%22%20as%3D%22targetPoint%22%2F%3E%3C%2FmxGeometry%3E%3C%2FmxCell%3E%3C%2Froot%3E%3C%2FmxGraphModel%3E&lt;/span&gt;" style="endArrow=classic;html=1;dashed=1;curved=1;edgeStyle=orthogonalEdgeStyle;entryX=1;entryY=0.4;entryDx=0;entryDy=0;entryPerimeter=0;exitX=0;exitY=0.5;exitDx=0;exitDy=0;exitPerimeter=0;strokeColor=#0000FF;strokeWidth=2;" parent="b5YOmnXZOsyaE5r6TCuo-1" source="kd1612YGboQataZ-IGLl-0" target="kd1612YGboQataZ-IGLl-2" edge="1">
          <mxGeometry width="50" height="50" relative="1" as="geometry">
            <mxPoint x="600" y="370.01599999999996" as="sourcePoint" />
            <mxPoint x="454" y="315" as="targetPoint" />
          </mxGeometry>
        </mxCell>
        <mxCell id="fgXcFhg2f6lObZQllcpd-8" value="1" style="ellipse;whiteSpace=wrap;html=1;aspect=fixed;fontColor=#0000FF;fillColor=none;" parent="b5YOmnXZOsyaE5r6TCuo-1" vertex="1">
          <mxGeometry x="300" y="190" width="20" height="20" as="geometry" />
        </mxCell>
        <mxCell id="fgXcFhg2f6lObZQllcpd-9" value="&lt;font color=&quot;#ff3333&quot;&gt;2&lt;/font&gt;" style="ellipse;whiteSpace=wrap;html=1;aspect=fixed;fontColor=#0000FF;fillColor=none;" parent="b5YOmnXZOsyaE5r6TCuo-1" vertex="1">
          <mxGeometry x="510" y="200" width="20" height="20" as="geometry" />
        </mxCell>
        <mxCell id="fgXcFhg2f6lObZQllcpd-10" value="&lt;font color=&quot;#ff3333&quot;&gt;2&lt;/font&gt;" style="ellipse;whiteSpace=wrap;html=1;aspect=fixed;fontColor=#0000FF;fillColor=none;" parent="b5YOmnXZOsyaE5r6TCuo-1" vertex="1">
          <mxGeometry x="460" y="390" width="20" height="20" as="geometry" />
        </mxCell>
        <mxCell id="fgXcFhg2f6lObZQllcpd-11" value="&lt;font color=&quot;#ff3333&quot;&gt;2&lt;/font&gt;" style="ellipse;whiteSpace=wrap;html=1;aspect=fixed;fontColor=#0000FF;fillColor=none;" parent="b5YOmnXZOsyaE5r6TCuo-1" vertex="1">
          <mxGeometry x="290" y="390" width="20" height="20" as="geometry" />
        </mxCell>
        <mxCell id="fgXcFhg2f6lObZQllcpd-12" value="3" style="ellipse;whiteSpace=wrap;html=1;aspect=fixed;fontColor=#0000FF;fillColor=none;" parent="b5YOmnXZOsyaE5r6TCuo-1" vertex="1">
          <mxGeometry x="540" y="324" width="20" height="20" as="geometry" />
        </mxCell>
        <mxCell id="fgXcFhg2f6lObZQllcpd-13" value="4" style="ellipse;whiteSpace=wrap;html=1;aspect=fixed;fontColor=#0000FF;fillColor=none;" parent="b5YOmnXZOsyaE5r6TCuo-1" vertex="1">
          <mxGeometry x="324" y="264" width="20" height="20" as="geometry" />
        </mxCell>
        <mxCell id="fgXcFhg2f6lObZQllcpd-14" value="" style="group" parent="b5YOmnXZOsyaE5r6TCuo-1" vertex="1" connectable="0">
          <mxGeometry x="50" y="20" width="260" height="150" as="geometry" />
        </mxCell>
        <mxCell id="i-668Qt24wrFs0V7j-CJ-0" value="pc1 arp cache" style="rounded=0;whiteSpace=wrap;html=1;dashed=1;strokeColor=default;fillColor=none;" parent="fgXcFhg2f6lObZQllcpd-14" vertex="1">
          <mxGeometry width="260" height="30" as="geometry" />
        </mxCell>
        <mxCell id="i-668Qt24wrFs0V7j-CJ-1" value="192.168.1.102" style="rounded=0;whiteSpace=wrap;html=1;dashed=1;strokeColor=default;fillColor=none;" parent="fgXcFhg2f6lObZQllcpd-14" vertex="1">
          <mxGeometry y="30" width="100" height="30" as="geometry" />
        </mxCell>
        <mxCell id="i-668Qt24wrFs0V7j-CJ-2" value="mac_addr_pc2" style="rounded=0;whiteSpace=wrap;html=1;dashed=1;strokeColor=default;fillColor=none;" parent="fgXcFhg2f6lObZQllcpd-14" vertex="1">
          <mxGeometry x="100" y="30" width="160" height="30" as="geometry" />
        </mxCell>
        <mxCell id="i-668Qt24wrFs0V7j-CJ-3" value="&lt;font color=&quot;#0000ff&quot;&gt;&lt;b&gt;192.168.1.104&lt;/b&gt;&lt;/font&gt;" style="rounded=0;whiteSpace=wrap;html=1;dashed=1;strokeColor=default;fillColor=none;" parent="fgXcFhg2f6lObZQllcpd-14" vertex="1">
          <mxGeometry y="60" width="100" height="30" as="geometry" />
        </mxCell>
        <mxCell id="i-668Qt24wrFs0V7j-CJ-4" value="&lt;font color=&quot;#0000ff&quot;&gt;&lt;b&gt;mac_addr_pc4&lt;/b&gt;&lt;/font&gt;" style="rounded=0;whiteSpace=wrap;html=1;dashed=1;strokeColor=default;fillColor=none;" parent="fgXcFhg2f6lObZQllcpd-14" vertex="1">
          <mxGeometry x="100" y="60" width="160" height="30" as="geometry" />
        </mxCell>
        <mxCell id="i-668Qt24wrFs0V7j-CJ-5" value="" style="rounded=0;whiteSpace=wrap;html=1;dashed=1;strokeColor=default;fillColor=none;" parent="fgXcFhg2f6lObZQllcpd-14" vertex="1">
          <mxGeometry y="90" width="100" height="30" as="geometry" />
        </mxCell>
        <mxCell id="i-668Qt24wrFs0V7j-CJ-6" value="" style="rounded=0;whiteSpace=wrap;html=1;dashed=1;strokeColor=default;fillColor=none;" parent="fgXcFhg2f6lObZQllcpd-14" vertex="1">
          <mxGeometry x="100" y="90" width="160" height="30" as="geometry" />
        </mxCell>
        <mxCell id="i-668Qt24wrFs0V7j-CJ-7" value="" style="rounded=0;whiteSpace=wrap;html=1;dashed=1;strokeColor=default;fillColor=none;" parent="fgXcFhg2f6lObZQllcpd-14" vertex="1">
          <mxGeometry y="120" width="100" height="30" as="geometry" />
        </mxCell>
        <mxCell id="i-668Qt24wrFs0V7j-CJ-8" value="" style="rounded=0;whiteSpace=wrap;html=1;dashed=1;strokeColor=default;fillColor=none;" parent="fgXcFhg2f6lObZQllcpd-14" vertex="1">
          <mxGeometry x="100" y="120" width="160" height="30" as="geometry" />
        </mxCell>
        <mxCell id="QXqGxraItb4wQTa7EuJH-0" value="&lt;h1&gt;ARP请求过程&lt;/h1&gt;&lt;p style=&quot;font-size: 14px&quot;&gt;&lt;font style=&quot;font-size: 14px&quot;&gt;1、pc1发送arp请求192.168.1.104/24 ip对应的mac地址，数据链路层设置目的mac地址为ff:ff:ff:ff:ff:ff&lt;/font&gt;&lt;/p&gt;&lt;p style=&quot;font-size: 14px&quot;&gt;&lt;font style=&quot;font-size: 14px&quot;&gt;2、交换机负责往所有端口转发该请求&lt;br&gt;&lt;/font&gt;&lt;/p&gt;&lt;p style=&quot;font-size: 14px&quot;&gt;&lt;font style=&quot;font-size: 14px&quot;&gt;3、pc4响应该arp请求，发送响应包到交换机&lt;br&gt;&lt;/font&gt;&lt;/p&gt;&lt;p style=&quot;font-size: 14px&quot;&gt;&lt;font style=&quot;font-size: 14px&quot;&gt;4、交换机根据mac地址表转发给端口1，响应包到达pc1，更新本地cache&lt;/font&gt;&lt;/p&gt;" style="text;html=1;strokeColor=none;fillColor=none;spacing=5;spacingTop=-20;whiteSpace=wrap;overflow=hidden;rounded=0;fontFamily=Comic Sans MS;" parent="b5YOmnXZOsyaE5r6TCuo-1" vertex="1">
          <mxGeometry x="360" y="10" width="460" height="190" as="geometry" />
        </mxCell>
      </root>
    </mxGraphModel>
  </diagram>
  <diagram id="5938dl71F3JaHZSsKg_y" name="switch-priciple">
    <mxGraphModel dx="1422" dy="724" grid="1" gridSize="10" guides="1" tooltips="1" connect="1" arrows="1" fold="1" page="1" pageScale="1" pageWidth="1169" pageHeight="827" math="0" shadow="0">
      <root>
        <mxCell id="xbJgLqucEwYxnPkbWRQu-0" />
        <mxCell id="xbJgLqucEwYxnPkbWRQu-1" parent="xbJgLqucEwYxnPkbWRQu-0" />
        <mxCell id="xbJgLqucEwYxnPkbWRQu-2" value="" style="sketch=0;points=[[0.015,0.015,0],[0.985,0.015,0],[0.985,0.985,0],[0.015,0.985,0],[0.25,0,0],[0.5,0,0],[0.75,0,0],[1,0.25,0],[1,0.5,0],[1,0.75,0],[0.75,1,0],[0.5,1,0],[0.25,1,0],[0,0.75,0],[0,0.5,0],[0,0.25,0]];verticalLabelPosition=bottom;html=1;verticalAlign=top;aspect=fixed;align=center;pointerEvents=1;shape=mxgraph.cisco19.rect;prIcon=l2_switch;fillColor=#FAFAFA;strokeColor=#005073;dashed=1;" parent="xbJgLqucEwYxnPkbWRQu-1" vertex="1">
          <mxGeometry x="377" y="340" width="50" height="50" as="geometry" />
        </mxCell>
        <mxCell id="xbJgLqucEwYxnPkbWRQu-7" style="edgeStyle=orthogonalEdgeStyle;rounded=0;orthogonalLoop=1;jettySize=auto;html=1;entryX=0;entryY=0.25;entryDx=0;entryDy=0;entryPerimeter=0;endArrow=none;endFill=0;elbow=vertical;curved=1;" parent="xbJgLqucEwYxnPkbWRQu-1" source="xbJgLqucEwYxnPkbWRQu-3" target="xbJgLqucEwYxnPkbWRQu-2" edge="1">
          <mxGeometry relative="1" as="geometry" />
        </mxCell>
        <mxCell id="xbJgLqucEwYxnPkbWRQu-3" value="" style="points=[[0.03,0.03,0],[0.5,0,0],[0.97,0.03,0],[1,0.4,0],[0.97,0.745,0],[0.5,1,0],[0.03,0.745,0],[0,0.4,0]];verticalLabelPosition=bottom;sketch=0;html=1;verticalAlign=top;aspect=fixed;align=center;pointerEvents=1;shape=mxgraph.cisco19.workstation;fillColor=#005073;strokeColor=none;dashed=1;" parent="xbJgLqucEwYxnPkbWRQu-1" vertex="1">
          <mxGeometry x="137" y="260" width="80" height="64" as="geometry" />
        </mxCell>
        <mxCell id="xbJgLqucEwYxnPkbWRQu-8" style="edgeStyle=orthogonalEdgeStyle;rounded=0;orthogonalLoop=1;jettySize=auto;html=1;entryX=0;entryY=0.75;entryDx=0;entryDy=0;entryPerimeter=0;endArrow=none;endFill=0;elbow=vertical;exitX=1;exitY=0.4;exitDx=0;exitDy=0;exitPerimeter=0;curved=1;" parent="xbJgLqucEwYxnPkbWRQu-1" source="xbJgLqucEwYxnPkbWRQu-4" target="xbJgLqucEwYxnPkbWRQu-2" edge="1">
          <mxGeometry relative="1" as="geometry">
            <mxPoint x="207" y="434" as="sourcePoint" />
          </mxGeometry>
        </mxCell>
        <mxCell id="xbJgLqucEwYxnPkbWRQu-4" value="" style="points=[[0.03,0.03,0],[0.5,0,0],[0.97,0.03,0],[1,0.4,0],[0.97,0.745,0],[0.5,1,0],[0.03,0.745,0],[0,0.4,0]];verticalLabelPosition=bottom;sketch=0;html=1;verticalAlign=top;aspect=fixed;align=center;pointerEvents=1;shape=mxgraph.cisco19.workstation;fillColor=#005073;strokeColor=none;dashed=1;" parent="xbJgLqucEwYxnPkbWRQu-1" vertex="1">
          <mxGeometry x="137" y="414" width="80" height="64" as="geometry" />
        </mxCell>
        <mxCell id="xbJgLqucEwYxnPkbWRQu-9" style="edgeStyle=orthogonalEdgeStyle;rounded=0;orthogonalLoop=1;jettySize=auto;html=1;entryX=1;entryY=0.25;entryDx=0;entryDy=0;entryPerimeter=0;endArrow=none;endFill=0;elbow=vertical;curved=1;" parent="xbJgLqucEwYxnPkbWRQu-1" source="xbJgLqucEwYxnPkbWRQu-5" target="xbJgLqucEwYxnPkbWRQu-2" edge="1">
          <mxGeometry relative="1" as="geometry" />
        </mxCell>
        <mxCell id="xbJgLqucEwYxnPkbWRQu-5" value="" style="points=[[0.03,0.03,0],[0.5,0,0],[0.97,0.03,0],[1,0.4,0],[0.97,0.745,0],[0.5,1,0],[0.03,0.745,0],[0,0.4,0]];verticalLabelPosition=bottom;sketch=0;html=1;verticalAlign=top;align=center;pointerEvents=1;shape=mxgraph.cisco19.workstation;fillColor=#005073;strokeColor=none;dashed=1;aspect=fixed;" parent="xbJgLqucEwYxnPkbWRQu-1" vertex="1">
          <mxGeometry x="577" y="260" width="80" height="64" as="geometry" />
        </mxCell>
        <mxCell id="xbJgLqucEwYxnPkbWRQu-10" style="edgeStyle=orthogonalEdgeStyle;rounded=0;orthogonalLoop=1;jettySize=auto;html=1;entryX=1;entryY=0.75;entryDx=0;entryDy=0;entryPerimeter=0;endArrow=none;endFill=0;elbow=vertical;exitX=0;exitY=0.4;exitDx=0;exitDy=0;exitPerimeter=0;curved=1;" parent="xbJgLqucEwYxnPkbWRQu-1" source="xbJgLqucEwYxnPkbWRQu-6" target="xbJgLqucEwYxnPkbWRQu-2" edge="1">
          <mxGeometry relative="1" as="geometry" />
        </mxCell>
        <mxCell id="xbJgLqucEwYxnPkbWRQu-6" value="" style="points=[[0.03,0.03,0],[0.5,0,0],[0.97,0.03,0],[1,0.4,0],[0.97,0.745,0],[0.5,1,0],[0.03,0.745,0],[0,0.4,0]];verticalLabelPosition=bottom;sketch=0;html=1;verticalAlign=top;aspect=fixed;align=center;pointerEvents=1;shape=mxgraph.cisco19.workstation;fillColor=#005073;strokeColor=none;dashed=1;" parent="xbJgLqucEwYxnPkbWRQu-1" vertex="1">
          <mxGeometry x="577" y="414" width="80" height="64" as="geometry" />
        </mxCell>
        <mxCell id="xbJgLqucEwYxnPkbWRQu-11" value="s1 MAC address table" style="rounded=0;whiteSpace=wrap;html=1;dashed=1;strokeColor=default;fillColor=none;" parent="xbJgLqucEwYxnPkbWRQu-1" vertex="1">
          <mxGeometry x="397" y="80" width="260" height="30" as="geometry" />
        </mxCell>
        <mxCell id="xbJgLqucEwYxnPkbWRQu-12" value="ep03" style="text;html=1;strokeColor=none;fillColor=none;align=center;verticalAlign=middle;whiteSpace=wrap;rounded=0;dashed=1;" parent="xbJgLqucEwYxnPkbWRQu-1" vertex="1">
          <mxGeometry x="327" y="379" width="60" height="30" as="geometry" />
        </mxCell>
        <mxCell id="xbJgLqucEwYxnPkbWRQu-13" value="ep01" style="text;html=1;strokeColor=none;fillColor=none;align=center;verticalAlign=middle;whiteSpace=wrap;rounded=0;dashed=1;" parent="xbJgLqucEwYxnPkbWRQu-1" vertex="1">
          <mxGeometry x="327" y="319" width="60" height="30" as="geometry" />
        </mxCell>
        <mxCell id="xbJgLqucEwYxnPkbWRQu-14" value="ep02" style="text;html=1;strokeColor=none;fillColor=none;align=center;verticalAlign=middle;whiteSpace=wrap;rounded=0;dashed=1;" parent="xbJgLqucEwYxnPkbWRQu-1" vertex="1">
          <mxGeometry x="417" y="319" width="60" height="30" as="geometry" />
        </mxCell>
        <mxCell id="xbJgLqucEwYxnPkbWRQu-15" value="ep04" style="text;html=1;strokeColor=none;fillColor=none;align=center;verticalAlign=middle;whiteSpace=wrap;rounded=0;dashed=1;" parent="xbJgLqucEwYxnPkbWRQu-1" vertex="1">
          <mxGeometry x="417" y="379" width="60" height="30" as="geometry" />
        </mxCell>
        <mxCell id="xbJgLqucEwYxnPkbWRQu-16" value="ep01" style="rounded=0;whiteSpace=wrap;html=1;dashed=1;strokeColor=default;fillColor=none;" parent="xbJgLqucEwYxnPkbWRQu-1" vertex="1">
          <mxGeometry x="397" y="110" width="100" height="30" as="geometry" />
        </mxCell>
        <mxCell id="xbJgLqucEwYxnPkbWRQu-17" value="mac_addr_pc1" style="rounded=0;whiteSpace=wrap;html=1;dashed=1;strokeColor=default;fillColor=none;" parent="xbJgLqucEwYxnPkbWRQu-1" vertex="1">
          <mxGeometry x="497" y="110" width="160" height="30" as="geometry" />
        </mxCell>
        <mxCell id="xbJgLqucEwYxnPkbWRQu-18" value="ep02" style="rounded=0;whiteSpace=wrap;html=1;dashed=1;strokeColor=default;fillColor=none;" parent="xbJgLqucEwYxnPkbWRQu-1" vertex="1">
          <mxGeometry x="397" y="140" width="100" height="30" as="geometry" />
        </mxCell>
        <mxCell id="xbJgLqucEwYxnPkbWRQu-19" value="mac_addr_pc2" style="rounded=0;whiteSpace=wrap;html=1;dashed=1;strokeColor=default;fillColor=none;" parent="xbJgLqucEwYxnPkbWRQu-1" vertex="1">
          <mxGeometry x="497" y="140" width="160" height="30" as="geometry" />
        </mxCell>
        <mxCell id="xbJgLqucEwYxnPkbWRQu-20" value="ep03" style="rounded=0;whiteSpace=wrap;html=1;dashed=1;strokeColor=default;fillColor=none;" parent="xbJgLqucEwYxnPkbWRQu-1" vertex="1">
          <mxGeometry x="397" y="170" width="100" height="30" as="geometry" />
        </mxCell>
        <mxCell id="xbJgLqucEwYxnPkbWRQu-21" value="mac_addr_pc3" style="rounded=0;whiteSpace=wrap;html=1;dashed=1;strokeColor=default;fillColor=none;" parent="xbJgLqucEwYxnPkbWRQu-1" vertex="1">
          <mxGeometry x="497" y="170" width="160" height="30" as="geometry" />
        </mxCell>
        <mxCell id="xbJgLqucEwYxnPkbWRQu-22" value="ep04" style="rounded=0;whiteSpace=wrap;html=1;dashed=1;strokeColor=default;fillColor=none;" parent="xbJgLqucEwYxnPkbWRQu-1" vertex="1">
          <mxGeometry x="397" y="200" width="100" height="30" as="geometry" />
        </mxCell>
        <mxCell id="xbJgLqucEwYxnPkbWRQu-23" value="mac_addr_pc4" style="rounded=0;whiteSpace=wrap;html=1;dashed=1;strokeColor=default;fillColor=none;" parent="xbJgLqucEwYxnPkbWRQu-1" vertex="1">
          <mxGeometry x="497" y="200" width="160" height="30" as="geometry" />
        </mxCell>
        <mxCell id="xbJgLqucEwYxnPkbWRQu-24" value="pc1&lt;br&gt;192.168.1.101" style="text;html=1;strokeColor=none;fillColor=none;align=center;verticalAlign=middle;whiteSpace=wrap;rounded=0;dashed=1;" parent="xbJgLqucEwYxnPkbWRQu-1" vertex="1">
          <mxGeometry x="147" y="330" width="60" height="30" as="geometry" />
        </mxCell>
        <mxCell id="xbJgLqucEwYxnPkbWRQu-25" value="pc2&lt;br&gt;192.168.1.102" style="text;html=1;strokeColor=none;fillColor=none;align=center;verticalAlign=middle;whiteSpace=wrap;rounded=0;dashed=1;" parent="xbJgLqucEwYxnPkbWRQu-1" vertex="1">
          <mxGeometry x="587" y="330" width="60" height="30" as="geometry" />
        </mxCell>
        <mxCell id="xbJgLqucEwYxnPkbWRQu-26" value="pc4&lt;br&gt;192.168.1.104" style="text;html=1;strokeColor=none;fillColor=none;align=center;verticalAlign=middle;whiteSpace=wrap;rounded=0;dashed=1;" parent="xbJgLqucEwYxnPkbWRQu-1" vertex="1">
          <mxGeometry x="587" y="490" width="60" height="30" as="geometry" />
        </mxCell>
        <mxCell id="xbJgLqucEwYxnPkbWRQu-29" value="pc3&lt;br&gt;192.168.1.103" style="text;html=1;strokeColor=none;fillColor=none;align=center;verticalAlign=middle;whiteSpace=wrap;rounded=0;dashed=1;" parent="xbJgLqucEwYxnPkbWRQu-1" vertex="1">
          <mxGeometry x="147" y="490" width="60" height="30" as="geometry" />
        </mxCell>
        <mxCell id="Q8MxCHtqyOnk-vGZl5dK-0" value="s1" style="text;html=1;strokeColor=none;fillColor=none;align=center;verticalAlign=middle;whiteSpace=wrap;rounded=0;dashed=1;" parent="xbJgLqucEwYxnPkbWRQu-1" vertex="1">
          <mxGeometry x="372" y="400" width="60" height="30" as="geometry" />
        </mxCell>
        <mxCell id="5R2HohlJwTS7P55tFQJ9-0" value="" style="group" parent="xbJgLqucEwYxnPkbWRQu-1" vertex="1" connectable="0">
          <mxGeometry x="77" y="10" width="260" height="220" as="geometry" />
        </mxCell>
        <mxCell id="5R2HohlJwTS7P55tFQJ9-1" value="pc1 arp cache" style="rounded=0;whiteSpace=wrap;html=1;dashed=1;strokeColor=default;fillColor=none;" parent="5R2HohlJwTS7P55tFQJ9-0" vertex="1">
          <mxGeometry width="260" height="30" as="geometry" />
        </mxCell>
        <mxCell id="5R2HohlJwTS7P55tFQJ9-2" value="192.168.1.102" style="rounded=0;whiteSpace=wrap;html=1;dashed=1;strokeColor=default;fillColor=none;" parent="5R2HohlJwTS7P55tFQJ9-0" vertex="1">
          <mxGeometry y="30" width="100" height="30" as="geometry" />
        </mxCell>
        <mxCell id="5R2HohlJwTS7P55tFQJ9-3" value="mac_addr_pc2" style="rounded=0;whiteSpace=wrap;html=1;dashed=1;strokeColor=default;fillColor=none;" parent="5R2HohlJwTS7P55tFQJ9-0" vertex="1">
          <mxGeometry x="100" y="30" width="160" height="30" as="geometry" />
        </mxCell>
        <mxCell id="5R2HohlJwTS7P55tFQJ9-4" value="&lt;font color=&quot;#0000ff&quot;&gt;&lt;b&gt;192.168.1.104&lt;/b&gt;&lt;/font&gt;" style="rounded=0;whiteSpace=wrap;html=1;dashed=1;strokeColor=default;fillColor=none;" parent="5R2HohlJwTS7P55tFQJ9-0" vertex="1">
          <mxGeometry y="60" width="100" height="30" as="geometry" />
        </mxCell>
        <mxCell id="5R2HohlJwTS7P55tFQJ9-5" value="&lt;font color=&quot;#0000ff&quot;&gt;&lt;b&gt;mac_addr_pc4&lt;/b&gt;&lt;/font&gt;" style="rounded=0;whiteSpace=wrap;html=1;dashed=1;strokeColor=default;fillColor=none;" parent="5R2HohlJwTS7P55tFQJ9-0" vertex="1">
          <mxGeometry x="100" y="60" width="160" height="30" as="geometry" />
        </mxCell>
        <mxCell id="5R2HohlJwTS7P55tFQJ9-6" value="" style="rounded=0;whiteSpace=wrap;html=1;dashed=1;strokeColor=default;fillColor=none;" parent="5R2HohlJwTS7P55tFQJ9-0" vertex="1">
          <mxGeometry y="90" width="100" height="30" as="geometry" />
        </mxCell>
        <mxCell id="5R2HohlJwTS7P55tFQJ9-7" value="" style="rounded=0;whiteSpace=wrap;html=1;dashed=1;strokeColor=default;fillColor=none;" parent="5R2HohlJwTS7P55tFQJ9-0" vertex="1">
          <mxGeometry x="100" y="90" width="160" height="30" as="geometry" />
        </mxCell>
        <mxCell id="c3KujicX3ez0US4CqL31-0" value="" style="group" parent="5R2HohlJwTS7P55tFQJ9-0" vertex="1" connectable="0">
          <mxGeometry y="130" width="260" height="90" as="geometry" />
        </mxCell>
        <mxCell id="c3KujicX3ez0US4CqL31-1" value="pc1 route table" style="rounded=0;whiteSpace=wrap;html=1;dashed=1;strokeColor=default;fillColor=none;" parent="c3KujicX3ez0US4CqL31-0" vertex="1">
          <mxGeometry width="260" height="30" as="geometry" />
        </mxCell>
        <mxCell id="c3KujicX3ez0US4CqL31-2" value="192.168.1.0/24" style="rounded=0;whiteSpace=wrap;html=1;dashed=1;strokeColor=default;fillColor=none;" parent="c3KujicX3ez0US4CqL31-0" vertex="1">
          <mxGeometry y="30" width="110" height="30" as="geometry" />
        </mxCell>
        <mxCell id="c3KujicX3ez0US4CqL31-3" value="eth0" style="rounded=0;whiteSpace=wrap;html=1;dashed=1;strokeColor=default;fillColor=none;" parent="c3KujicX3ez0US4CqL31-0" vertex="1">
          <mxGeometry x="220" y="30" width="40" height="30" as="geometry" />
        </mxCell>
        <mxCell id="c3KujicX3ez0US4CqL31-4" value="" style="rounded=0;whiteSpace=wrap;html=1;dashed=1;strokeColor=default;fillColor=none;" parent="c3KujicX3ez0US4CqL31-0" vertex="1">
          <mxGeometry y="60" width="110" height="30" as="geometry" />
        </mxCell>
        <mxCell id="c3KujicX3ez0US4CqL31-5" value="" style="rounded=0;whiteSpace=wrap;html=1;dashed=1;strokeColor=default;fillColor=none;" parent="c3KujicX3ez0US4CqL31-0" vertex="1">
          <mxGeometry x="220" y="60" width="40" height="30" as="geometry" />
        </mxCell>
        <mxCell id="c3KujicX3ez0US4CqL31-6" value="0.0.0.0" style="rounded=0;whiteSpace=wrap;html=1;dashed=1;strokeColor=default;fillColor=none;" parent="c3KujicX3ez0US4CqL31-0" vertex="1">
          <mxGeometry x="110" y="30" width="110" height="30" as="geometry" />
        </mxCell>
        <mxCell id="c3KujicX3ez0US4CqL31-7" value="" style="rounded=0;whiteSpace=wrap;html=1;dashed=1;strokeColor=default;fillColor=none;" parent="c3KujicX3ez0US4CqL31-0" vertex="1">
          <mxGeometry x="110" y="60" width="110" height="30" as="geometry" />
        </mxCell>
        <mxCell id="Bu-nnuQL9g0upKNVkCam-0" value="&lt;h1&gt;&lt;font style=&quot;font-size: 24px&quot;&gt;二层交换通信过程&lt;/font&gt;&lt;/h1&gt;&lt;div style=&quot;font-size: 14px&quot;&gt;pc1发送“hello world”到pc4&lt;/div&gt;&lt;p style=&quot;font-size: 14px&quot;&gt;1、pc1协议栈依次封装包，在网络层根据目标地址192.168.1.104查找路由表，确认从eth0端口发出，数据链路层将目标mac地址设置为pc4的mac地址（可能需要arp获取）&lt;/p&gt;&lt;p style=&quot;font-size: 14px&quot;&gt;2、数据包到达s1，查询mac地址表，确认转发端口（如查询不到则在所有端口转发）&lt;/p&gt;&lt;p style=&quot;font-size: 14px&quot;&gt;3、pc4收到s1转发的包，检查其目的mac地址与自己相符，于是交由本协议栈处理，依次往上解包，直到获取到hello world消息&lt;/p&gt;" style="text;html=1;strokeColor=none;fillColor=none;spacing=5;spacingTop=-20;whiteSpace=wrap;overflow=hidden;rounded=0;fontSize=14;fontFamily=Comic Sans MS;" parent="xbJgLqucEwYxnPkbWRQu-1" vertex="1">
          <mxGeometry x="690" y="80" width="270" height="440" as="geometry" />
        </mxCell>
        <mxCell id="icDRSCoTWV7zf3ggeAmP-0" value="" style="endArrow=classic;html=1;rounded=0;curved=1;entryX=0;entryY=0.5;entryDx=0;entryDy=0;dashed=1;dashPattern=1 4;" parent="xbJgLqucEwYxnPkbWRQu-1" target="xbJgLqucEwYxnPkbWRQu-11" edge="1">
          <mxGeometry width="50" height="50" relative="1" as="geometry">
            <mxPoint x="397" y="330" as="sourcePoint" />
            <mxPoint x="492" y="240" as="targetPoint" />
            <Array as="points">
              <mxPoint x="342" y="250" />
            </Array>
          </mxGeometry>
        </mxCell>
        <mxCell id="icDRSCoTWV7zf3ggeAmP-2" value="" style="endArrow=classic;html=1;rounded=0;curved=1;entryX=0;entryY=0.5;entryDx=0;entryDy=0;dashed=1;dashPattern=1 4;" parent="xbJgLqucEwYxnPkbWRQu-1" target="5R2HohlJwTS7P55tFQJ9-1" edge="1">
          <mxGeometry width="50" height="50" relative="1" as="geometry">
            <mxPoint x="120" y="270" as="sourcePoint" />
            <mxPoint x="74" y="30" as="targetPoint" />
            <Array as="points">
              <mxPoint x="-50" y="185" />
            </Array>
          </mxGeometry>
        </mxCell>
        <mxCell id="icDRSCoTWV7zf3ggeAmP-3" value="" style="endArrow=classic;html=1;rounded=0;curved=1;entryX=0;entryY=0.5;entryDx=0;entryDy=0;dashed=1;dashPattern=1 4;" parent="xbJgLqucEwYxnPkbWRQu-1" target="c3KujicX3ez0US4CqL31-1" edge="1">
          <mxGeometry width="50" height="50" relative="1" as="geometry">
            <mxPoint x="130" y="280" as="sourcePoint" />
            <mxPoint x="87" y="35" as="targetPoint" />
            <Array as="points">
              <mxPoint y="250" />
            </Array>
          </mxGeometry>
        </mxCell>
        <mxCell id="r-U5Q1jW196Jtzf8WzvH-0" style="edgeStyle=orthogonalEdgeStyle;curved=1;rounded=0;orthogonalLoop=1;jettySize=auto;html=1;exitX=0.5;exitY=1;exitDx=0;exitDy=0;dashed=1;dashPattern=1 4;fontFamily=Comic Sans MS;fontSize=24;" parent="xbJgLqucEwYxnPkbWRQu-1" source="Bu-nnuQL9g0upKNVkCam-0" target="Bu-nnuQL9g0upKNVkCam-0" edge="1">
          <mxGeometry relative="1" as="geometry" />
        </mxCell>
      </root>
    </mxGraphModel>
  </diagram>
  <diagram id="IxN5ivslmIEc9_KOcGeO" name="switch-packet-stream">
    <mxGraphModel dx="2249" dy="724" grid="1" gridSize="10" guides="1" tooltips="1" connect="1" arrows="1" fold="1" page="1" pageScale="1" pageWidth="827" pageHeight="1169" math="0" shadow="0">
      <root>
        <mxCell id="iFzb1qE4RooG4vSpQRDy-0" />
        <mxCell id="iFzb1qE4RooG4vSpQRDy-1" parent="iFzb1qE4RooG4vSpQRDy-0" />
        <mxCell id="iFzb1qE4RooG4vSpQRDy-27" value="eth0" style="rounded=1;whiteSpace=wrap;html=1;dashed=1;strokeColor=#666666;fillColor=#f5f5f5;fontColor=#333333;" parent="iFzb1qE4RooG4vSpQRDy-1" vertex="1">
          <mxGeometry x="214" y="340" width="40" height="30" as="geometry" />
        </mxCell>
        <mxCell id="iFzb1qE4RooG4vSpQRDy-7" value="" style="group" parent="iFzb1qE4RooG4vSpQRDy-1" vertex="1" connectable="0">
          <mxGeometry x="174" y="190" width="120" height="150" as="geometry" />
        </mxCell>
        <mxCell id="iFzb1qE4RooG4vSpQRDy-2" value="Application" style="rounded=1;whiteSpace=wrap;html=1;dashed=1;strokeColor=#3A5431;fillColor=#6d8764;fontColor=#ffffff;" parent="iFzb1qE4RooG4vSpQRDy-7" vertex="1">
          <mxGeometry width="120" height="30" as="geometry" />
        </mxCell>
        <mxCell id="iFzb1qE4RooG4vSpQRDy-3" value="Tranport" style="rounded=1;whiteSpace=wrap;html=1;dashed=1;strokeColor=#36393d;fillColor=#eeeeee;" parent="iFzb1qE4RooG4vSpQRDy-7" vertex="1">
          <mxGeometry y="30" width="120" height="30" as="geometry" />
        </mxCell>
        <mxCell id="iFzb1qE4RooG4vSpQRDy-4" value="Network" style="rounded=1;whiteSpace=wrap;html=1;dashed=1;strokeColor=#36393d;fillColor=#ffcc99;" parent="iFzb1qE4RooG4vSpQRDy-7" vertex="1">
          <mxGeometry y="60" width="120" height="30" as="geometry" />
        </mxCell>
        <mxCell id="iFzb1qE4RooG4vSpQRDy-5" value="Data link" style="rounded=1;whiteSpace=wrap;html=1;dashed=1;strokeColor=#36393d;fillColor=#ffcccc;" parent="iFzb1qE4RooG4vSpQRDy-7" vertex="1">
          <mxGeometry y="90" width="120" height="30" as="geometry" />
        </mxCell>
        <mxCell id="iFzb1qE4RooG4vSpQRDy-6" value="Physical" style="rounded=1;whiteSpace=wrap;html=1;dashed=1;strokeColor=#666666;fillColor=#f5f5f5;fontColor=#333333;" parent="iFzb1qE4RooG4vSpQRDy-7" vertex="1">
          <mxGeometry y="120" width="120" height="30" as="geometry" />
        </mxCell>
        <mxCell id="iFzb1qE4RooG4vSpQRDy-8" value="" style="group" parent="iFzb1qE4RooG4vSpQRDy-1" vertex="1" connectable="0">
          <mxGeometry x="364" y="190" width="120" height="150" as="geometry" />
        </mxCell>
        <mxCell id="iFzb1qE4RooG4vSpQRDy-9" value="Application" style="rounded=1;whiteSpace=wrap;html=1;dashed=1;strokeColor=#3A5431;fillColor=#6d8764;fontColor=#ffffff;" parent="iFzb1qE4RooG4vSpQRDy-8" vertex="1">
          <mxGeometry width="120" height="30" as="geometry" />
        </mxCell>
        <mxCell id="iFzb1qE4RooG4vSpQRDy-10" value="Tranport" style="rounded=1;whiteSpace=wrap;html=1;dashed=1;strokeColor=#36393d;fillColor=#eeeeee;" parent="iFzb1qE4RooG4vSpQRDy-8" vertex="1">
          <mxGeometry y="30" width="120" height="30" as="geometry" />
        </mxCell>
        <mxCell id="iFzb1qE4RooG4vSpQRDy-11" value="Network" style="rounded=1;whiteSpace=wrap;html=1;dashed=1;strokeColor=#36393d;fillColor=#ffcc99;" parent="iFzb1qE4RooG4vSpQRDy-8" vertex="1">
          <mxGeometry y="60" width="120" height="30" as="geometry" />
        </mxCell>
        <mxCell id="iFzb1qE4RooG4vSpQRDy-12" value="Data link" style="rounded=1;whiteSpace=wrap;html=1;dashed=1;strokeColor=#36393d;fillColor=#ffcccc;" parent="iFzb1qE4RooG4vSpQRDy-8" vertex="1">
          <mxGeometry y="90" width="120" height="30" as="geometry" />
        </mxCell>
        <mxCell id="iFzb1qE4RooG4vSpQRDy-13" value="Physical" style="rounded=1;whiteSpace=wrap;html=1;dashed=1;strokeColor=#666666;fillColor=#f5f5f5;fontColor=#333333;" parent="iFzb1qE4RooG4vSpQRDy-8" vertex="1">
          <mxGeometry y="120" width="120" height="30" as="geometry" />
        </mxCell>
        <mxCell id="iFzb1qE4RooG4vSpQRDy-14" value="" style="group" parent="iFzb1qE4RooG4vSpQRDy-1" vertex="1" connectable="0">
          <mxGeometry x="534" y="190" width="120" height="150" as="geometry" />
        </mxCell>
        <mxCell id="iFzb1qE4RooG4vSpQRDy-15" value="Application" style="rounded=1;whiteSpace=wrap;html=1;dashed=1;strokeColor=#3A5431;fillColor=#6d8764;fontColor=#ffffff;" parent="iFzb1qE4RooG4vSpQRDy-14" vertex="1">
          <mxGeometry width="120" height="30" as="geometry" />
        </mxCell>
        <mxCell id="iFzb1qE4RooG4vSpQRDy-16" value="Tranport" style="rounded=1;whiteSpace=wrap;html=1;dashed=1;strokeColor=#36393d;fillColor=#eeeeee;" parent="iFzb1qE4RooG4vSpQRDy-14" vertex="1">
          <mxGeometry y="30" width="120" height="30" as="geometry" />
        </mxCell>
        <mxCell id="iFzb1qE4RooG4vSpQRDy-17" value="Network" style="rounded=1;whiteSpace=wrap;html=1;dashed=1;strokeColor=#36393d;fillColor=#ffcc99;" parent="iFzb1qE4RooG4vSpQRDy-14" vertex="1">
          <mxGeometry y="60" width="120" height="30" as="geometry" />
        </mxCell>
        <mxCell id="iFzb1qE4RooG4vSpQRDy-18" value="Data link" style="rounded=1;whiteSpace=wrap;html=1;dashed=1;strokeColor=#36393d;fillColor=#ffcccc;" parent="iFzb1qE4RooG4vSpQRDy-14" vertex="1">
          <mxGeometry y="90" width="120" height="30" as="geometry" />
        </mxCell>
        <mxCell id="iFzb1qE4RooG4vSpQRDy-19" value="Physical" style="rounded=1;whiteSpace=wrap;html=1;dashed=1;strokeColor=#666666;fillColor=#f5f5f5;fontColor=#333333;" parent="iFzb1qE4RooG4vSpQRDy-14" vertex="1">
          <mxGeometry y="120" width="120" height="30" as="geometry" />
        </mxCell>
        <mxCell id="iFzb1qE4RooG4vSpQRDy-26" value="" style="endArrow=none;html=1;rounded=0;startArrow=none;dashed=1;" parent="iFzb1qE4RooG4vSpQRDy-1" edge="1">
          <mxGeometry width="50" height="50" relative="1" as="geometry">
            <mxPoint x="234" y="390" as="sourcePoint" />
            <mxPoint x="234" y="170" as="targetPoint" />
          </mxGeometry>
        </mxCell>
        <mxCell id="iFzb1qE4RooG4vSpQRDy-29" value="ep01" style="rounded=1;whiteSpace=wrap;html=1;dashed=1;strokeColor=#666666;fillColor=#f5f5f5;fontColor=#333333;" parent="iFzb1qE4RooG4vSpQRDy-1" vertex="1">
          <mxGeometry x="364" y="340" width="40" height="30" as="geometry" />
        </mxCell>
        <mxCell id="iFzb1qE4RooG4vSpQRDy-30" value="ep04" style="rounded=1;whiteSpace=wrap;html=1;dashed=1;strokeColor=#666666;fillColor=#f5f5f5;fontColor=#333333;" parent="iFzb1qE4RooG4vSpQRDy-1" vertex="1">
          <mxGeometry x="444" y="340" width="40" height="30" as="geometry" />
        </mxCell>
        <mxCell id="iFzb1qE4RooG4vSpQRDy-31" value="" style="endArrow=none;html=1;rounded=0;startArrow=none;dashed=1;" parent="iFzb1qE4RooG4vSpQRDy-1" edge="1">
          <mxGeometry width="50" height="50" relative="1" as="geometry">
            <mxPoint x="234" y="390" as="sourcePoint" />
            <mxPoint x="384" y="390" as="targetPoint" />
          </mxGeometry>
        </mxCell>
        <mxCell id="iFzb1qE4RooG4vSpQRDy-32" value="" style="endArrow=none;html=1;rounded=0;startArrow=none;dashed=1;" parent="iFzb1qE4RooG4vSpQRDy-1" edge="1">
          <mxGeometry width="50" height="50" relative="1" as="geometry">
            <mxPoint x="384" y="390" as="sourcePoint" />
            <mxPoint x="384" y="300" as="targetPoint" />
          </mxGeometry>
        </mxCell>
        <mxCell id="iFzb1qE4RooG4vSpQRDy-33" value="" style="endArrow=none;html=1;rounded=0;startArrow=none;dashed=1;" parent="iFzb1qE4RooG4vSpQRDy-1" edge="1">
          <mxGeometry width="50" height="50" relative="1" as="geometry">
            <mxPoint x="464" y="300" as="sourcePoint" />
            <mxPoint x="384" y="300" as="targetPoint" />
          </mxGeometry>
        </mxCell>
        <mxCell id="iFzb1qE4RooG4vSpQRDy-34" value="" style="endArrow=none;html=1;rounded=0;startArrow=none;dashed=1;" parent="iFzb1qE4RooG4vSpQRDy-1" edge="1">
          <mxGeometry width="50" height="50" relative="1" as="geometry">
            <mxPoint x="464" y="390" as="sourcePoint" />
            <mxPoint x="464" y="300" as="targetPoint" />
          </mxGeometry>
        </mxCell>
        <mxCell id="iFzb1qE4RooG4vSpQRDy-35" value="" style="endArrow=none;html=1;rounded=0;startArrow=none;dashed=1;" parent="iFzb1qE4RooG4vSpQRDy-1" edge="1">
          <mxGeometry width="50" height="50" relative="1" as="geometry">
            <mxPoint x="594" y="390" as="sourcePoint" />
            <mxPoint x="464" y="390" as="targetPoint" />
          </mxGeometry>
        </mxCell>
        <mxCell id="iFzb1qE4RooG4vSpQRDy-36" value="eth0" style="rounded=1;whiteSpace=wrap;html=1;dashed=1;strokeColor=#666666;fillColor=#f5f5f5;fontColor=#333333;" parent="iFzb1qE4RooG4vSpQRDy-1" vertex="1">
          <mxGeometry x="574" y="340" width="40" height="30" as="geometry" />
        </mxCell>
        <mxCell id="iFzb1qE4RooG4vSpQRDy-37" value="" style="endArrow=none;html=1;rounded=0;startArrow=none;dashed=1;" parent="iFzb1qE4RooG4vSpQRDy-1" edge="1">
          <mxGeometry width="50" height="50" relative="1" as="geometry">
            <mxPoint x="594" y="390" as="sourcePoint" />
            <mxPoint x="594" y="170" as="targetPoint" />
          </mxGeometry>
        </mxCell>
        <mxCell id="iFzb1qE4RooG4vSpQRDy-38" value="hello, world" style="rounded=0;whiteSpace=wrap;html=1;" parent="iFzb1qE4RooG4vSpQRDy-1" vertex="1">
          <mxGeometry x="179" y="140" width="110" height="30" as="geometry" />
        </mxCell>
        <mxCell id="iFzb1qE4RooG4vSpQRDy-40" value="" style="endArrow=classic;html=1;rounded=0;dashed=1;entryX=0.5;entryY=0;entryDx=0;entryDy=0;" parent="iFzb1qE4RooG4vSpQRDy-1" target="iFzb1qE4RooG4vSpQRDy-38" edge="1">
          <mxGeometry width="50" height="50" relative="1" as="geometry">
            <mxPoint x="234" y="100" as="sourcePoint" />
            <mxPoint x="200" y="50" as="targetPoint" />
          </mxGeometry>
        </mxCell>
        <mxCell id="WyEq3SLhEthdJ0XHc30H-0" value="send" style="text;html=1;strokeColor=none;fillColor=none;align=center;verticalAlign=middle;whiteSpace=wrap;rounded=0;dashed=1;" parent="iFzb1qE4RooG4vSpQRDy-1" vertex="1">
          <mxGeometry x="170" y="100" width="60" height="30" as="geometry" />
        </mxCell>
        <mxCell id="WyEq3SLhEthdJ0XHc30H-1" value="hello, world" style="rounded=0;whiteSpace=wrap;html=1;" parent="iFzb1qE4RooG4vSpQRDy-1" vertex="1">
          <mxGeometry x="534" y="140" width="110" height="30" as="geometry" />
        </mxCell>
        <mxCell id="WyEq3SLhEthdJ0XHc30H-2" value="" style="endArrow=classic;html=1;rounded=0;dashed=1;exitX=0.5;exitY=0;exitDx=0;exitDy=0;" parent="iFzb1qE4RooG4vSpQRDy-1" source="WyEq3SLhEthdJ0XHc30H-1" edge="1">
          <mxGeometry width="50" height="50" relative="1" as="geometry">
            <mxPoint x="550" y="50" as="sourcePoint" />
            <mxPoint x="589" y="100" as="targetPoint" />
          </mxGeometry>
        </mxCell>
        <mxCell id="WyEq3SLhEthdJ0XHc30H-3" value="recv" style="text;html=1;strokeColor=none;fillColor=none;align=center;verticalAlign=middle;whiteSpace=wrap;rounded=0;dashed=1;" parent="iFzb1qE4RooG4vSpQRDy-1" vertex="1">
          <mxGeometry x="520" y="100" width="60" height="30" as="geometry" />
        </mxCell>
        <mxCell id="dkS68jAwqdc9M66yCIve-0" value="pc1" style="text;html=1;strokeColor=none;fillColor=none;align=center;verticalAlign=middle;whiteSpace=wrap;rounded=0;dashed=1;" parent="iFzb1qE4RooG4vSpQRDy-1" vertex="1">
          <mxGeometry x="204" y="420" width="60" height="30" as="geometry" />
        </mxCell>
        <mxCell id="dkS68jAwqdc9M66yCIve-1" value="s1" style="text;html=1;strokeColor=none;fillColor=none;align=center;verticalAlign=middle;whiteSpace=wrap;rounded=0;dashed=1;" parent="iFzb1qE4RooG4vSpQRDy-1" vertex="1">
          <mxGeometry x="394" y="420" width="60" height="30" as="geometry" />
        </mxCell>
        <mxCell id="dkS68jAwqdc9M66yCIve-3" value="pc4" style="text;html=1;strokeColor=none;fillColor=none;align=center;verticalAlign=middle;whiteSpace=wrap;rounded=0;dashed=1;" parent="iFzb1qE4RooG4vSpQRDy-1" vertex="1">
          <mxGeometry x="564" y="420" width="60" height="30" as="geometry" />
        </mxCell>
        <mxCell id="SLerscYsHqt00sQzE_KK-12" value="" style="group" parent="iFzb1qE4RooG4vSpQRDy-1" vertex="1" connectable="0">
          <mxGeometry x="-170" y="190" width="300" height="120" as="geometry" />
        </mxCell>
        <mxCell id="SLerscYsHqt00sQzE_KK-0" value="hello,world" style="rounded=0;whiteSpace=wrap;html=1;dashed=1;strokeColor=#3A5431;fillColor=#6d8764;fontColor=#ffffff;" parent="SLerscYsHqt00sQzE_KK-12" vertex="1">
          <mxGeometry x="225" width="75" height="30" as="geometry" />
        </mxCell>
        <mxCell id="SLerscYsHqt00sQzE_KK-1" value="hello,world" style="rounded=0;whiteSpace=wrap;html=1;dashed=1;strokeColor=#3A5431;fillColor=#6d8764;fontColor=#ffffff;" parent="SLerscYsHqt00sQzE_KK-12" vertex="1">
          <mxGeometry x="225" y="30" width="75" height="30" as="geometry" />
        </mxCell>
        <mxCell id="SLerscYsHqt00sQzE_KK-2" value="TCP head" style="rounded=0;whiteSpace=wrap;html=1;dashed=1;strokeColor=#36393d;fillColor=#eeeeee;" parent="SLerscYsHqt00sQzE_KK-12" vertex="1">
          <mxGeometry x="158.33333333333331" y="30" width="66.66666666666667" height="30" as="geometry" />
        </mxCell>
        <mxCell id="SLerscYsHqt00sQzE_KK-3" value="TCP head" style="rounded=0;whiteSpace=wrap;html=1;dashed=1;strokeColor=#36393d;fillColor=#eeeeee;" parent="SLerscYsHqt00sQzE_KK-12" vertex="1">
          <mxGeometry x="158.33333333333331" y="60" width="66.66666666666667" height="30" as="geometry" />
        </mxCell>
        <mxCell id="SLerscYsHqt00sQzE_KK-4" value="hello, world" style="rounded=0;whiteSpace=wrap;html=1;dashed=1;strokeColor=#3A5431;fillColor=#6d8764;fontColor=#ffffff;" parent="SLerscYsHqt00sQzE_KK-12" vertex="1">
          <mxGeometry x="225" y="60" width="75" height="30" as="geometry" />
        </mxCell>
        <mxCell id="SLerscYsHqt00sQzE_KK-5" value="src 192.168.1.101&lt;br&gt;dst 192.168.1.104" style="rounded=0;whiteSpace=wrap;html=1;dashed=1;strokeColor=#36393d;fillColor=#ffcc99;" parent="SLerscYsHqt00sQzE_KK-12" vertex="1">
          <mxGeometry x="40" y="60" width="118.33" height="30" as="geometry" />
        </mxCell>
        <mxCell id="SLerscYsHqt00sQzE_KK-6" value="TCP head" style="rounded=0;whiteSpace=wrap;html=1;dashed=1;strokeColor=#36393d;fillColor=#eeeeee;" parent="SLerscYsHqt00sQzE_KK-12" vertex="1">
          <mxGeometry x="158.33333333333331" y="90" width="66.66666666666667" height="30" as="geometry" />
        </mxCell>
        <mxCell id="SLerscYsHqt00sQzE_KK-7" value="hello, world" style="rounded=0;whiteSpace=wrap;html=1;dashed=1;strokeColor=#3A5431;fillColor=#6d8764;fontColor=#ffffff;" parent="SLerscYsHqt00sQzE_KK-12" vertex="1">
          <mxGeometry x="225" y="90" width="75" height="30" as="geometry" />
        </mxCell>
        <mxCell id="iASa7vK_s__6H_O8b0OE-0" value="src 192.168.1.101&lt;br&gt;dst 192.168.1.104" style="rounded=0;whiteSpace=wrap;html=1;dashed=1;strokeColor=#36393d;fillColor=#ffcc99;" parent="SLerscYsHqt00sQzE_KK-12" vertex="1">
          <mxGeometry x="40" y="90" width="118.33" height="30" as="geometry" />
        </mxCell>
        <mxCell id="SLerscYsHqt00sQzE_KK-9" value="src pc4_mac&lt;br&gt;dst pc1_mac" style="rounded=0;whiteSpace=wrap;html=1;dashed=1;strokeColor=#36393d;fillColor=#ffcccc;" parent="iFzb1qE4RooG4vSpQRDy-1" vertex="1">
          <mxGeometry x="-230" y="280" width="100" height="30" as="geometry" />
        </mxCell>
      </root>
    </mxGraphModel>
  </diagram>
  <diagram id="4iwoKIu4CvKLkkezfOUM" name="route-principle">
    <mxGraphModel dx="1422" dy="724" grid="1" gridSize="10" guides="1" tooltips="1" connect="1" arrows="1" fold="1" page="1" pageScale="1" pageWidth="1169" pageHeight="827" math="0" shadow="0">
      <root>
        <mxCell id="3HhZPVJpkTfoRdqZvDDx-0" />
        <mxCell id="3HhZPVJpkTfoRdqZvDDx-1" parent="3HhZPVJpkTfoRdqZvDDx-0" />
        <mxCell id="k11zBz43Cf92LweKVgzT-1" style="edgeStyle=orthogonalEdgeStyle;rounded=0;orthogonalLoop=1;jettySize=auto;html=1;entryX=0.145;entryY=0.145;entryDx=0;entryDy=0;entryPerimeter=0;endArrow=none;endFill=0;elbow=vertical;curved=1;" parent="3HhZPVJpkTfoRdqZvDDx-1" source="k11zBz43Cf92LweKVgzT-2" target="k11zBz43Cf92LweKVgzT-27" edge="1">
          <mxGeometry relative="1" as="geometry">
            <mxPoint x="440" y="352.5" as="targetPoint" />
            <Array as="points">
              <mxPoint x="360" y="280" />
              <mxPoint x="360" y="347" />
            </Array>
          </mxGeometry>
        </mxCell>
        <mxCell id="k11zBz43Cf92LweKVgzT-2" value="" style="points=[[0.03,0.03,0],[0.5,0,0],[0.97,0.03,0],[1,0.4,0],[0.97,0.745,0],[0.5,1,0],[0.03,0.745,0],[0,0.4,0]];verticalLabelPosition=bottom;sketch=0;html=1;verticalAlign=top;aspect=fixed;align=center;pointerEvents=1;shape=mxgraph.cisco19.workstation;fillColor=#005073;strokeColor=none;dashed=1;" parent="3HhZPVJpkTfoRdqZvDDx-1" vertex="1">
          <mxGeometry x="200" y="260" width="80" height="64" as="geometry" />
        </mxCell>
        <mxCell id="k11zBz43Cf92LweKVgzT-3" style="edgeStyle=orthogonalEdgeStyle;rounded=0;orthogonalLoop=1;jettySize=auto;html=1;entryX=0;entryY=0.75;entryDx=0;entryDy=0;entryPerimeter=0;endArrow=none;endFill=0;elbow=vertical;exitX=1;exitY=0.4;exitDx=0;exitDy=0;exitPerimeter=0;curved=1;" parent="3HhZPVJpkTfoRdqZvDDx-1" source="k11zBz43Cf92LweKVgzT-4" edge="1">
          <mxGeometry relative="1" as="geometry">
            <mxPoint x="270" y="434" as="sourcePoint" />
            <mxPoint x="440" y="377.5" as="targetPoint" />
            <Array as="points">
              <mxPoint x="370" y="440" />
              <mxPoint x="370" y="378" />
            </Array>
          </mxGeometry>
        </mxCell>
        <mxCell id="k11zBz43Cf92LweKVgzT-4" value="" style="points=[[0.03,0.03,0],[0.5,0,0],[0.97,0.03,0],[1,0.4,0],[0.97,0.745,0],[0.5,1,0],[0.03,0.745,0],[0,0.4,0]];verticalLabelPosition=bottom;sketch=0;html=1;verticalAlign=top;aspect=fixed;align=center;pointerEvents=1;shape=mxgraph.cisco19.workstation;fillColor=#005073;strokeColor=none;dashed=1;" parent="3HhZPVJpkTfoRdqZvDDx-1" vertex="1">
          <mxGeometry x="200" y="414" width="80" height="64" as="geometry" />
        </mxCell>
        <mxCell id="k11zBz43Cf92LweKVgzT-5" style="edgeStyle=orthogonalEdgeStyle;rounded=0;orthogonalLoop=1;jettySize=auto;html=1;entryX=0.8555;entryY=0.145;entryDx=0;entryDy=0;endArrow=none;endFill=0;elbow=vertical;curved=1;entryPerimeter=0;" parent="3HhZPVJpkTfoRdqZvDDx-1" source="k11zBz43Cf92LweKVgzT-6" target="k11zBz43Cf92LweKVgzT-27" edge="1">
          <mxGeometry relative="1" as="geometry">
            <mxPoint x="490" y="352.5" as="targetPoint" />
            <Array as="points">
              <mxPoint x="590" y="292" />
              <mxPoint x="590" y="349" />
              <mxPoint x="483" y="349" />
            </Array>
          </mxGeometry>
        </mxCell>
        <mxCell id="k11zBz43Cf92LweKVgzT-6" value="" style="points=[[0.03,0.03,0],[0.5,0,0],[0.97,0.03,0],[1,0.4,0],[0.97,0.745,0],[0.5,1,0],[0.03,0.745,0],[0,0.4,0]];verticalLabelPosition=bottom;sketch=0;html=1;verticalAlign=top;align=center;pointerEvents=1;shape=mxgraph.cisco19.workstation;fillColor=#005073;strokeColor=none;dashed=1;aspect=fixed;" parent="3HhZPVJpkTfoRdqZvDDx-1" vertex="1">
          <mxGeometry x="640" y="260" width="80" height="64" as="geometry" />
        </mxCell>
        <mxCell id="k11zBz43Cf92LweKVgzT-7" style="edgeStyle=orthogonalEdgeStyle;rounded=0;orthogonalLoop=1;jettySize=auto;html=1;entryX=1;entryY=0.75;entryDx=0;entryDy=0;entryPerimeter=0;endArrow=none;endFill=0;elbow=vertical;exitX=0;exitY=0.4;exitDx=0;exitDy=0;exitPerimeter=0;curved=1;" parent="3HhZPVJpkTfoRdqZvDDx-1" source="k11zBz43Cf92LweKVgzT-8" edge="1">
          <mxGeometry relative="1" as="geometry">
            <mxPoint x="490" y="377.5" as="targetPoint" />
            <Array as="points">
              <mxPoint x="580" y="440" />
              <mxPoint x="580" y="378" />
            </Array>
          </mxGeometry>
        </mxCell>
        <mxCell id="k11zBz43Cf92LweKVgzT-8" value="" style="points=[[0.03,0.03,0],[0.5,0,0],[0.97,0.03,0],[1,0.4,0],[0.97,0.745,0],[0.5,1,0],[0.03,0.745,0],[0,0.4,0]];verticalLabelPosition=bottom;sketch=0;html=1;verticalAlign=top;aspect=fixed;align=center;pointerEvents=1;shape=mxgraph.cisco19.workstation;fillColor=#005073;strokeColor=none;dashed=1;" parent="3HhZPVJpkTfoRdqZvDDx-1" vertex="1">
          <mxGeometry x="640" y="414" width="80" height="64" as="geometry" />
        </mxCell>
        <mxCell id="k11zBz43Cf92LweKVgzT-9" value="r1 route table" style="rounded=0;whiteSpace=wrap;html=1;dashed=1;strokeColor=default;fillColor=none;" parent="3HhZPVJpkTfoRdqZvDDx-1" vertex="1">
          <mxGeometry x="460" y="80" width="260" height="30" as="geometry" />
        </mxCell>
        <mxCell id="k11zBz43Cf92LweKVgzT-10" value="eth3" style="text;html=1;strokeColor=none;fillColor=none;align=center;verticalAlign=middle;whiteSpace=wrap;rounded=0;dashed=1;" parent="3HhZPVJpkTfoRdqZvDDx-1" vertex="1">
          <mxGeometry x="390" y="379" width="60" height="30" as="geometry" />
        </mxCell>
        <mxCell id="k11zBz43Cf92LweKVgzT-11" value="192.168.1.1&lt;br&gt;eth1" style="text;html=1;strokeColor=none;fillColor=none;align=center;verticalAlign=middle;whiteSpace=wrap;rounded=0;dashed=1;" parent="3HhZPVJpkTfoRdqZvDDx-1" vertex="1">
          <mxGeometry x="390" y="310" width="60" height="30" as="geometry" />
        </mxCell>
        <mxCell id="k11zBz43Cf92LweKVgzT-12" value="192.168.2.1&lt;br&gt;eth2" style="text;html=1;strokeColor=none;fillColor=none;align=center;verticalAlign=middle;whiteSpace=wrap;rounded=0;dashed=1;" parent="3HhZPVJpkTfoRdqZvDDx-1" vertex="1">
          <mxGeometry x="480" y="310" width="60" height="30" as="geometry" />
        </mxCell>
        <mxCell id="k11zBz43Cf92LweKVgzT-13" value="eth4" style="text;html=1;strokeColor=none;fillColor=none;align=center;verticalAlign=middle;whiteSpace=wrap;rounded=0;dashed=1;" parent="3HhZPVJpkTfoRdqZvDDx-1" vertex="1">
          <mxGeometry x="480" y="379" width="60" height="30" as="geometry" />
        </mxCell>
        <mxCell id="k11zBz43Cf92LweKVgzT-14" value="192.168.1.0/24" style="rounded=0;whiteSpace=wrap;html=1;dashed=1;strokeColor=default;fillColor=none;" parent="3HhZPVJpkTfoRdqZvDDx-1" vertex="1">
          <mxGeometry x="460" y="110" width="110" height="30" as="geometry" />
        </mxCell>
        <mxCell id="k11zBz43Cf92LweKVgzT-15" value="eth1" style="rounded=0;whiteSpace=wrap;html=1;dashed=1;strokeColor=default;fillColor=none;" parent="3HhZPVJpkTfoRdqZvDDx-1" vertex="1">
          <mxGeometry x="680" y="110" width="40" height="30" as="geometry" />
        </mxCell>
        <mxCell id="k11zBz43Cf92LweKVgzT-16" value="192.168.2.0/24" style="rounded=0;whiteSpace=wrap;html=1;dashed=1;strokeColor=default;fillColor=none;" parent="3HhZPVJpkTfoRdqZvDDx-1" vertex="1">
          <mxGeometry x="460" y="140" width="110" height="30" as="geometry" />
        </mxCell>
        <mxCell id="k11zBz43Cf92LweKVgzT-17" value="eth2" style="rounded=0;whiteSpace=wrap;html=1;dashed=1;strokeColor=default;fillColor=none;" parent="3HhZPVJpkTfoRdqZvDDx-1" vertex="1">
          <mxGeometry x="680" y="140" width="40" height="30" as="geometry" />
        </mxCell>
        <mxCell id="k11zBz43Cf92LweKVgzT-18" value="192.168.3.0/24" style="rounded=0;whiteSpace=wrap;html=1;dashed=1;strokeColor=default;fillColor=none;" parent="3HhZPVJpkTfoRdqZvDDx-1" vertex="1">
          <mxGeometry x="460" y="170" width="110" height="30" as="geometry" />
        </mxCell>
        <mxCell id="k11zBz43Cf92LweKVgzT-19" value="eth3" style="rounded=0;whiteSpace=wrap;html=1;dashed=1;strokeColor=default;fillColor=none;" parent="3HhZPVJpkTfoRdqZvDDx-1" vertex="1">
          <mxGeometry x="680" y="170" width="40" height="30" as="geometry" />
        </mxCell>
        <mxCell id="k11zBz43Cf92LweKVgzT-20" value="192.168.4.0/24" style="rounded=0;whiteSpace=wrap;html=1;dashed=1;strokeColor=default;fillColor=none;" parent="3HhZPVJpkTfoRdqZvDDx-1" vertex="1">
          <mxGeometry x="460" y="200" width="110" height="30" as="geometry" />
        </mxCell>
        <mxCell id="k11zBz43Cf92LweKVgzT-21" value="eth4" style="rounded=0;whiteSpace=wrap;html=1;dashed=1;strokeColor=default;fillColor=none;" parent="3HhZPVJpkTfoRdqZvDDx-1" vertex="1">
          <mxGeometry x="680" y="200" width="40" height="30" as="geometry" />
        </mxCell>
        <mxCell id="k11zBz43Cf92LweKVgzT-22" value="pc1&lt;br&gt;192.168.1.101" style="text;html=1;strokeColor=none;fillColor=none;align=center;verticalAlign=middle;whiteSpace=wrap;rounded=0;dashed=1;" parent="3HhZPVJpkTfoRdqZvDDx-1" vertex="1">
          <mxGeometry x="210" y="330" width="60" height="30" as="geometry" />
        </mxCell>
        <mxCell id="k11zBz43Cf92LweKVgzT-23" value="pc2&lt;br&gt;192.168.2.102" style="text;html=1;strokeColor=none;fillColor=none;align=center;verticalAlign=middle;whiteSpace=wrap;rounded=0;dashed=1;" parent="3HhZPVJpkTfoRdqZvDDx-1" vertex="1">
          <mxGeometry x="650" y="330" width="60" height="30" as="geometry" />
        </mxCell>
        <mxCell id="k11zBz43Cf92LweKVgzT-24" value="pc4&lt;br&gt;192.168.4.104" style="text;html=1;strokeColor=none;fillColor=none;align=center;verticalAlign=middle;whiteSpace=wrap;rounded=0;dashed=1;" parent="3HhZPVJpkTfoRdqZvDDx-1" vertex="1">
          <mxGeometry x="650" y="490" width="60" height="30" as="geometry" />
        </mxCell>
        <mxCell id="k11zBz43Cf92LweKVgzT-25" value="pc3&lt;br&gt;192.168.3.103" style="text;html=1;strokeColor=none;fillColor=none;align=center;verticalAlign=middle;whiteSpace=wrap;rounded=0;dashed=1;" parent="3HhZPVJpkTfoRdqZvDDx-1" vertex="1">
          <mxGeometry x="211" y="490" width="60" height="30" as="geometry" />
        </mxCell>
        <mxCell id="k11zBz43Cf92LweKVgzT-26" value="r1" style="text;html=1;strokeColor=none;fillColor=none;align=center;verticalAlign=middle;whiteSpace=wrap;rounded=0;dashed=1;" parent="3HhZPVJpkTfoRdqZvDDx-1" vertex="1">
          <mxGeometry x="435" y="400" width="60" height="30" as="geometry" />
        </mxCell>
        <mxCell id="k11zBz43Cf92LweKVgzT-27" value="" style="sketch=0;points=[[0.5,0,0],[1,0.5,0],[0.5,1,0],[0,0.5,0],[0.145,0.145,0],[0.8555,0.145,0],[0.855,0.8555,0],[0.145,0.855,0]];verticalLabelPosition=bottom;html=1;verticalAlign=top;aspect=fixed;align=center;pointerEvents=1;shape=mxgraph.cisco19.rect;prIcon=router;fillColor=#FAFAFA;strokeColor=#005073;fontColor=#0000FF;" parent="3HhZPVJpkTfoRdqZvDDx-1" vertex="1">
          <mxGeometry x="440" y="340" width="50" height="50" as="geometry" />
        </mxCell>
        <mxCell id="Ygx6lkm02gg7LUI_zbH5-5" value="" style="group" parent="3HhZPVJpkTfoRdqZvDDx-1" vertex="1" connectable="0">
          <mxGeometry x="140" y="120" width="260" height="90" as="geometry" />
        </mxCell>
        <mxCell id="Ygx6lkm02gg7LUI_zbH5-0" value="pc1 route table" style="rounded=0;whiteSpace=wrap;html=1;dashed=1;strokeColor=default;fillColor=none;" parent="Ygx6lkm02gg7LUI_zbH5-5" vertex="1">
          <mxGeometry width="260" height="30" as="geometry" />
        </mxCell>
        <mxCell id="Ygx6lkm02gg7LUI_zbH5-1" value="192.168.1.0/24" style="rounded=0;whiteSpace=wrap;html=1;dashed=1;strokeColor=default;fillColor=none;" parent="Ygx6lkm02gg7LUI_zbH5-5" vertex="1">
          <mxGeometry y="30" width="110" height="30" as="geometry" />
        </mxCell>
        <mxCell id="Ygx6lkm02gg7LUI_zbH5-2" value="eth0" style="rounded=0;whiteSpace=wrap;html=1;dashed=1;strokeColor=default;fillColor=none;" parent="Ygx6lkm02gg7LUI_zbH5-5" vertex="1">
          <mxGeometry x="220" y="30" width="40" height="30" as="geometry" />
        </mxCell>
        <mxCell id="Ygx6lkm02gg7LUI_zbH5-3" value="default" style="rounded=0;whiteSpace=wrap;html=1;dashed=1;strokeColor=default;fillColor=none;" parent="Ygx6lkm02gg7LUI_zbH5-5" vertex="1">
          <mxGeometry y="60" width="110" height="30" as="geometry" />
        </mxCell>
        <mxCell id="Ygx6lkm02gg7LUI_zbH5-4" value="eth0" style="rounded=0;whiteSpace=wrap;html=1;dashed=1;strokeColor=default;fillColor=none;" parent="Ygx6lkm02gg7LUI_zbH5-5" vertex="1">
          <mxGeometry x="220" y="60" width="40" height="30" as="geometry" />
        </mxCell>
        <mxCell id="Ygx6lkm02gg7LUI_zbH5-24" value="0.0.0.0" style="rounded=0;whiteSpace=wrap;html=1;dashed=1;strokeColor=default;fillColor=none;" parent="Ygx6lkm02gg7LUI_zbH5-5" vertex="1">
          <mxGeometry x="110" y="30" width="110" height="30" as="geometry" />
        </mxCell>
        <mxCell id="Ygx6lkm02gg7LUI_zbH5-25" value="192.168.1.1/24" style="rounded=0;whiteSpace=wrap;html=1;dashed=1;strokeColor=default;fillColor=none;" parent="Ygx6lkm02gg7LUI_zbH5-5" vertex="1">
          <mxGeometry x="110" y="60" width="110" height="30" as="geometry" />
        </mxCell>
        <mxCell id="Ygx6lkm02gg7LUI_zbH5-26" value="0.0.0.0" style="rounded=0;whiteSpace=wrap;html=1;dashed=1;strokeColor=default;fillColor=none;" parent="3HhZPVJpkTfoRdqZvDDx-1" vertex="1">
          <mxGeometry x="570" y="110" width="110" height="30" as="geometry" />
        </mxCell>
        <mxCell id="Ygx6lkm02gg7LUI_zbH5-29" value="0.0.0.0" style="rounded=0;whiteSpace=wrap;html=1;dashed=1;strokeColor=default;fillColor=none;" parent="3HhZPVJpkTfoRdqZvDDx-1" vertex="1">
          <mxGeometry x="570" y="140" width="110" height="30" as="geometry" />
        </mxCell>
        <mxCell id="Ygx6lkm02gg7LUI_zbH5-30" value="0.0.0.0" style="rounded=0;whiteSpace=wrap;html=1;dashed=1;strokeColor=default;fillColor=none;" parent="3HhZPVJpkTfoRdqZvDDx-1" vertex="1">
          <mxGeometry x="570" y="170" width="110" height="30" as="geometry" />
        </mxCell>
        <mxCell id="Ygx6lkm02gg7LUI_zbH5-31" value="0.0.0.0" style="rounded=0;whiteSpace=wrap;html=1;dashed=1;strokeColor=default;fillColor=none;" parent="3HhZPVJpkTfoRdqZvDDx-1" vertex="1">
          <mxGeometry x="570" y="200" width="110" height="30" as="geometry" />
        </mxCell>
        <mxCell id="-i83AL7b63GocyyfURNv-0" value="&lt;h1&gt;&lt;font style=&quot;font-size: 24px&quot;&gt;三层路由通信过程&lt;/font&gt;&lt;/h1&gt;&lt;div style=&quot;font-size: 14px&quot;&gt;pc1发送“hello world”到pc4&lt;/div&gt;&lt;p style=&quot;font-size: 14px&quot;&gt;1、pc1协议栈依次封装包，在网络层根据目标地址192.168.4.104查找路由表，匹配默认路由，确认从eth0端口发出，目的ip设置为192.168.4.104，数据链路层将目标mac地址设置为R1路由器eth1端口的mac地址（可能需要arp获取）&lt;/p&gt;&lt;p style=&quot;font-size: 14px&quot;&gt;2、数据包到达r1，其协议栈依次解包，在网络层处理时，发现目的地址是其他机器，需要转发，查询路由表，匹配192.168.4.0/24的路由，确认从eth4端口发出，数据链路层封装二层包头，设置源mac地址为r1路由器eth4口的mac地址，目的mac地址为pc4的网口mac地址&lt;/p&gt;&lt;p style=&quot;font-size: 14px&quot;&gt;3、pc4收到r1转发的包，检查其目的mac地址与自己相符，于是交由本协议栈处理，依次往上解包，直到获取到hello world消息&lt;/p&gt;" style="text;html=1;strokeColor=none;fillColor=none;spacing=5;spacingTop=-20;whiteSpace=wrap;overflow=hidden;rounded=0;fontSize=14;fontFamily=Comic Sans MS;" parent="3HhZPVJpkTfoRdqZvDDx-1" vertex="1">
          <mxGeometry x="770" y="80" width="290" height="440" as="geometry" />
        </mxCell>
        <mxCell id="k44DGk3oqruLJtccPsVJ-0" value="" style="endArrow=classic;html=1;rounded=0;curved=1;entryX=0;entryY=0.75;entryDx=0;entryDy=0;dashed=1;dashPattern=1 4;" parent="3HhZPVJpkTfoRdqZvDDx-1" target="Ygx6lkm02gg7LUI_zbH5-0" edge="1">
          <mxGeometry width="50" height="50" relative="1" as="geometry">
            <mxPoint x="190" y="290" as="sourcePoint" />
            <mxPoint x="77" y="155" as="targetPoint" />
            <Array as="points">
              <mxPoint y="250" />
            </Array>
          </mxGeometry>
        </mxCell>
        <mxCell id="k44DGk3oqruLJtccPsVJ-1" value="" style="endArrow=classic;html=1;rounded=0;curved=1;dashed=1;dashPattern=1 4;entryX=0;entryY=0.25;entryDx=0;entryDy=0;exitX=0.5;exitY=0;exitDx=0;exitDy=0;exitPerimeter=0;" parent="3HhZPVJpkTfoRdqZvDDx-1" source="k11zBz43Cf92LweKVgzT-27" target="k11zBz43Cf92LweKVgzT-9" edge="1">
          <mxGeometry width="50" height="50" relative="1" as="geometry">
            <mxPoint x="460" y="330" as="sourcePoint" />
            <mxPoint x="440" y="160" as="targetPoint" />
            <Array as="points">
              <mxPoint x="410" y="290" />
              <mxPoint x="410" y="110" />
            </Array>
          </mxGeometry>
        </mxCell>
      </root>
    </mxGraphModel>
  </diagram>
  <diagram id="ku4lhLV15nCnP99kO7Ms" name="router-packet-stream">
    <mxGraphModel dx="1422" dy="724" grid="1" gridSize="10" guides="1" tooltips="1" connect="1" arrows="1" fold="1" page="1" pageScale="1" pageWidth="827" pageHeight="1169" math="0" shadow="0">
      <root>
        <mxCell id="ikDKW9ocQEKDBmaOmGlA-0" />
        <mxCell id="ikDKW9ocQEKDBmaOmGlA-1" parent="ikDKW9ocQEKDBmaOmGlA-0" />
        <mxCell id="D9DOKivsJf1Vfn0Gi057-0" value="eth0" style="rounded=1;whiteSpace=wrap;html=1;dashed=1;strokeColor=#666666;fillColor=#f5f5f5;fontColor=#333333;" parent="ikDKW9ocQEKDBmaOmGlA-1" vertex="1">
          <mxGeometry x="244" y="360" width="40" height="30" as="geometry" />
        </mxCell>
        <mxCell id="D9DOKivsJf1Vfn0Gi057-1" value="" style="group" parent="ikDKW9ocQEKDBmaOmGlA-1" vertex="1" connectable="0">
          <mxGeometry x="204" y="210" width="120" height="150" as="geometry" />
        </mxCell>
        <mxCell id="D9DOKivsJf1Vfn0Gi057-2" value="Application" style="rounded=1;whiteSpace=wrap;html=1;dashed=1;strokeColor=#3A5431;fillColor=#6d8764;fontColor=#ffffff;" parent="D9DOKivsJf1Vfn0Gi057-1" vertex="1">
          <mxGeometry width="120" height="30" as="geometry" />
        </mxCell>
        <mxCell id="D9DOKivsJf1Vfn0Gi057-3" value="Tranport" style="rounded=1;whiteSpace=wrap;html=1;dashed=1;strokeColor=#36393d;fillColor=#eeeeee;" parent="D9DOKivsJf1Vfn0Gi057-1" vertex="1">
          <mxGeometry y="30" width="120" height="30" as="geometry" />
        </mxCell>
        <mxCell id="D9DOKivsJf1Vfn0Gi057-4" value="Network" style="rounded=1;whiteSpace=wrap;html=1;dashed=1;strokeColor=#36393d;fillColor=#ffcc99;" parent="D9DOKivsJf1Vfn0Gi057-1" vertex="1">
          <mxGeometry y="60" width="120" height="30" as="geometry" />
        </mxCell>
        <mxCell id="D9DOKivsJf1Vfn0Gi057-5" value="Data link" style="rounded=1;whiteSpace=wrap;html=1;dashed=1;strokeColor=#36393d;fillColor=#ffcccc;" parent="D9DOKivsJf1Vfn0Gi057-1" vertex="1">
          <mxGeometry y="90" width="120" height="30" as="geometry" />
        </mxCell>
        <mxCell id="D9DOKivsJf1Vfn0Gi057-6" value="Physical" style="rounded=1;whiteSpace=wrap;html=1;dashed=1;strokeColor=#666666;fillColor=#f5f5f5;fontColor=#333333;" parent="D9DOKivsJf1Vfn0Gi057-1" vertex="1">
          <mxGeometry y="120" width="120" height="30" as="geometry" />
        </mxCell>
        <mxCell id="D9DOKivsJf1Vfn0Gi057-7" value="" style="group" parent="ikDKW9ocQEKDBmaOmGlA-1" vertex="1" connectable="0">
          <mxGeometry x="380" y="210" width="120" height="150" as="geometry" />
        </mxCell>
        <mxCell id="D9DOKivsJf1Vfn0Gi057-8" value="Application" style="rounded=1;whiteSpace=wrap;html=1;dashed=1;strokeColor=#3A5431;fillColor=#6d8764;fontColor=#ffffff;" parent="D9DOKivsJf1Vfn0Gi057-7" vertex="1">
          <mxGeometry width="120" height="30" as="geometry" />
        </mxCell>
        <mxCell id="D9DOKivsJf1Vfn0Gi057-9" value="Tranport" style="rounded=1;whiteSpace=wrap;html=1;dashed=1;strokeColor=#36393d;fillColor=#eeeeee;" parent="D9DOKivsJf1Vfn0Gi057-7" vertex="1">
          <mxGeometry y="30" width="120" height="30" as="geometry" />
        </mxCell>
        <mxCell id="D9DOKivsJf1Vfn0Gi057-10" value="Network" style="rounded=1;whiteSpace=wrap;html=1;dashed=1;strokeColor=#36393d;fillColor=#ffcc99;" parent="D9DOKivsJf1Vfn0Gi057-7" vertex="1">
          <mxGeometry y="60" width="120" height="30" as="geometry" />
        </mxCell>
        <mxCell id="D9DOKivsJf1Vfn0Gi057-11" value="Data link" style="rounded=1;whiteSpace=wrap;html=1;dashed=1;strokeColor=#36393d;fillColor=#ffcccc;" parent="D9DOKivsJf1Vfn0Gi057-7" vertex="1">
          <mxGeometry y="90" width="120" height="30" as="geometry" />
        </mxCell>
        <mxCell id="D9DOKivsJf1Vfn0Gi057-12" value="Physical" style="rounded=1;whiteSpace=wrap;html=1;dashed=1;strokeColor=#666666;fillColor=#f5f5f5;fontColor=#333333;" parent="D9DOKivsJf1Vfn0Gi057-7" vertex="1">
          <mxGeometry y="120" width="120" height="30" as="geometry" />
        </mxCell>
        <mxCell id="D9DOKivsJf1Vfn0Gi057-24" value="" style="endArrow=none;html=1;rounded=0;startArrow=none;dashed=1;" parent="D9DOKivsJf1Vfn0Gi057-7" edge="1">
          <mxGeometry width="50" height="50" relative="1" as="geometry">
            <mxPoint x="100" y="80" as="sourcePoint" />
            <mxPoint x="20" y="80" as="targetPoint" />
          </mxGeometry>
        </mxCell>
        <mxCell id="D9DOKivsJf1Vfn0Gi057-13" value="" style="group" parent="ikDKW9ocQEKDBmaOmGlA-1" vertex="1" connectable="0">
          <mxGeometry x="550" y="210" width="120" height="150" as="geometry" />
        </mxCell>
        <mxCell id="D9DOKivsJf1Vfn0Gi057-14" value="Application" style="rounded=1;whiteSpace=wrap;html=1;dashed=1;strokeColor=#3A5431;fillColor=#6d8764;fontColor=#ffffff;" parent="D9DOKivsJf1Vfn0Gi057-13" vertex="1">
          <mxGeometry width="120" height="30" as="geometry" />
        </mxCell>
        <mxCell id="D9DOKivsJf1Vfn0Gi057-15" value="Tranport" style="rounded=1;whiteSpace=wrap;html=1;dashed=1;strokeColor=#36393d;fillColor=#eeeeee;" parent="D9DOKivsJf1Vfn0Gi057-13" vertex="1">
          <mxGeometry y="30" width="120" height="30" as="geometry" />
        </mxCell>
        <mxCell id="D9DOKivsJf1Vfn0Gi057-16" value="Network" style="rounded=1;whiteSpace=wrap;html=1;dashed=1;strokeColor=#36393d;fillColor=#ffcc99;" parent="D9DOKivsJf1Vfn0Gi057-13" vertex="1">
          <mxGeometry y="60" width="120" height="30" as="geometry" />
        </mxCell>
        <mxCell id="D9DOKivsJf1Vfn0Gi057-17" value="Data link" style="rounded=1;whiteSpace=wrap;html=1;dashed=1;strokeColor=#36393d;fillColor=#ffcccc;" parent="D9DOKivsJf1Vfn0Gi057-13" vertex="1">
          <mxGeometry y="90" width="120" height="30" as="geometry" />
        </mxCell>
        <mxCell id="D9DOKivsJf1Vfn0Gi057-18" value="Physical" style="rounded=1;whiteSpace=wrap;html=1;dashed=1;strokeColor=#666666;fillColor=#f5f5f5;fontColor=#333333;" parent="D9DOKivsJf1Vfn0Gi057-13" vertex="1">
          <mxGeometry y="120" width="120" height="30" as="geometry" />
        </mxCell>
        <mxCell id="D9DOKivsJf1Vfn0Gi057-19" value="" style="endArrow=none;html=1;rounded=0;startArrow=none;dashed=1;" parent="ikDKW9ocQEKDBmaOmGlA-1" edge="1">
          <mxGeometry width="50" height="50" relative="1" as="geometry">
            <mxPoint x="264" y="410" as="sourcePoint" />
            <mxPoint x="264" y="190" as="targetPoint" />
          </mxGeometry>
        </mxCell>
        <mxCell id="D9DOKivsJf1Vfn0Gi057-20" value="eth1" style="rounded=1;whiteSpace=wrap;html=1;dashed=1;strokeColor=#666666;fillColor=#f5f5f5;fontColor=#333333;" parent="ikDKW9ocQEKDBmaOmGlA-1" vertex="1">
          <mxGeometry x="380" y="360" width="40" height="30" as="geometry" />
        </mxCell>
        <mxCell id="D9DOKivsJf1Vfn0Gi057-21" value="eth4" style="rounded=1;whiteSpace=wrap;html=1;dashed=1;strokeColor=#666666;fillColor=#f5f5f5;fontColor=#333333;" parent="ikDKW9ocQEKDBmaOmGlA-1" vertex="1">
          <mxGeometry x="460" y="360" width="40" height="30" as="geometry" />
        </mxCell>
        <mxCell id="D9DOKivsJf1Vfn0Gi057-22" value="" style="endArrow=none;html=1;rounded=0;startArrow=none;dashed=1;" parent="ikDKW9ocQEKDBmaOmGlA-1" edge="1">
          <mxGeometry width="50" height="50" relative="1" as="geometry">
            <mxPoint x="264" y="410" as="sourcePoint" />
            <mxPoint x="400" y="410" as="targetPoint" />
          </mxGeometry>
        </mxCell>
        <mxCell id="D9DOKivsJf1Vfn0Gi057-23" value="" style="endArrow=none;html=1;rounded=0;startArrow=none;dashed=1;" parent="ikDKW9ocQEKDBmaOmGlA-1" edge="1">
          <mxGeometry width="50" height="50" relative="1" as="geometry">
            <mxPoint x="400" y="410" as="sourcePoint" />
            <mxPoint x="400" y="290" as="targetPoint" />
          </mxGeometry>
        </mxCell>
        <mxCell id="D9DOKivsJf1Vfn0Gi057-25" value="" style="endArrow=none;html=1;rounded=0;startArrow=none;dashed=1;" parent="ikDKW9ocQEKDBmaOmGlA-1" edge="1">
          <mxGeometry width="50" height="50" relative="1" as="geometry">
            <mxPoint x="480" y="410" as="sourcePoint" />
            <mxPoint x="480" y="290" as="targetPoint" />
          </mxGeometry>
        </mxCell>
        <mxCell id="D9DOKivsJf1Vfn0Gi057-26" value="" style="endArrow=none;html=1;rounded=0;startArrow=none;dashed=1;" parent="ikDKW9ocQEKDBmaOmGlA-1" edge="1">
          <mxGeometry width="50" height="50" relative="1" as="geometry">
            <mxPoint x="610" y="410" as="sourcePoint" />
            <mxPoint x="480" y="410" as="targetPoint" />
          </mxGeometry>
        </mxCell>
        <mxCell id="D9DOKivsJf1Vfn0Gi057-27" value="eth0" style="rounded=1;whiteSpace=wrap;html=1;dashed=1;strokeColor=#666666;fillColor=#f5f5f5;fontColor=#333333;" parent="ikDKW9ocQEKDBmaOmGlA-1" vertex="1">
          <mxGeometry x="590" y="360" width="40" height="30" as="geometry" />
        </mxCell>
        <mxCell id="D9DOKivsJf1Vfn0Gi057-28" value="" style="endArrow=none;html=1;rounded=0;startArrow=none;dashed=1;" parent="ikDKW9ocQEKDBmaOmGlA-1" edge="1">
          <mxGeometry width="50" height="50" relative="1" as="geometry">
            <mxPoint x="610" y="410" as="sourcePoint" />
            <mxPoint x="610" y="190" as="targetPoint" />
          </mxGeometry>
        </mxCell>
        <mxCell id="D9DOKivsJf1Vfn0Gi057-29" value="hello, switch" style="rounded=0;whiteSpace=wrap;html=1;" parent="ikDKW9ocQEKDBmaOmGlA-1" vertex="1">
          <mxGeometry x="209" y="160" width="110" height="30" as="geometry" />
        </mxCell>
        <mxCell id="D9DOKivsJf1Vfn0Gi057-30" value="" style="endArrow=classic;html=1;rounded=0;dashed=1;entryX=0.5;entryY=0;entryDx=0;entryDy=0;" parent="ikDKW9ocQEKDBmaOmGlA-1" target="D9DOKivsJf1Vfn0Gi057-29" edge="1">
          <mxGeometry width="50" height="50" relative="1" as="geometry">
            <mxPoint x="264" y="120" as="sourcePoint" />
            <mxPoint x="230" y="70" as="targetPoint" />
          </mxGeometry>
        </mxCell>
        <mxCell id="D9DOKivsJf1Vfn0Gi057-31" value="send" style="text;html=1;strokeColor=none;fillColor=none;align=center;verticalAlign=middle;whiteSpace=wrap;rounded=0;dashed=1;" parent="ikDKW9ocQEKDBmaOmGlA-1" vertex="1">
          <mxGeometry x="200" y="120" width="60" height="30" as="geometry" />
        </mxCell>
        <mxCell id="D9DOKivsJf1Vfn0Gi057-32" value="hello, switch" style="rounded=0;whiteSpace=wrap;html=1;" parent="ikDKW9ocQEKDBmaOmGlA-1" vertex="1">
          <mxGeometry x="550" y="160" width="110" height="30" as="geometry" />
        </mxCell>
        <mxCell id="D9DOKivsJf1Vfn0Gi057-33" value="" style="endArrow=classic;html=1;rounded=0;dashed=1;exitX=0.5;exitY=0;exitDx=0;exitDy=0;" parent="ikDKW9ocQEKDBmaOmGlA-1" source="D9DOKivsJf1Vfn0Gi057-32" edge="1">
          <mxGeometry width="50" height="50" relative="1" as="geometry">
            <mxPoint x="566" y="70" as="sourcePoint" />
            <mxPoint x="605" y="120" as="targetPoint" />
          </mxGeometry>
        </mxCell>
        <mxCell id="D9DOKivsJf1Vfn0Gi057-34" value="recv" style="text;html=1;strokeColor=none;fillColor=none;align=center;verticalAlign=middle;whiteSpace=wrap;rounded=0;dashed=1;" parent="ikDKW9ocQEKDBmaOmGlA-1" vertex="1">
          <mxGeometry x="536" y="120" width="60" height="30" as="geometry" />
        </mxCell>
        <mxCell id="D9DOKivsJf1Vfn0Gi057-35" value="pc1" style="text;html=1;strokeColor=none;fillColor=none;align=center;verticalAlign=middle;whiteSpace=wrap;rounded=0;dashed=1;" parent="ikDKW9ocQEKDBmaOmGlA-1" vertex="1">
          <mxGeometry x="234" y="440" width="60" height="30" as="geometry" />
        </mxCell>
        <mxCell id="D9DOKivsJf1Vfn0Gi057-36" value="r1" style="text;html=1;strokeColor=none;fillColor=none;align=center;verticalAlign=middle;whiteSpace=wrap;rounded=0;dashed=1;" parent="ikDKW9ocQEKDBmaOmGlA-1" vertex="1">
          <mxGeometry x="410" y="440" width="60" height="30" as="geometry" />
        </mxCell>
        <mxCell id="D9DOKivsJf1Vfn0Gi057-37" value="pc4" style="text;html=1;strokeColor=none;fillColor=none;align=center;verticalAlign=middle;whiteSpace=wrap;rounded=0;dashed=1;" parent="ikDKW9ocQEKDBmaOmGlA-1" vertex="1">
          <mxGeometry x="580" y="440" width="60" height="30" as="geometry" />
        </mxCell>
        <mxCell id="NMIKTHvtTbIuqTaKtbuo-1" value="" style="group" parent="ikDKW9ocQEKDBmaOmGlA-1" vertex="1" connectable="0">
          <mxGeometry x="60" y="490" width="370" height="120" as="geometry" />
        </mxCell>
        <mxCell id="RNzc-zpxKTIrl-EQMPCX-1" value="hello,world" style="rounded=0;whiteSpace=wrap;html=1;dashed=1;strokeColor=#3A5431;fillColor=#6d8764;fontColor=#ffffff;" parent="NMIKTHvtTbIuqTaKtbuo-1" vertex="1">
          <mxGeometry x="295" width="75" height="30" as="geometry" />
        </mxCell>
        <mxCell id="RNzc-zpxKTIrl-EQMPCX-2" value="hello,world" style="rounded=0;whiteSpace=wrap;html=1;dashed=1;strokeColor=#3A5431;fillColor=#6d8764;fontColor=#ffffff;" parent="NMIKTHvtTbIuqTaKtbuo-1" vertex="1">
          <mxGeometry x="295" y="30" width="75" height="30" as="geometry" />
        </mxCell>
        <mxCell id="RNzc-zpxKTIrl-EQMPCX-3" value="TCP head" style="rounded=0;whiteSpace=wrap;html=1;dashed=1;strokeColor=#36393d;fillColor=#eeeeee;" parent="NMIKTHvtTbIuqTaKtbuo-1" vertex="1">
          <mxGeometry x="228.33333333333331" y="30" width="66.66666666666667" height="30" as="geometry" />
        </mxCell>
        <mxCell id="RNzc-zpxKTIrl-EQMPCX-4" value="TCP head" style="rounded=0;whiteSpace=wrap;html=1;dashed=1;strokeColor=#36393d;fillColor=#eeeeee;" parent="NMIKTHvtTbIuqTaKtbuo-1" vertex="1">
          <mxGeometry x="228.33333333333331" y="60" width="66.66666666666667" height="30" as="geometry" />
        </mxCell>
        <mxCell id="RNzc-zpxKTIrl-EQMPCX-5" value="hello, world" style="rounded=0;whiteSpace=wrap;html=1;dashed=1;strokeColor=#3A5431;fillColor=#6d8764;fontColor=#ffffff;" parent="NMIKTHvtTbIuqTaKtbuo-1" vertex="1">
          <mxGeometry x="295" y="60" width="75" height="30" as="geometry" />
        </mxCell>
        <mxCell id="RNzc-zpxKTIrl-EQMPCX-6" value="src 192.168.1.101&lt;br&gt;dst 192.168.4.104" style="rounded=0;whiteSpace=wrap;html=1;dashed=1;strokeColor=#36393d;fillColor=#ffcc99;" parent="NMIKTHvtTbIuqTaKtbuo-1" vertex="1">
          <mxGeometry x="110" y="60" width="118.33" height="30" as="geometry" />
        </mxCell>
        <mxCell id="RNzc-zpxKTIrl-EQMPCX-7" value="TCP head" style="rounded=0;whiteSpace=wrap;html=1;dashed=1;strokeColor=#36393d;fillColor=#eeeeee;" parent="NMIKTHvtTbIuqTaKtbuo-1" vertex="1">
          <mxGeometry x="228.33333333333331" y="90" width="66.66666666666667" height="30" as="geometry" />
        </mxCell>
        <mxCell id="RNzc-zpxKTIrl-EQMPCX-8" value="hello, world" style="rounded=0;whiteSpace=wrap;html=1;dashed=1;strokeColor=#3A5431;fillColor=#6d8764;fontColor=#ffffff;" parent="NMIKTHvtTbIuqTaKtbuo-1" vertex="1">
          <mxGeometry x="295" y="90" width="75" height="30" as="geometry" />
        </mxCell>
        <mxCell id="RNzc-zpxKTIrl-EQMPCX-9" value="src 192.168.1.101&lt;br&gt;dst 192.168.1.104" style="rounded=0;whiteSpace=wrap;html=1;dashed=1;strokeColor=#36393d;fillColor=#ffcc99;" parent="NMIKTHvtTbIuqTaKtbuo-1" vertex="1">
          <mxGeometry x="110" y="90" width="118.33" height="30" as="geometry" />
        </mxCell>
        <mxCell id="NMIKTHvtTbIuqTaKtbuo-0" value="src pc1_mac&lt;br&gt;dst r1_eth1_mac" style="rounded=0;whiteSpace=wrap;html=1;dashed=1;strokeColor=#36393d;fillColor=#ffcccc;" parent="NMIKTHvtTbIuqTaKtbuo-1" vertex="1">
          <mxGeometry y="90" width="110" height="30" as="geometry" />
        </mxCell>
        <mxCell id="NMIKTHvtTbIuqTaKtbuo-2" value="" style="group" parent="ikDKW9ocQEKDBmaOmGlA-1" vertex="1" connectable="0">
          <mxGeometry x="460" y="490" width="370" height="120" as="geometry" />
        </mxCell>
        <mxCell id="NMIKTHvtTbIuqTaKtbuo-3" value="hello,world" style="rounded=0;whiteSpace=wrap;html=1;dashed=1;strokeColor=#3A5431;fillColor=#6d8764;fontColor=#ffffff;" parent="NMIKTHvtTbIuqTaKtbuo-2" vertex="1">
          <mxGeometry x="295" width="75" height="30" as="geometry" />
        </mxCell>
        <mxCell id="NMIKTHvtTbIuqTaKtbuo-4" value="hello,world" style="rounded=0;whiteSpace=wrap;html=1;dashed=1;strokeColor=#3A5431;fillColor=#6d8764;fontColor=#ffffff;" parent="NMIKTHvtTbIuqTaKtbuo-2" vertex="1">
          <mxGeometry x="295" y="30" width="75" height="30" as="geometry" />
        </mxCell>
        <mxCell id="NMIKTHvtTbIuqTaKtbuo-5" value="TCP head" style="rounded=0;whiteSpace=wrap;html=1;dashed=1;strokeColor=#36393d;fillColor=#eeeeee;" parent="NMIKTHvtTbIuqTaKtbuo-2" vertex="1">
          <mxGeometry x="228.33333333333331" y="30" width="66.66666666666667" height="30" as="geometry" />
        </mxCell>
        <mxCell id="NMIKTHvtTbIuqTaKtbuo-6" value="TCP head" style="rounded=0;whiteSpace=wrap;html=1;dashed=1;strokeColor=#36393d;fillColor=#eeeeee;" parent="NMIKTHvtTbIuqTaKtbuo-2" vertex="1">
          <mxGeometry x="228.33333333333331" y="60" width="66.66666666666667" height="30" as="geometry" />
        </mxCell>
        <mxCell id="NMIKTHvtTbIuqTaKtbuo-7" value="hello, world" style="rounded=0;whiteSpace=wrap;html=1;dashed=1;strokeColor=#3A5431;fillColor=#6d8764;fontColor=#ffffff;" parent="NMIKTHvtTbIuqTaKtbuo-2" vertex="1">
          <mxGeometry x="295" y="60" width="75" height="30" as="geometry" />
        </mxCell>
        <mxCell id="NMIKTHvtTbIuqTaKtbuo-8" value="src 192.168.1.101&lt;br&gt;dst 192.168.4.104" style="rounded=0;whiteSpace=wrap;html=1;dashed=1;strokeColor=#36393d;fillColor=#ffcc99;" parent="NMIKTHvtTbIuqTaKtbuo-2" vertex="1">
          <mxGeometry x="110" y="60" width="118.33" height="30" as="geometry" />
        </mxCell>
        <mxCell id="NMIKTHvtTbIuqTaKtbuo-9" value="TCP head" style="rounded=0;whiteSpace=wrap;html=1;dashed=1;strokeColor=#36393d;fillColor=#eeeeee;" parent="NMIKTHvtTbIuqTaKtbuo-2" vertex="1">
          <mxGeometry x="228.33333333333331" y="90" width="66.66666666666667" height="30" as="geometry" />
        </mxCell>
        <mxCell id="NMIKTHvtTbIuqTaKtbuo-10" value="hello, world" style="rounded=0;whiteSpace=wrap;html=1;dashed=1;strokeColor=#3A5431;fillColor=#6d8764;fontColor=#ffffff;" parent="NMIKTHvtTbIuqTaKtbuo-2" vertex="1">
          <mxGeometry x="295" y="90" width="75" height="30" as="geometry" />
        </mxCell>
        <mxCell id="NMIKTHvtTbIuqTaKtbuo-11" value="src 192.168.1.101&lt;br&gt;dst 192.168.1.104" style="rounded=0;whiteSpace=wrap;html=1;dashed=1;strokeColor=#36393d;fillColor=#ffcc99;" parent="NMIKTHvtTbIuqTaKtbuo-2" vertex="1">
          <mxGeometry x="110" y="90" width="118.33" height="30" as="geometry" />
        </mxCell>
        <mxCell id="NMIKTHvtTbIuqTaKtbuo-12" value="src r1_eth4_mac&lt;br&gt;dst pc4_mac" style="rounded=0;whiteSpace=wrap;html=1;dashed=1;strokeColor=#36393d;fillColor=#ffcccc;" parent="NMIKTHvtTbIuqTaKtbuo-2" vertex="1">
          <mxGeometry y="90" width="110" height="30" as="geometry" />
        </mxCell>
        <mxCell id="HZtuuIxCikVBS85VbgN5-0" value="" style="endArrow=classic;html=1;rounded=0;dashed=1;dashPattern=1 4;curved=1;exitX=0;exitY=0.5;exitDx=0;exitDy=0;" parent="ikDKW9ocQEKDBmaOmGlA-1" source="D9DOKivsJf1Vfn0Gi057-4" edge="1">
          <mxGeometry width="50" height="50" relative="1" as="geometry">
            <mxPoint x="10" y="300" as="sourcePoint" />
            <mxPoint x="230" y="540" as="targetPoint" />
            <Array as="points">
              <mxPoint x="80" y="370" />
            </Array>
          </mxGeometry>
        </mxCell>
        <mxCell id="HZtuuIxCikVBS85VbgN5-1" value="" style="endArrow=classic;html=1;rounded=0;dashed=1;dashPattern=1 4;curved=1;exitX=0;exitY=0.5;exitDx=0;exitDy=0;" parent="ikDKW9ocQEKDBmaOmGlA-1" source="D9DOKivsJf1Vfn0Gi057-11" edge="1">
          <mxGeometry width="50" height="50" relative="1" as="geometry">
            <mxPoint x="380" y="290" as="sourcePoint" />
            <mxPoint x="530" y="580" as="targetPoint" />
            <Array as="points">
              <mxPoint x="340" y="380" />
              <mxPoint x="430" y="420" />
              <mxPoint x="540" y="450" />
            </Array>
          </mxGeometry>
        </mxCell>
        <mxCell id="vBlYlaMoHbr844Vyku1w-0" value="" style="endArrow=classic;html=1;rounded=0;dashed=1;dashPattern=1 4;curved=1;exitX=0;exitY=0.5;exitDx=0;exitDy=0;" parent="ikDKW9ocQEKDBmaOmGlA-1" source="D9DOKivsJf1Vfn0Gi057-5" edge="1">
          <mxGeometry width="50" height="50" relative="1" as="geometry">
            <mxPoint x="214" y="295" as="sourcePoint" />
            <mxPoint x="130" y="570" as="targetPoint" />
            <Array as="points">
              <mxPoint x="90" y="380" />
            </Array>
          </mxGeometry>
        </mxCell>
      </root>
    </mxGraphModel>
  </diagram>
  <diagram id="U5sjjO6KzdouKFvGjM3L" name="exp_intro">
    <mxGraphModel dx="1422" dy="724" grid="1" gridSize="10" guides="1" tooltips="1" connect="1" arrows="1" fold="1" page="1" pageScale="1" pageWidth="827" pageHeight="1169" math="0" shadow="0">
      <root>
        <mxCell id="4WPnqizxolDEYRLgitDI-0" />
        <mxCell id="4WPnqizxolDEYRLgitDI-1" parent="4WPnqizxolDEYRLgitDI-0" />
        <mxCell id="4WPnqizxolDEYRLgitDI-6" value="" style="edgeStyle=orthogonalEdgeStyle;curved=1;rounded=0;orthogonalLoop=1;jettySize=auto;html=1;endArrow=none;endFill=0;elbow=vertical;" parent="4WPnqizxolDEYRLgitDI-1" source="4WPnqizxolDEYRLgitDI-2" target="4WPnqizxolDEYRLgitDI-4" edge="1">
          <mxGeometry relative="1" as="geometry">
            <mxPoint x="215" y="214.5" as="targetPoint" />
          </mxGeometry>
        </mxCell>
        <mxCell id="4WPnqizxolDEYRLgitDI-2" value="" style="sketch=0;pointerEvents=1;shadow=0;dashed=0;html=1;strokeColor=none;fillColor=#434445;aspect=fixed;labelPosition=center;verticalLabelPosition=bottom;verticalAlign=top;align=center;outlineConnect=0;shape=mxgraph.vvd.physical_network_adapter;" parent="4WPnqizxolDEYRLgitDI-1" vertex="1">
          <mxGeometry x="120" y="200" width="50" height="28.999999999999996" as="geometry" />
        </mxCell>
        <mxCell id="4WPnqizxolDEYRLgitDI-4" value="" style="sketch=0;pointerEvents=1;shadow=0;dashed=0;html=1;strokeColor=none;fillColor=#434445;aspect=fixed;labelPosition=center;verticalLabelPosition=bottom;verticalAlign=top;align=center;outlineConnect=0;shape=mxgraph.vvd.physical_network_adapter;" parent="4WPnqizxolDEYRLgitDI-1" vertex="1">
          <mxGeometry x="310" y="200" width="50" height="28.999999999999996" as="geometry" />
        </mxCell>
        <mxCell id="pTU1hXEKoJEfIHhyUz6r-0" value="" style="fontColor=#0066CC;verticalAlign=top;verticalLabelPosition=bottom;labelPosition=center;align=center;html=1;outlineConnect=0;fillColor=#CCCCCC;strokeColor=#6881B3;gradientColor=none;gradientDirection=north;strokeWidth=2;shape=mxgraph.networks.router;" parent="4WPnqizxolDEYRLgitDI-1" vertex="1">
          <mxGeometry x="127.5" y="440" width="100" height="30" as="geometry" />
        </mxCell>
        <mxCell id="pTU1hXEKoJEfIHhyUz6r-1" value="" style="fontColor=#0066CC;verticalAlign=top;verticalLabelPosition=bottom;labelPosition=center;align=center;html=1;outlineConnect=0;fillColor=#CCCCCC;strokeColor=#6881B3;gradientColor=none;gradientDirection=north;strokeWidth=2;shape=mxgraph.networks.switch;" parent="4WPnqizxolDEYRLgitDI-1" vertex="1">
          <mxGeometry x="127.5" y="320" width="100" height="30" as="geometry" />
        </mxCell>
        <mxCell id="rckQr590IyCN5Hw0Mdsu-0" value="" style="fontColor=#0066CC;verticalAlign=top;verticalLabelPosition=bottom;labelPosition=center;align=center;html=1;outlineConnect=0;fillColor=#CCCCCC;strokeColor=#6881B3;gradientColor=none;gradientDirection=north;strokeWidth=2;shape=mxgraph.networks.virtual_pc;" parent="4WPnqizxolDEYRLgitDI-1" vertex="1">
          <mxGeometry x="120" y="40" width="115" height="85" as="geometry" />
        </mxCell>
        <mxCell id="V-ycnI98k_9iY0EW1F6o-0" value="pc" style="text;html=1;strokeColor=none;fillColor=none;align=center;verticalAlign=middle;whiteSpace=wrap;rounded=0;dashed=1;" parent="4WPnqizxolDEYRLgitDI-1" vertex="1">
          <mxGeometry x="147.5" y="130" width="60" height="30" as="geometry" />
        </mxCell>
        <mxCell id="V-ycnI98k_9iY0EW1F6o-1" value="linked adapters" style="text;html=1;strokeColor=none;fillColor=none;align=center;verticalAlign=middle;whiteSpace=wrap;rounded=0;dashed=1;" parent="4WPnqizxolDEYRLgitDI-1" vertex="1">
          <mxGeometry x="147.5" y="250" width="92.5" height="30" as="geometry" />
        </mxCell>
        <mxCell id="V-ycnI98k_9iY0EW1F6o-2" value="switch" style="text;html=1;strokeColor=none;fillColor=none;align=center;verticalAlign=middle;whiteSpace=wrap;rounded=0;dashed=1;" parent="4WPnqizxolDEYRLgitDI-1" vertex="1">
          <mxGeometry x="147.5" y="360" width="60" height="30" as="geometry" />
        </mxCell>
        <mxCell id="V-ycnI98k_9iY0EW1F6o-3" value="router" style="text;html=1;strokeColor=none;fillColor=none;align=center;verticalAlign=middle;whiteSpace=wrap;rounded=0;dashed=1;" parent="4WPnqizxolDEYRLgitDI-1" vertex="1">
          <mxGeometry x="147.5" y="480" width="60" height="30" as="geometry" />
        </mxCell>
        <mxCell id="UaNd8CQOG-4HzTWDXR95-0" value="&lt;h1&gt;network namespace&lt;/h1&gt;&lt;p style=&quot;font-size: 14px&quot;&gt;用网络命名空间来模拟独立的网络主机&lt;br&gt;&lt;/p&gt;" style="text;html=1;strokeColor=none;fillColor=none;spacing=5;spacingTop=-20;whiteSpace=wrap;overflow=hidden;rounded=0;fontFamily=Comic Sans MS;" parent="4WPnqizxolDEYRLgitDI-1" vertex="1">
          <mxGeometry x="430" y="28.75" width="370" height="107.5" as="geometry" />
        </mxCell>
        <mxCell id="UaNd8CQOG-4HzTWDXR95-1" value="&lt;h1&gt;veth pair&lt;/h1&gt;&lt;p&gt;&lt;font style=&quot;font-size: 14px&quot;&gt;用linux虚拟网卡来模拟一对互连的网卡&lt;/font&gt;&lt;br&gt;&lt;/p&gt;" style="text;html=1;strokeColor=none;fillColor=none;spacing=5;spacingTop=-20;whiteSpace=wrap;overflow=hidden;rounded=0;fontFamily=Comic Sans MS;" parent="4WPnqizxolDEYRLgitDI-1" vertex="1">
          <mxGeometry x="430" y="169.5" width="370" height="90" as="geometry" />
        </mxCell>
        <mxCell id="UaNd8CQOG-4HzTWDXR95-2" value="&lt;h1&gt;bridge&lt;/h1&gt;&lt;p&gt;&lt;span style=&quot;font-size: 14px&quot;&gt;用linux桥接设备来模拟二层交换机&lt;br&gt;&lt;/span&gt;&lt;/p&gt;" style="text;html=1;strokeColor=none;fillColor=none;spacing=5;spacingTop=-20;whiteSpace=wrap;overflow=hidden;rounded=0;fontFamily=Comic Sans MS;" parent="4WPnqizxolDEYRLgitDI-1" vertex="1">
          <mxGeometry x="430" y="290" width="370" height="90" as="geometry" />
        </mxCell>
        <mxCell id="UaNd8CQOG-4HzTWDXR95-3" value="&lt;h1&gt;host/network namespace&lt;/h1&gt;&lt;p&gt;&lt;font style=&quot;font-size: 14px&quot;&gt;用网络命名空间来模拟路由器&lt;/font&gt;&lt;br&gt;&lt;/p&gt;" style="text;html=1;strokeColor=none;fillColor=none;spacing=5;spacingTop=-20;whiteSpace=wrap;overflow=hidden;rounded=0;fontFamily=Comic Sans MS;" parent="4WPnqizxolDEYRLgitDI-1" vertex="1">
          <mxGeometry x="430" y="413" width="380" height="97" as="geometry" />
        </mxCell>
      </root>
    </mxGraphModel>
  </diagram>
  <diagram id="AU9jpy49u628vA4sCeU1" name="network_ns">
    <mxGraphModel dx="1422" dy="724" grid="1" gridSize="10" guides="1" tooltips="1" connect="1" arrows="1" fold="1" page="1" pageScale="1" pageWidth="827" pageHeight="1169" math="0" shadow="0">
      <root>
        <mxCell id="JzZflCKOcfib3AqUFlqF-0" />
        <mxCell id="JzZflCKOcfib3AqUFlqF-1" parent="JzZflCKOcfib3AqUFlqF-0" />
        <mxCell id="eKP66zvQt933_Q3Im1Pk-0" value="&lt;h1&gt;Linux network namespace&lt;/h1&gt;&lt;div style=&quot;font-size: 14px&quot;&gt;&lt;font style=&quot;font-size: 14px&quot;&gt;Linux网络命名空间主要是用来隔离网络资源，为虚拟化、容器等提供隔离的网络环境&lt;br&gt;&lt;/font&gt;&lt;/div&gt;&lt;ul style=&quot;font-size: 14px&quot;&gt;&lt;li&gt;&lt;font style=&quot;font-size: 14px&quot;&gt;协议栈（路由表、ARP表、iptables规则）&lt;/font&gt;&lt;/li&gt;&lt;li&gt;&lt;font style=&quot;font-size: 14px&quot;&gt;网络接口&lt;/font&gt;&lt;/li&gt;&lt;li&gt;&lt;font style=&quot;font-size: 14px&quot;&gt;网络配置参数&lt;/font&gt;&lt;/li&gt;&lt;/ul&gt;&lt;div style=&quot;font-size: 14px&quot;&gt;&lt;font style=&quot;font-size: 14px&quot;&gt;常用的命令：&lt;/font&gt;&lt;/div&gt;&lt;div style=&quot;font-size: 14px&quot;&gt;&lt;font style=&quot;font-size: 14px&quot;&gt;&lt;br&gt;&lt;/font&gt;&lt;/div&gt;&lt;div style=&quot;font-size: 14px&quot;&gt;&lt;font style=&quot;font-size: 14px&quot;&gt;ip netns add [ns_name]&amp;nbsp; 添加网络命名空间&lt;br&gt;&lt;/font&gt;&lt;/div&gt;&lt;div style=&quot;font-size: 14px&quot;&gt;&lt;font style=&quot;font-size: 14px&quot;&gt;&lt;br&gt;&lt;/font&gt;&lt;/div&gt;&lt;div style=&quot;font-size: 14px&quot;&gt;&lt;font style=&quot;font-size: 14px&quot;&gt;ip netns list&amp;nbsp; 列表显示所有网络命名空间&lt;br&gt;&lt;/font&gt;&lt;/div&gt;&lt;div style=&quot;font-size: 14px&quot;&gt;&lt;font style=&quot;font-size: 14px&quot;&gt;&lt;br&gt;&lt;/font&gt;&lt;/div&gt;&lt;div style=&quot;font-size: 14px&quot;&gt;&lt;font style=&quot;font-size: 14px&quot;&gt;ip netns del [ns_name]&amp;nbsp; 删除指定的网络命名空间&lt;br&gt;&lt;/font&gt;&lt;/div&gt;&lt;div style=&quot;font-size: 14px&quot;&gt;&lt;font style=&quot;font-size: 14px&quot;&gt;&lt;br&gt;&lt;/font&gt;&lt;/div&gt;&lt;div style=&quot;font-size: 14px&quot;&gt;&lt;font style=&quot;font-size: 14px&quot;&gt;ip netns exec [ns_name] &#39;command&#39; 在指定的网络命名空间里执行命令&lt;br&gt;例如：ip netns exec my_ns traceroute 192.168.1.101&lt;br&gt;&lt;/font&gt;&lt;/div&gt;&lt;div&gt;&lt;br&gt;&lt;/div&gt;&lt;div&gt;&lt;br&gt;&lt;/div&gt;" style="text;html=1;strokeColor=none;fillColor=none;spacing=5;spacingTop=-20;whiteSpace=wrap;overflow=hidden;rounded=0;fontFamily=Comic Sans MS;" vertex="1" parent="JzZflCKOcfib3AqUFlqF-1">
          <mxGeometry x="80" y="50" width="670" height="340" as="geometry" />
        </mxCell>
        <mxCell id="ReqH7NMKHv7It6SqMCdA-0" value="&lt;h1&gt;Linux veth pair&lt;br&gt;&lt;/h1&gt;&lt;div style=&quot;font-size: 14px&quot;&gt;&lt;font style=&quot;font-size: 14px&quot;&gt;veth pair是一对虚拟网卡，主要用来连接不同的网络命名空间，&lt;/font&gt;通常用作以下场景：&lt;/div&gt;&lt;ul style=&quot;font-size: 14px&quot;&gt;&lt;li&gt;两个不同的网络命名空间的连接&lt;br&gt;&lt;/li&gt;&lt;li&gt;网络命名空间和交换机端口的连接&lt;br&gt;&lt;/li&gt;&lt;/ul&gt;&lt;div style=&quot;font-size: 14px&quot;&gt;&lt;font style=&quot;font-size: 14px&quot;&gt;常用的命令：&lt;/font&gt;&lt;/div&gt;&lt;div style=&quot;font-size: 14px&quot;&gt;&lt;font style=&quot;font-size: 14px&quot;&gt;&lt;br&gt;&lt;/font&gt;&lt;/div&gt;&lt;div style=&quot;font-size: 14px&quot;&gt;&lt;font style=&quot;font-size: 14px&quot;&gt;ip link add [name] type veth peer name [peer_name]&amp;nbsp; 创建veth pair&lt;br&gt;&lt;/font&gt;&lt;/div&gt;&lt;div style=&quot;font-size: 14px&quot;&gt;&lt;font style=&quot;font-size: 14px&quot;&gt;&lt;br&gt;&lt;/font&gt;&lt;/div&gt;&lt;div style=&quot;font-size: 14px&quot;&gt;&lt;font style=&quot;font-size: 14px&quot;&gt;ip link set [name] netns&lt;/font&gt;&amp;nbsp; 设置veth pair其中的一个接口所属的网络命名空间&lt;br&gt;&lt;/div&gt;&lt;div&gt;&lt;br&gt;&lt;/div&gt;&lt;div&gt;&lt;br&gt;&lt;/div&gt;&lt;div&gt;&lt;br&gt;&lt;/div&gt;" style="text;html=1;strokeColor=none;fillColor=none;spacing=5;spacingTop=-20;whiteSpace=wrap;overflow=hidden;rounded=0;fontFamily=Comic Sans MS;" vertex="1" parent="JzZflCKOcfib3AqUFlqF-1">
          <mxGeometry x="79" y="410" width="670" height="250" as="geometry" />
        </mxCell>
        <mxCell id="ReqH7NMKHv7It6SqMCdA-1" value="&lt;h1&gt;Linux bridge&lt;br&gt;&lt;/h1&gt;&lt;div style=&quot;font-size: 14px&quot;&gt;&lt;font style=&quot;font-size: 14px&quot;&gt;Linux bridge是一个软件实现的二层交换设备，主要用来连接多个网络命名空间实现二层互通&lt;br&gt;&lt;/font&gt;&lt;/div&gt;&lt;div style=&quot;font-size: 14px&quot;&gt;&lt;font style=&quot;font-size: 14px&quot;&gt;&lt;br&gt;&lt;/font&gt;&lt;/div&gt;&lt;div style=&quot;font-size: 14px&quot;&gt;&lt;font style=&quot;font-size: 14px&quot;&gt;常用的命令：&lt;/font&gt;&lt;/div&gt;&lt;div style=&quot;font-size: 14px&quot;&gt;&lt;font style=&quot;font-size: 14px&quot;&gt;&lt;br&gt;&lt;/font&gt;&lt;/div&gt;&lt;div style=&quot;font-size: 14px&quot;&gt;&lt;font style=&quot;font-size: 14px&quot;&gt;brctl addbr [br_name]&amp;nbsp; 创建bridge&lt;/font&gt;&lt;/div&gt;&lt;div style=&quot;font-size: 14px&quot;&gt;&lt;font style=&quot;font-size: 14px&quot;&gt;&lt;br&gt;&lt;/font&gt;&lt;/div&gt;&lt;div style=&quot;font-size: 14px&quot;&gt;&lt;font style=&quot;font-size: 14px&quot;&gt;brctl addif [br_name] [dev]&amp;nbsp; 为bridge设备添加端口连接&lt;br&gt;&lt;/font&gt;&lt;/div&gt;&lt;div style=&quot;font-size: 14px&quot;&gt;&lt;font style=&quot;font-size: 14px&quot;&gt;&lt;br&gt;&lt;/font&gt;&lt;/div&gt;&lt;div style=&quot;font-size: 14px&quot;&gt;&lt;font style=&quot;font-size: 14px&quot;&gt;brctl br list&amp;nbsp; 查看所有的bridge设备信息&lt;br&gt;&lt;/font&gt;&lt;/div&gt;&lt;div style=&quot;font-size: 14px&quot;&gt;&lt;font style=&quot;font-size: 14px&quot;&gt;&lt;br&gt;&lt;/font&gt;&lt;/div&gt;&lt;div style=&quot;font-size: 14px&quot;&gt;brctl delif [br_name] [dev]&amp;nbsp; 删除指定接口&lt;br&gt;&lt;/div&gt;&lt;div style=&quot;font-size: 14px&quot;&gt;&lt;br&gt;&lt;/div&gt;&lt;div style=&quot;font-size: 14px&quot;&gt;brctl delbr [br_name]&amp;nbsp; 删除bridge设备&lt;br&gt;&lt;/div&gt;&lt;div&gt;&lt;br&gt;&lt;/div&gt;&lt;div&gt;&lt;br&gt;&lt;/div&gt;&lt;div&gt;&lt;br&gt;&lt;/div&gt;" style="text;html=1;strokeColor=none;fillColor=none;spacing=5;spacingTop=-20;whiteSpace=wrap;overflow=hidden;rounded=0;fontFamily=Comic Sans MS;" vertex="1" parent="JzZflCKOcfib3AqUFlqF-1">
          <mxGeometry x="79" y="680" width="670" height="300" as="geometry" />
        </mxCell>
      </root>
    </mxGraphModel>
  </diagram>
  <diagram id="cIo4NBUF1LtBJeWTmloV" name="direct">
    <mxGraphModel dx="1422" dy="724" grid="1" gridSize="10" guides="1" tooltips="1" connect="1" arrows="1" fold="1" page="1" pageScale="1" pageWidth="827" pageHeight="1169" math="0" shadow="0">
      <root>
        <mxCell id="0" />
        <mxCell id="1" parent="0" />
        <mxCell id="5XzqVgSrryu2sAV9014N-4" style="edgeStyle=entityRelationEdgeStyle;rounded=0;orthogonalLoop=1;jettySize=auto;html=1;endArrow=none;endFill=0;" parent="1" source="qSk6Sl56t5bVNhhoBcRn-1" target="qSk6Sl56t5bVNhhoBcRn-2" edge="1">
          <mxGeometry relative="1" as="geometry">
            <mxPoint x="245" y="82.5" as="sourcePoint" />
            <mxPoint x="510" y="82.5" as="targetPoint" />
          </mxGeometry>
        </mxCell>
        <mxCell id="qSk6Sl56t5bVNhhoBcRn-1" value="" style="fontColor=#0066CC;verticalAlign=top;verticalLabelPosition=bottom;labelPosition=center;align=center;html=1;outlineConnect=0;fillColor=#CCCCCC;strokeColor=#6881B3;gradientColor=none;gradientDirection=north;strokeWidth=2;shape=mxgraph.networks.pc;" parent="1" vertex="1">
          <mxGeometry x="140" y="50" width="100" height="70" as="geometry" />
        </mxCell>
        <mxCell id="qSk6Sl56t5bVNhhoBcRn-2" value="" style="fontColor=#0066CC;verticalAlign=top;verticalLabelPosition=bottom;labelPosition=center;align=center;html=1;outlineConnect=0;fillColor=#CCCCCC;strokeColor=#6881B3;gradientColor=none;gradientDirection=north;strokeWidth=2;shape=mxgraph.networks.pc;" parent="1" vertex="1">
          <mxGeometry x="510" y="50" width="100" height="70" as="geometry" />
        </mxCell>
        <mxCell id="GPrfmfpmbCAjLDBYZoFw-1" value="pc1&lt;br&gt;192.168.1.101/24" style="text;html=1;strokeColor=none;fillColor=none;align=center;verticalAlign=middle;whiteSpace=wrap;rounded=0;dashed=1;" parent="1" vertex="1">
          <mxGeometry x="130" y="130" width="120" height="30" as="geometry" />
        </mxCell>
        <mxCell id="r8Rq_5u-eOLPjXOMDpWV-1" value="pc2&lt;br&gt;192.168.1.102/24" style="text;html=1;strokeColor=none;fillColor=none;align=center;verticalAlign=middle;whiteSpace=wrap;rounded=0;dashed=1;" parent="1" vertex="1">
          <mxGeometry x="500" y="130" width="120" height="30" as="geometry" />
        </mxCell>
        <mxCell id="JGhqpq34ADFrRqnn8DZY-1" value="&lt;h1&gt;实验步骤&lt;/h1&gt;&lt;p&gt;&lt;/p&gt;&lt;ol&gt;&lt;li&gt;ip netns add pc1&lt;/li&gt;&lt;li&gt;ip netns add pc2&lt;br&gt;&lt;br&gt;&lt;/li&gt;&lt;li&gt;ip link add pc1_eth0 type veth peer name pc2_eth0&lt;br&gt;&lt;br&gt;&lt;/li&gt;&lt;li&gt;ip link set pc1_eth0 netns pc1&lt;/li&gt;&lt;li&gt;ip link set pc2_eth0 netns pc2&lt;br&gt;&lt;br&gt;&lt;/li&gt;&lt;li&gt;ip -n pc1 addr add 192.168.1.101/24 dev pc1_eth0&lt;/li&gt;&lt;li&gt;ip -n pc2 addr add 192.168.1.102/24 dev pc2_eth0&lt;br&gt;&lt;br&gt;&lt;/li&gt;&lt;li&gt;ip -n pc1 link set pc1_eth0 up&lt;/li&gt;&lt;li&gt;ip -n pc2 link set pc2_eth0 up&amp;nbsp;&lt;/li&gt;&lt;/ol&gt;&lt;p&gt;&lt;/p&gt;" style="text;html=1;strokeColor=none;fillColor=none;spacing=5;spacingTop=-20;whiteSpace=wrap;overflow=hidden;rounded=0;fontFamily=Comic Sans MS;fontSize=14;" parent="1" vertex="1">
          <mxGeometry x="110" y="450" width="470" height="300" as="geometry" />
        </mxCell>
        <mxCell id="91rycFrtXXWKperC8D1l-12" value="" style="group" vertex="1" connectable="0" parent="1">
          <mxGeometry x="110" y="220" width="570" height="190" as="geometry" />
        </mxCell>
        <mxCell id="91rycFrtXXWKperC8D1l-10" value="" style="rounded=0;whiteSpace=wrap;html=1;fontFamily=Comic Sans MS;fontSize=14;fillColor=none;dashed=1;" vertex="1" parent="91rycFrtXXWKperC8D1l-12">
          <mxGeometry width="570" height="190" as="geometry" />
        </mxCell>
        <mxCell id="91rycFrtXXWKperC8D1l-1" value="" style="rounded=0;whiteSpace=wrap;html=1;fontFamily=Comic Sans MS;fontSize=14;" vertex="1" parent="91rycFrtXXWKperC8D1l-12">
          <mxGeometry x="50" y="40" width="150" height="110" as="geometry" />
        </mxCell>
        <mxCell id="91rycFrtXXWKperC8D1l-2" value="" style="rounded=0;whiteSpace=wrap;html=1;fontFamily=Comic Sans MS;fontSize=14;" vertex="1" parent="91rycFrtXXWKperC8D1l-12">
          <mxGeometry x="170" y="72.5" width="30" height="45" as="geometry" />
        </mxCell>
        <mxCell id="91rycFrtXXWKperC8D1l-3" value="pc1_eth0" style="text;html=1;strokeColor=none;fillColor=none;align=center;verticalAlign=middle;whiteSpace=wrap;rounded=0;dashed=1;" vertex="1" parent="91rycFrtXXWKperC8D1l-12">
          <mxGeometry x="100" y="80" width="70" height="30" as="geometry" />
        </mxCell>
        <mxCell id="91rycFrtXXWKperC8D1l-4" value="pc1(ns)" style="text;html=1;strokeColor=none;fillColor=none;align=center;verticalAlign=middle;whiteSpace=wrap;rounded=0;dashed=1;" vertex="1" parent="91rycFrtXXWKperC8D1l-12">
          <mxGeometry x="50" y="40" width="70" height="30" as="geometry" />
        </mxCell>
        <mxCell id="91rycFrtXXWKperC8D1l-5" value="" style="rounded=0;whiteSpace=wrap;html=1;fontFamily=Comic Sans MS;fontSize=14;" vertex="1" parent="91rycFrtXXWKperC8D1l-12">
          <mxGeometry x="370" y="40" width="150" height="110" as="geometry" />
        </mxCell>
        <mxCell id="91rycFrtXXWKperC8D1l-6" value="" style="rounded=0;whiteSpace=wrap;html=1;fontFamily=Comic Sans MS;fontSize=14;" vertex="1" parent="91rycFrtXXWKperC8D1l-12">
          <mxGeometry x="370" y="72.5" width="30" height="45" as="geometry" />
        </mxCell>
        <mxCell id="91rycFrtXXWKperC8D1l-7" value="pc2_eth0" style="text;html=1;strokeColor=none;fillColor=none;align=center;verticalAlign=middle;whiteSpace=wrap;rounded=0;dashed=1;" vertex="1" parent="91rycFrtXXWKperC8D1l-12">
          <mxGeometry x="400" y="80" width="70" height="30" as="geometry" />
        </mxCell>
        <mxCell id="91rycFrtXXWKperC8D1l-8" value="pc2(ns)" style="text;html=1;strokeColor=none;fillColor=none;align=center;verticalAlign=middle;whiteSpace=wrap;rounded=0;dashed=1;" vertex="1" parent="91rycFrtXXWKperC8D1l-12">
          <mxGeometry x="370" y="40" width="70" height="30" as="geometry" />
        </mxCell>
        <mxCell id="91rycFrtXXWKperC8D1l-9" value="" style="endArrow=none;html=1;rounded=0;fontFamily=Comic Sans MS;fontSize=14;exitX=1;exitY=0.5;exitDx=0;exitDy=0;entryX=0;entryY=0.5;entryDx=0;entryDy=0;" edge="1" parent="91rycFrtXXWKperC8D1l-12" source="91rycFrtXXWKperC8D1l-2" target="91rycFrtXXWKperC8D1l-6">
          <mxGeometry width="50" height="50" relative="1" as="geometry">
            <mxPoint x="280" y="-20" as="sourcePoint" />
            <mxPoint x="330" y="-70" as="targetPoint" />
          </mxGeometry>
        </mxCell>
        <mxCell id="91rycFrtXXWKperC8D1l-11" value="host" style="text;html=1;strokeColor=none;fillColor=none;align=center;verticalAlign=middle;whiteSpace=wrap;rounded=0;dashed=1;" vertex="1" parent="91rycFrtXXWKperC8D1l-12">
          <mxGeometry width="70" height="30" as="geometry" />
        </mxCell>
      </root>
    </mxGraphModel>
  </diagram>
  <diagram id="7nMT3gjXXLD6ZvvXCvkU" name="switch">
    <mxGraphModel dx="1422" dy="724" grid="1" gridSize="10" guides="1" tooltips="1" connect="1" arrows="1" fold="1" page="1" pageScale="1" pageWidth="827" pageHeight="1169" math="0" shadow="0">
      <root>
        <mxCell id="gQlFoIClU0h7-StgMI-S-0" />
        <mxCell id="gQlFoIClU0h7-StgMI-S-1" parent="gQlFoIClU0h7-StgMI-S-0" />
        <mxCell id="pQRAVGxHAwFbsBEq-hZC-0" value="" style="fontColor=#0066CC;verticalAlign=top;verticalLabelPosition=bottom;labelPosition=center;align=center;html=1;outlineConnect=0;fillColor=#CCCCCC;strokeColor=#6881B3;gradientColor=none;gradientDirection=north;strokeWidth=2;shape=mxgraph.networks.pc;" parent="gQlFoIClU0h7-StgMI-S-1" vertex="1">
          <mxGeometry x="120" y="200" width="100" height="70" as="geometry" />
        </mxCell>
        <mxCell id="pQRAVGxHAwFbsBEq-hZC-1" value="" style="fontColor=#0066CC;verticalAlign=top;verticalLabelPosition=bottom;labelPosition=center;align=center;html=1;outlineConnect=0;fillColor=#CCCCCC;strokeColor=#6881B3;gradientColor=none;gradientDirection=north;strokeWidth=2;shape=mxgraph.networks.pc;" parent="gQlFoIClU0h7-StgMI-S-1" vertex="1">
          <mxGeometry x="400" y="200" width="100" height="70" as="geometry" />
        </mxCell>
        <mxCell id="jScJpU99xdpm0L-ec7Pi-2" style="rounded=0;orthogonalLoop=1;jettySize=auto;html=1;entryX=0.5;entryY=0.07;entryDx=0;entryDy=0;entryPerimeter=0;elbow=vertical;edgeStyle=orthogonalEdgeStyle;curved=1;endArrow=none;endFill=0;exitX=0.1;exitY=1;exitDx=0;exitDy=0;exitPerimeter=0;" parent="gQlFoIClU0h7-StgMI-S-1" source="jScJpU99xdpm0L-ec7Pi-1" target="pQRAVGxHAwFbsBEq-hZC-0" edge="1">
          <mxGeometry relative="1" as="geometry" />
        </mxCell>
        <mxCell id="jScJpU99xdpm0L-ec7Pi-3" style="edgeStyle=orthogonalEdgeStyle;rounded=0;orthogonalLoop=1;jettySize=auto;elbow=vertical;html=1;exitX=0.9;exitY=1;exitDx=0;exitDy=0;exitPerimeter=0;endArrow=none;endFill=0;curved=1;" parent="gQlFoIClU0h7-StgMI-S-1" source="jScJpU99xdpm0L-ec7Pi-1" target="pQRAVGxHAwFbsBEq-hZC-1" edge="1">
          <mxGeometry relative="1" as="geometry" />
        </mxCell>
        <mxCell id="jScJpU99xdpm0L-ec7Pi-1" value="" style="fontColor=#0066CC;verticalAlign=top;verticalLabelPosition=bottom;labelPosition=center;align=center;html=1;outlineConnect=0;fillColor=#CCCCCC;strokeColor=#6881B3;gradientColor=none;gradientDirection=north;strokeWidth=2;shape=mxgraph.networks.switch;" parent="gQlFoIClU0h7-StgMI-S-1" vertex="1">
          <mxGeometry x="250" y="50" width="100" height="30" as="geometry" />
        </mxCell>
        <mxCell id="fd4l-KYyiK1CYbmBTFIF-0" value="s1&lt;br&gt;192.168.1.0/24" style="text;html=1;strokeColor=none;fillColor=none;align=center;verticalAlign=middle;whiteSpace=wrap;rounded=0;dashed=1;" parent="gQlFoIClU0h7-StgMI-S-1" vertex="1">
          <mxGeometry x="240" y="10" width="120" height="30" as="geometry" />
        </mxCell>
        <mxCell id="fd4l-KYyiK1CYbmBTFIF-2" value="pc1&lt;br&gt;192.168.1.101/24" style="text;html=1;strokeColor=none;fillColor=none;align=center;verticalAlign=middle;whiteSpace=wrap;rounded=0;dashed=1;" parent="gQlFoIClU0h7-StgMI-S-1" vertex="1">
          <mxGeometry x="110" y="280" width="120" height="30" as="geometry" />
        </mxCell>
        <mxCell id="fd4l-KYyiK1CYbmBTFIF-3" value="pc2&lt;br&gt;192.168.1.102/24" style="text;html=1;strokeColor=none;fillColor=none;align=center;verticalAlign=middle;whiteSpace=wrap;rounded=0;dashed=1;" parent="gQlFoIClU0h7-StgMI-S-1" vertex="1">
          <mxGeometry x="390" y="280" width="120" height="30" as="geometry" />
        </mxCell>
        <mxCell id="9csadZJ1AK-7D8XbmIrz-0" value="&lt;h1&gt;实验步骤&lt;/h1&gt;&lt;p&gt;&lt;/p&gt;&lt;ol&gt;&lt;li&gt;ip netns add pc1&lt;/li&gt;&lt;li&gt;ip netns add pc2&lt;/li&gt;&lt;li&gt;brctl addbr s1&lt;br&gt;&lt;br&gt;&lt;/li&gt;&lt;li&gt;ip link add pc1_eth0 type veth peer name s1_eth1&lt;/li&gt;&lt;li&gt;ip link add pc2_eth0 type veth peer name s1_eth2&lt;br&gt;&lt;br&gt;&lt;/li&gt;&lt;li&gt;ip link set pc1_eth0 netns pc1&lt;/li&gt;&lt;li&gt;ip link set pc2_eth0 netns pc2&lt;/li&gt;&lt;li&gt;brctl addif s1 s1_eth1&lt;/li&gt;&lt;li&gt;brctl addif s1 s1_eth2&lt;br&gt;&lt;br&gt;&lt;/li&gt;&lt;li&gt;ip -n pc1 addr add 192.168.1.101/24 dev pc1_eth0&lt;/li&gt;&lt;li&gt;ip -n pc2 addr add 192.168.1.102/24 dev pc2_eth0&lt;br&gt;&lt;br&gt;&lt;/li&gt;&lt;li&gt;ip -n pc1 link set pc1_eth0 up&lt;/li&gt;&lt;li&gt;ip -n pc2 link set pc2_eth0 up&lt;/li&gt;&lt;li&gt;ip link set s1_eth1 up&lt;/li&gt;&lt;li&gt;ip link set s1_eth2 up&lt;/li&gt;&lt;li&gt;ip link set s1 up&lt;/li&gt;&lt;/ol&gt;&lt;p&gt;&lt;/p&gt;" style="text;html=1;strokeColor=none;fillColor=none;spacing=5;spacingTop=-20;whiteSpace=wrap;overflow=hidden;rounded=0;fontFamily=Comic Sans MS;fontSize=14;" parent="gQlFoIClU0h7-StgMI-S-1" vertex="1">
          <mxGeometry x="110" y="670" width="470" height="420" as="geometry" />
        </mxCell>
        <mxCell id="ODPG4ZnVb_T3CGZsdWkI-1" value="" style="rounded=0;whiteSpace=wrap;html=1;fontFamily=Comic Sans MS;fontSize=14;fillColor=none;dashed=1;" vertex="1" parent="gQlFoIClU0h7-StgMI-S-1">
          <mxGeometry x="99" y="330" width="570" height="320" as="geometry" />
        </mxCell>
        <mxCell id="ODPG4ZnVb_T3CGZsdWkI-2" value="" style="rounded=0;whiteSpace=wrap;html=1;fontFamily=Comic Sans MS;fontSize=14;" vertex="1" parent="gQlFoIClU0h7-StgMI-S-1">
          <mxGeometry x="150" y="510" width="150" height="110" as="geometry" />
        </mxCell>
        <mxCell id="ODPG4ZnVb_T3CGZsdWkI-3" value="" style="rounded=0;whiteSpace=wrap;html=1;fontFamily=Comic Sans MS;fontSize=14;" vertex="1" parent="gQlFoIClU0h7-StgMI-S-1">
          <mxGeometry x="270" y="542.5" width="30" height="45" as="geometry" />
        </mxCell>
        <mxCell id="ODPG4ZnVb_T3CGZsdWkI-4" value="pc1_eth0" style="text;html=1;strokeColor=none;fillColor=none;align=center;verticalAlign=middle;whiteSpace=wrap;rounded=0;dashed=1;" vertex="1" parent="gQlFoIClU0h7-StgMI-S-1">
          <mxGeometry x="200" y="550" width="70" height="30" as="geometry" />
        </mxCell>
        <mxCell id="ODPG4ZnVb_T3CGZsdWkI-5" value="pc1(ns)" style="text;html=1;strokeColor=none;fillColor=none;align=center;verticalAlign=middle;whiteSpace=wrap;rounded=0;dashed=1;" vertex="1" parent="gQlFoIClU0h7-StgMI-S-1">
          <mxGeometry x="150" y="510" width="70" height="30" as="geometry" />
        </mxCell>
        <mxCell id="ODPG4ZnVb_T3CGZsdWkI-6" value="" style="rounded=0;whiteSpace=wrap;html=1;fontFamily=Comic Sans MS;fontSize=14;" vertex="1" parent="gQlFoIClU0h7-StgMI-S-1">
          <mxGeometry x="470" y="510" width="150" height="110" as="geometry" />
        </mxCell>
        <mxCell id="ODPG4ZnVb_T3CGZsdWkI-7" value="" style="rounded=0;whiteSpace=wrap;html=1;fontFamily=Comic Sans MS;fontSize=14;" vertex="1" parent="gQlFoIClU0h7-StgMI-S-1">
          <mxGeometry x="470" y="542.5" width="30" height="45" as="geometry" />
        </mxCell>
        <mxCell id="ODPG4ZnVb_T3CGZsdWkI-8" value="pc2_eth0" style="text;html=1;strokeColor=none;fillColor=none;align=center;verticalAlign=middle;whiteSpace=wrap;rounded=0;dashed=1;" vertex="1" parent="gQlFoIClU0h7-StgMI-S-1">
          <mxGeometry x="500" y="550" width="70" height="30" as="geometry" />
        </mxCell>
        <mxCell id="ODPG4ZnVb_T3CGZsdWkI-9" value="pc2(ns)" style="text;html=1;strokeColor=none;fillColor=none;align=center;verticalAlign=middle;whiteSpace=wrap;rounded=0;dashed=1;" vertex="1" parent="gQlFoIClU0h7-StgMI-S-1">
          <mxGeometry x="470" y="510" width="70" height="30" as="geometry" />
        </mxCell>
        <mxCell id="ODPG4ZnVb_T3CGZsdWkI-10" value="" style="endArrow=none;html=1;rounded=0;fontFamily=Comic Sans MS;fontSize=14;exitX=1;exitY=0.5;exitDx=0;exitDy=0;entryX=0.5;entryY=1;entryDx=0;entryDy=0;edgeStyle=orthogonalEdgeStyle;" edge="1" parent="gQlFoIClU0h7-StgMI-S-1" source="ODPG4ZnVb_T3CGZsdWkI-3" target="ODPG4ZnVb_T3CGZsdWkI-15">
          <mxGeometry x="100" y="470" width="50" height="50" as="geometry">
            <mxPoint x="380" y="450" as="sourcePoint" />
            <mxPoint x="470" y="565" as="targetPoint" />
          </mxGeometry>
        </mxCell>
        <mxCell id="ODPG4ZnVb_T3CGZsdWkI-11" value="host" style="text;html=1;strokeColor=none;fillColor=none;align=center;verticalAlign=middle;whiteSpace=wrap;rounded=0;dashed=1;" vertex="1" parent="gQlFoIClU0h7-StgMI-S-1">
          <mxGeometry x="90" y="330" width="70" height="30" as="geometry" />
        </mxCell>
        <mxCell id="ODPG4ZnVb_T3CGZsdWkI-12" value="" style="rounded=0;whiteSpace=wrap;html=1;fontFamily=Comic Sans MS;fontSize=14;" vertex="1" parent="gQlFoIClU0h7-StgMI-S-1">
          <mxGeometry x="270" y="350" width="220" height="110" as="geometry" />
        </mxCell>
        <mxCell id="ODPG4ZnVb_T3CGZsdWkI-13" value="root(ns)" style="text;html=1;strokeColor=none;fillColor=none;align=center;verticalAlign=middle;whiteSpace=wrap;rounded=0;dashed=1;" vertex="1" parent="gQlFoIClU0h7-StgMI-S-1">
          <mxGeometry x="270" y="350" width="70" height="30" as="geometry" />
        </mxCell>
        <mxCell id="ODPG4ZnVb_T3CGZsdWkI-15" value="" style="rounded=0;whiteSpace=wrap;html=1;fontFamily=Comic Sans MS;fontSize=14;fillColor=none;" vertex="1" parent="gQlFoIClU0h7-StgMI-S-1">
          <mxGeometry x="322" y="430" width="46" height="30" as="geometry" />
        </mxCell>
        <mxCell id="ODPG4ZnVb_T3CGZsdWkI-16" value="" style="rounded=0;whiteSpace=wrap;html=1;fontFamily=Comic Sans MS;fontSize=14;fillColor=none;" vertex="1" parent="gQlFoIClU0h7-StgMI-S-1">
          <mxGeometry x="400" y="430" width="46" height="30" as="geometry" />
        </mxCell>
        <mxCell id="ODPG4ZnVb_T3CGZsdWkI-17" value="" style="endArrow=none;html=1;rounded=0;fontFamily=Comic Sans MS;fontSize=14;exitX=0;exitY=0.5;exitDx=0;exitDy=0;entryX=0.5;entryY=1;entryDx=0;entryDy=0;edgeStyle=orthogonalEdgeStyle;" edge="1" parent="gQlFoIClU0h7-StgMI-S-1" source="ODPG4ZnVb_T3CGZsdWkI-7" target="ODPG4ZnVb_T3CGZsdWkI-16">
          <mxGeometry x="110" y="480" width="50" height="50" as="geometry">
            <mxPoint x="310" y="575" as="sourcePoint" />
            <mxPoint x="347" y="470" as="targetPoint" />
          </mxGeometry>
        </mxCell>
        <mxCell id="ODPG4ZnVb_T3CGZsdWkI-18" value="s1_eth1" style="text;html=1;strokeColor=none;fillColor=none;align=center;verticalAlign=middle;whiteSpace=wrap;rounded=0;dashed=1;" vertex="1" parent="gQlFoIClU0h7-StgMI-S-1">
          <mxGeometry x="302" y="400" width="70" height="30" as="geometry" />
        </mxCell>
        <mxCell id="ODPG4ZnVb_T3CGZsdWkI-19" value="s1_eth2" style="text;html=1;strokeColor=none;fillColor=none;align=center;verticalAlign=middle;whiteSpace=wrap;rounded=0;dashed=1;" vertex="1" parent="gQlFoIClU0h7-StgMI-S-1">
          <mxGeometry x="372" y="400" width="70" height="30" as="geometry" />
        </mxCell>
        <mxCell id="TeVp2oPrn0_kDmZMWHug-1" value="" style="rounded=0;whiteSpace=wrap;html=1;fontFamily=Comic Sans MS;fontSize=14;" vertex="1" parent="gQlFoIClU0h7-StgMI-S-1">
          <mxGeometry x="460" y="382.5" width="30" height="45" as="geometry" />
        </mxCell>
        <mxCell id="TeVp2oPrn0_kDmZMWHug-2" value="ensp33" style="text;html=1;strokeColor=none;fillColor=none;align=center;verticalAlign=middle;whiteSpace=wrap;rounded=0;dashed=1;" vertex="1" parent="gQlFoIClU0h7-StgMI-S-1">
          <mxGeometry x="400" y="360" width="70" height="30" as="geometry" />
        </mxCell>
      </root>
    </mxGraphModel>
  </diagram>
  <diagram id="8n-iYeMkgh2QAIJsUD1Y" name="router">
    <mxGraphModel dx="1422" dy="724" grid="1" gridSize="10" guides="1" tooltips="1" connect="1" arrows="1" fold="1" page="1" pageScale="1" pageWidth="827" pageHeight="1169" math="0" shadow="0">
      <root>
        <mxCell id="p163eGLFHdbgokhi3lIf-0" />
        <mxCell id="p163eGLFHdbgokhi3lIf-1" parent="p163eGLFHdbgokhi3lIf-0" />
        <mxCell id="VGNsmgp0KJvAa12P62pT-0" value="" style="fontColor=#0066CC;verticalAlign=top;verticalLabelPosition=bottom;labelPosition=center;align=center;html=1;outlineConnect=0;fillColor=#CCCCCC;strokeColor=#6881B3;gradientColor=none;gradientDirection=north;strokeWidth=2;shape=mxgraph.networks.pc;" parent="p163eGLFHdbgokhi3lIf-1" vertex="1">
          <mxGeometry x="80" y="170" width="100" height="70" as="geometry" />
        </mxCell>
        <mxCell id="VGNsmgp0KJvAa12P62pT-1" value="" style="fontColor=#0066CC;verticalAlign=top;verticalLabelPosition=bottom;labelPosition=center;align=center;html=1;outlineConnect=0;fillColor=#CCCCCC;strokeColor=#6881B3;gradientColor=none;gradientDirection=north;strokeWidth=2;shape=mxgraph.networks.pc;" parent="p163eGLFHdbgokhi3lIf-1" vertex="1">
          <mxGeometry x="360" y="170" width="100" height="70" as="geometry" />
        </mxCell>
        <mxCell id="VGNsmgp0KJvAa12P62pT-2" style="rounded=0;orthogonalLoop=1;jettySize=auto;html=1;entryX=0.5;entryY=0.07;entryDx=0;entryDy=0;entryPerimeter=0;elbow=vertical;edgeStyle=orthogonalEdgeStyle;curved=1;endArrow=none;endFill=0;exitX=0;exitY=0.5;exitDx=0;exitDy=0;exitPerimeter=0;" parent="p163eGLFHdbgokhi3lIf-1" source="zauoYNSg2dNwkGdTt5m1-0" target="VGNsmgp0KJvAa12P62pT-0" edge="1">
          <mxGeometry relative="1" as="geometry">
            <mxPoint x="220" y="50" as="sourcePoint" />
          </mxGeometry>
        </mxCell>
        <mxCell id="VGNsmgp0KJvAa12P62pT-3" style="edgeStyle=orthogonalEdgeStyle;rounded=0;orthogonalLoop=1;jettySize=auto;elbow=vertical;html=1;exitX=1;exitY=0.5;exitDx=0;exitDy=0;exitPerimeter=0;endArrow=none;endFill=0;curved=1;" parent="p163eGLFHdbgokhi3lIf-1" source="zauoYNSg2dNwkGdTt5m1-0" target="VGNsmgp0KJvAa12P62pT-1" edge="1">
          <mxGeometry relative="1" as="geometry">
            <mxPoint x="300" y="50" as="sourcePoint" />
          </mxGeometry>
        </mxCell>
        <mxCell id="VGNsmgp0KJvAa12P62pT-5" value="&lt;div&gt;r1_eth1&lt;br&gt;&lt;/div&gt;&lt;div&gt;192.168.1.1/24&lt;/div&gt;" style="text;html=1;strokeColor=none;fillColor=none;align=center;verticalAlign=middle;whiteSpace=wrap;rounded=0;dashed=1;" parent="p163eGLFHdbgokhi3lIf-1" vertex="1">
          <mxGeometry x="90" y="20" width="120" height="30" as="geometry" />
        </mxCell>
        <mxCell id="VGNsmgp0KJvAa12P62pT-6" value="pc1&lt;br&gt;192.168.1.101/24" style="text;html=1;strokeColor=none;fillColor=none;align=center;verticalAlign=middle;whiteSpace=wrap;rounded=0;dashed=1;" parent="p163eGLFHdbgokhi3lIf-1" vertex="1">
          <mxGeometry x="70" y="250" width="120" height="30" as="geometry" />
        </mxCell>
        <mxCell id="VGNsmgp0KJvAa12P62pT-7" value="pc2&lt;br&gt;192.168.10.102/24" style="text;html=1;strokeColor=none;fillColor=none;align=center;verticalAlign=middle;whiteSpace=wrap;rounded=0;dashed=1;" parent="p163eGLFHdbgokhi3lIf-1" vertex="1">
          <mxGeometry x="350" y="250" width="120" height="30" as="geometry" />
        </mxCell>
        <mxCell id="zauoYNSg2dNwkGdTt5m1-0" value="" style="fontColor=#0066CC;verticalAlign=top;verticalLabelPosition=bottom;labelPosition=center;align=center;html=1;outlineConnect=0;fillColor=#CCCCCC;strokeColor=#6881B3;gradientColor=none;gradientDirection=north;strokeWidth=2;shape=mxgraph.networks.router;" parent="p163eGLFHdbgokhi3lIf-1" vertex="1">
          <mxGeometry x="210" y="40" width="100" height="30" as="geometry" />
        </mxCell>
        <mxCell id="zauoYNSg2dNwkGdTt5m1-1" value="&lt;div&gt;r1_eth2&lt;br&gt;&lt;/div&gt;&lt;div&gt;192.168.10.1/24&lt;/div&gt;" style="text;html=1;strokeColor=none;fillColor=none;align=center;verticalAlign=middle;whiteSpace=wrap;rounded=0;dashed=1;" parent="p163eGLFHdbgokhi3lIf-1" vertex="1">
          <mxGeometry x="310" y="20" width="120" height="30" as="geometry" />
        </mxCell>
        <mxCell id="zauoYNSg2dNwkGdTt5m1-2" value="r1" style="text;html=1;strokeColor=none;fillColor=none;align=center;verticalAlign=middle;whiteSpace=wrap;rounded=0;dashed=1;" parent="p163eGLFHdbgokhi3lIf-1" vertex="1">
          <mxGeometry x="200" y="70" width="120" height="30" as="geometry" />
        </mxCell>
        <mxCell id="3hrIsQPDj8h-WLL4IEvb-0" value="&lt;h1&gt;实验步骤&lt;/h1&gt;&lt;p&gt;&lt;/p&gt;&lt;ol&gt;&lt;li&gt;ip netns add pc1&lt;/li&gt;&lt;li&gt;ip netns add pc2&lt;/li&gt;&lt;li&gt;ip netns add r1&lt;br&gt;&lt;br&gt;&lt;/li&gt;&lt;li&gt;ip link add pc1_eth0 type veth peer name r1_eth1&lt;br&gt;&lt;/li&gt;&lt;li&gt;ip link add pc2_eth0 type veth peer name r1_eth2&lt;br&gt;&lt;br&gt;&lt;/li&gt;&lt;li&gt;ip link set pc1_eth0 netns pc1&lt;/li&gt;&lt;li&gt;ip link set pc2_eth0 netns pc2&lt;/li&gt;&lt;li&gt;ip link set r1_eth1 netns r1&lt;/li&gt;&lt;li&gt;ip link set r1_eth2 netns r1&lt;br&gt;&lt;br&gt;&lt;/li&gt;&lt;li&gt;ip -n pc1 addr add 192.168.1.101/24 dev pc1_eth0&lt;br&gt;&lt;/li&gt;&lt;li&gt;ip -n pc2 addr add 192.168.10.102/24 dev pc2_eth0&lt;br&gt;&lt;/li&gt;&lt;li&gt;ip -n router addr add 192.168.1.1/24 dev r1_eth1&lt;br&gt;&lt;/li&gt;&lt;li&gt;ip -n router addr add 192.168.10.1/24 dev r1_eth2&lt;br&gt;&lt;br&gt;&lt;/li&gt;&lt;li&gt;ip -n pc1 link set pc1_eth0 up&lt;/li&gt;&lt;li&gt;ip -n pc2 link set pc2_eth0 up&lt;/li&gt;&lt;li&gt;ip -n router link set r1_eth1 up&lt;/li&gt;&lt;li&gt;ip -n router link set r2_eth2 up&lt;br&gt;&lt;br&gt;&lt;/li&gt;&lt;li&gt;ip netns exec r1 sysctl net.ipv4.ip_forward=1&lt;br&gt;&lt;br&gt;&lt;/li&gt;&lt;li&gt;ip -n pc1 route add 192.168.10.0/24 via 192.168.1.1 dev pc1_eth0&lt;br&gt;&lt;/li&gt;&lt;li&gt;ip -n pc2 route add 192.168.1.0/24 via 192.168.10.1 dev pc2_eth0&lt;br&gt;&lt;/li&gt;&lt;/ol&gt;&lt;p&gt;&lt;/p&gt;" style="text;html=1;strokeColor=none;fillColor=none;spacing=5;spacingTop=-20;whiteSpace=wrap;overflow=hidden;rounded=0;fontFamily=Comic Sans MS;fontSize=14;" parent="p163eGLFHdbgokhi3lIf-1" vertex="1">
          <mxGeometry x="80" y="300" width="590" height="520" as="geometry" />
        </mxCell>
      </root>
    </mxGraphModel>
  </diagram>
  <diagram id="rMFYMlwNjlBZAyFVQZGT" name="router2">
    <mxGraphModel dx="1422" dy="724" grid="1" gridSize="10" guides="1" tooltips="1" connect="1" arrows="1" fold="1" page="1" pageScale="1" pageWidth="827" pageHeight="1169" math="0" shadow="0">
      <root>
        <mxCell id="i0IFHbvj60jat0CUm1yt-0" />
        <mxCell id="i0IFHbvj60jat0CUm1yt-1" parent="i0IFHbvj60jat0CUm1yt-0" />
        <mxCell id="3VYlqUyPPKzDkLXdfBH--0" value="" style="fontColor=#0066CC;verticalAlign=top;verticalLabelPosition=bottom;labelPosition=center;align=center;html=1;outlineConnect=0;fillColor=#CCCCCC;strokeColor=#6881B3;gradientColor=none;gradientDirection=north;strokeWidth=2;shape=mxgraph.networks.pc;" parent="i0IFHbvj60jat0CUm1yt-1" vertex="1">
          <mxGeometry x="40" y="300" width="100" height="70" as="geometry" />
        </mxCell>
        <mxCell id="3VYlqUyPPKzDkLXdfBH--1" value="" style="fontColor=#0066CC;verticalAlign=top;verticalLabelPosition=bottom;labelPosition=center;align=center;html=1;outlineConnect=0;fillColor=#CCCCCC;strokeColor=#6881B3;gradientColor=none;gradientDirection=north;strokeWidth=2;shape=mxgraph.networks.pc;" parent="i0IFHbvj60jat0CUm1yt-1" vertex="1">
          <mxGeometry x="700" y="300" width="100" height="70" as="geometry" />
        </mxCell>
        <mxCell id="3VYlqUyPPKzDkLXdfBH--2" style="rounded=0;orthogonalLoop=1;jettySize=auto;html=1;entryX=0.5;entryY=0.07;entryDx=0;entryDy=0;entryPerimeter=0;elbow=vertical;edgeStyle=orthogonalEdgeStyle;curved=1;endArrow=none;endFill=0;exitX=0;exitY=0.5;exitDx=0;exitDy=0;exitPerimeter=0;" parent="i0IFHbvj60jat0CUm1yt-1" source="3VYlqUyPPKzDkLXdfBH--7" target="3VYlqUyPPKzDkLXdfBH--0" edge="1">
          <mxGeometry relative="1" as="geometry">
            <mxPoint x="180" y="180" as="sourcePoint" />
          </mxGeometry>
        </mxCell>
        <mxCell id="3VYlqUyPPKzDkLXdfBH--3" style="edgeStyle=orthogonalEdgeStyle;rounded=0;orthogonalLoop=1;jettySize=auto;elbow=vertical;html=1;endArrow=none;endFill=0;curved=1;" parent="i0IFHbvj60jat0CUm1yt-1" source="3VYlqUyPPKzDkLXdfBH--11" target="3VYlqUyPPKzDkLXdfBH--1" edge="1">
          <mxGeometry relative="1" as="geometry">
            <mxPoint x="450" y="210" as="sourcePoint" />
          </mxGeometry>
        </mxCell>
        <mxCell id="3VYlqUyPPKzDkLXdfBH--4" value="&lt;div&gt;r1_eth1&lt;br&gt;&lt;/div&gt;&lt;div&gt;192.168.1.1/24&lt;/div&gt;" style="text;html=1;strokeColor=none;fillColor=none;align=center;verticalAlign=middle;whiteSpace=wrap;rounded=0;dashed=1;" parent="i0IFHbvj60jat0CUm1yt-1" vertex="1">
          <mxGeometry x="50" y="160" width="120" height="30" as="geometry" />
        </mxCell>
        <mxCell id="3VYlqUyPPKzDkLXdfBH--5" value="pc1&lt;br&gt;192.168.1.101/24" style="text;html=1;strokeColor=none;fillColor=none;align=center;verticalAlign=middle;whiteSpace=wrap;rounded=0;dashed=1;" parent="i0IFHbvj60jat0CUm1yt-1" vertex="1">
          <mxGeometry x="30" y="380" width="120" height="30" as="geometry" />
        </mxCell>
        <mxCell id="3VYlqUyPPKzDkLXdfBH--6" value="pc2&lt;br&gt;192.168.10.102/24" style="text;html=1;strokeColor=none;fillColor=none;align=center;verticalAlign=middle;whiteSpace=wrap;rounded=0;dashed=1;" parent="i0IFHbvj60jat0CUm1yt-1" vertex="1">
          <mxGeometry x="700" y="380" width="120" height="30" as="geometry" />
        </mxCell>
        <mxCell id="3VYlqUyPPKzDkLXdfBH--7" value="" style="fontColor=#0066CC;verticalAlign=top;verticalLabelPosition=bottom;labelPosition=center;align=center;html=1;outlineConnect=0;fillColor=#CCCCCC;strokeColor=#6881B3;gradientColor=none;gradientDirection=north;strokeWidth=2;shape=mxgraph.networks.router;" parent="i0IFHbvj60jat0CUm1yt-1" vertex="1">
          <mxGeometry x="170" y="170" width="100" height="30" as="geometry" />
        </mxCell>
        <mxCell id="3VYlqUyPPKzDkLXdfBH--8" value="&lt;div&gt;r3_eth2&lt;br&gt;&lt;/div&gt;&lt;div&gt;192.168.10.1/24&lt;/div&gt;" style="text;html=1;strokeColor=none;fillColor=none;align=center;verticalAlign=middle;whiteSpace=wrap;rounded=0;dashed=1;" parent="i0IFHbvj60jat0CUm1yt-1" vertex="1">
          <mxGeometry x="640" y="150" width="120" height="30" as="geometry" />
        </mxCell>
        <mxCell id="3VYlqUyPPKzDkLXdfBH--9" value="r1" style="text;html=1;strokeColor=none;fillColor=none;align=center;verticalAlign=middle;whiteSpace=wrap;rounded=0;dashed=1;" parent="i0IFHbvj60jat0CUm1yt-1" vertex="1">
          <mxGeometry x="160" y="200" width="120" height="30" as="geometry" />
        </mxCell>
        <mxCell id="3VYlqUyPPKzDkLXdfBH--10" value="" style="fontColor=#0066CC;verticalAlign=top;verticalLabelPosition=bottom;labelPosition=center;align=center;html=1;outlineConnect=0;fillColor=#CCCCCC;strokeColor=#6881B3;gradientColor=none;gradientDirection=north;strokeWidth=2;shape=mxgraph.networks.router;" parent="i0IFHbvj60jat0CUm1yt-1" vertex="1">
          <mxGeometry x="360" y="170" width="100" height="30" as="geometry" />
        </mxCell>
        <mxCell id="3VYlqUyPPKzDkLXdfBH--11" value="" style="fontColor=#0066CC;verticalAlign=top;verticalLabelPosition=bottom;labelPosition=center;align=center;html=1;outlineConnect=0;fillColor=#CCCCCC;strokeColor=#6881B3;gradientColor=none;gradientDirection=north;strokeWidth=2;shape=mxgraph.networks.router;" parent="i0IFHbvj60jat0CUm1yt-1" vertex="1">
          <mxGeometry x="540" y="170" width="100" height="30" as="geometry" />
        </mxCell>
        <mxCell id="-VoAbKnvVryU3JnPmAO1-0" value="" style="endArrow=none;html=1;rounded=0;exitX=1;exitY=0.5;exitDx=0;exitDy=0;exitPerimeter=0;entryX=0;entryY=0.5;entryDx=0;entryDy=0;entryPerimeter=0;" parent="i0IFHbvj60jat0CUm1yt-1" source="3VYlqUyPPKzDkLXdfBH--7" target="3VYlqUyPPKzDkLXdfBH--10" edge="1">
          <mxGeometry width="50" height="50" relative="1" as="geometry">
            <mxPoint x="390" y="290" as="sourcePoint" />
            <mxPoint x="440" y="240" as="targetPoint" />
          </mxGeometry>
        </mxCell>
        <mxCell id="-VoAbKnvVryU3JnPmAO1-2" value="" style="endArrow=none;html=1;rounded=0;exitX=1;exitY=0.5;exitDx=0;exitDy=0;exitPerimeter=0;entryX=0;entryY=0.5;entryDx=0;entryDy=0;entryPerimeter=0;" parent="i0IFHbvj60jat0CUm1yt-1" source="3VYlqUyPPKzDkLXdfBH--10" target="3VYlqUyPPKzDkLXdfBH--11" edge="1">
          <mxGeometry width="50" height="50" relative="1" as="geometry">
            <mxPoint x="280" y="195" as="sourcePoint" />
            <mxPoint x="374" y="195" as="targetPoint" />
          </mxGeometry>
        </mxCell>
        <mxCell id="-VoAbKnvVryU3JnPmAO1-3" value="r1_eth2&lt;br&gt;&lt;div&gt;10.0.0.2/24&lt;/div&gt;" style="text;html=1;strokeColor=none;fillColor=none;align=center;verticalAlign=middle;whiteSpace=wrap;rounded=0;dashed=1;" parent="i0IFHbvj60jat0CUm1yt-1" vertex="1">
          <mxGeometry x="220" y="210" width="120" height="30" as="geometry" />
        </mxCell>
        <mxCell id="-VoAbKnvVryU3JnPmAO1-4" value="r2_eth1&lt;br&gt;&lt;div&gt;10.0.0.1/24&lt;/div&gt;" style="text;html=1;strokeColor=none;fillColor=none;align=center;verticalAlign=middle;whiteSpace=wrap;rounded=0;dashed=1;" parent="i0IFHbvj60jat0CUm1yt-1" vertex="1">
          <mxGeometry x="280" y="130" width="120" height="30" as="geometry" />
        </mxCell>
        <mxCell id="-VoAbKnvVryU3JnPmAO1-5" value="r2" style="text;html=1;strokeColor=none;fillColor=none;align=center;verticalAlign=middle;whiteSpace=wrap;rounded=0;dashed=1;" parent="i0IFHbvj60jat0CUm1yt-1" vertex="1">
          <mxGeometry x="350" y="200" width="120" height="30" as="geometry" />
        </mxCell>
        <mxCell id="-VoAbKnvVryU3JnPmAO1-6" value="r3" style="text;html=1;strokeColor=none;fillColor=none;align=center;verticalAlign=middle;whiteSpace=wrap;rounded=0;dashed=1;" parent="i0IFHbvj60jat0CUm1yt-1" vertex="1">
          <mxGeometry x="530" y="200" width="120" height="30" as="geometry" />
        </mxCell>
        <mxCell id="-VoAbKnvVryU3JnPmAO1-7" value="r2_eth2&lt;br&gt;&lt;div&gt;10.0.10.1/24&lt;/div&gt;" style="text;html=1;strokeColor=none;fillColor=none;align=center;verticalAlign=middle;whiteSpace=wrap;rounded=0;dashed=1;" parent="i0IFHbvj60jat0CUm1yt-1" vertex="1">
          <mxGeometry x="410" y="130" width="120" height="30" as="geometry" />
        </mxCell>
        <mxCell id="-VoAbKnvVryU3JnPmAO1-8" value="r3_eth1&lt;br&gt;&lt;div&gt;10.0.10.2/24&lt;/div&gt;" style="text;html=1;strokeColor=none;fillColor=none;align=center;verticalAlign=middle;whiteSpace=wrap;rounded=0;dashed=1;" parent="i0IFHbvj60jat0CUm1yt-1" vertex="1">
          <mxGeometry x="460" y="210" width="120" height="30" as="geometry" />
        </mxCell>
        <mxCell id="udtG3PevH3w1RNmKD2RU-0" value="&lt;h1&gt;实验步骤&lt;/h1&gt;&lt;p&gt;&lt;/p&gt;&lt;ol&gt;&lt;li&gt;ip netns add pc1&lt;/li&gt;&lt;li&gt;ip netns add pc2&lt;/li&gt;&lt;li&gt;ip netns add r1&lt;/li&gt;&lt;li&gt;ip netns add r2&lt;/li&gt;&lt;li&gt;ip netns add r3&lt;br&gt;&lt;br&gt;&lt;/li&gt;&lt;li&gt;ip link add pc1_eth0 type veth peer name r1_eth1&lt;br&gt;&lt;/li&gt;&lt;li&gt;ip link add r1_eth2 type veth peer name r2_eth1&lt;/li&gt;&lt;li&gt;ip link add r2_eth2 type veth peer name r3_eth1&lt;/li&gt;&lt;li&gt;ip link add r3_eth2 type veth peer name pc2_eth0&lt;br&gt;&lt;br&gt;&lt;/li&gt;&lt;li&gt;ip link set pc1_eth0 netns pc1&lt;/li&gt;&lt;li&gt;ip link set r1_eth1 netns r1&lt;/li&gt;&lt;li&gt;ip link set r1_eth2 netns r1&lt;/li&gt;&lt;li&gt;ip link set r2_eth1 netns r2&lt;/li&gt;&lt;li&gt;ip link set r2_eth2 netns r2&lt;/li&gt;&lt;li&gt;ip link set r3_eth1 netns r3&lt;/li&gt;&lt;li&gt;ip link set r3_eth2 netns r3&lt;/li&gt;&lt;li&gt;ip link set pc2_eth0 netns pc2&lt;br&gt;&lt;br&gt;&lt;/li&gt;&lt;li&gt;ip -n pc1 addr add 192.168.1.101/24 dev pc1_eth0&lt;/li&gt;&lt;li&gt;ip -n r1 addr add 192.168.1.1/24 dev r1_eth1&lt;/li&gt;&lt;li&gt;ip -n r1 addr add 10.0.0.2/24 dev r1_eth2&lt;/li&gt;&lt;li&gt;ip -n r2 addr add 10.0.0.1/24 dev r2_eth1&lt;/li&gt;&lt;li&gt;ip -n r2 addr add 10.0.10.1/24 dev r2_eth2&lt;/li&gt;&lt;li&gt;ip -n r3 addr add 10.0.10.2/24 dev r3_eth1&lt;/li&gt;&lt;li&gt;ip -n r3 addr add 192.168.10.1/24 dev r3_eth2&lt;/li&gt;&lt;li&gt;ip -n pc2 addr add 192.168.10.102/24 dev pc2_eth0&lt;br&gt;&lt;br&gt;&lt;/li&gt;&lt;li&gt;ip -n pc1 link set pc1_eth0 up&lt;/li&gt;&lt;li&gt;ip -n r1 link set r1_eth1 up&lt;/li&gt;&lt;li&gt;ip -n r1 link set r1_eth2 up&lt;/li&gt;&lt;li&gt;ip -n r2 link set r2_eth1 up&lt;/li&gt;&lt;li&gt;ip -n r2 link set r2_eth2 up&lt;/li&gt;&lt;li&gt;ip -n r3 link set r3_eth1 up&lt;/li&gt;&lt;li&gt;ip -n r3 link set r3_eth2 up&lt;/li&gt;&lt;li&gt;ip -n pc2 link set pc2_eth0 up&lt;br&gt;&lt;br&gt;&lt;/li&gt;&lt;li&gt;ip netns exec r1 sysctl net.ipv4.ip_forward=1&lt;/li&gt;&lt;li&gt;ip netns exec r2 sysctl net.ipv4.ip_forward=1&lt;/li&gt;&lt;li&gt;ip netns exec r3 sysctl net.ipv4.ip_forward=1&lt;br&gt;&lt;br&gt;&lt;br&gt;&lt;br&gt;&lt;/li&gt;&lt;li&gt;ip -n pc1 route add 192.168.10.0/24 via 192.168.1.1 dev pc1_eth0&lt;/li&gt;&lt;li&gt;ip -n r1 route add 192.168.10.0/24 via 10.0.0.1 dev r1_eth2&lt;/li&gt;&lt;li&gt;ip -n r2 route add 192.168.10.0/24 via 10.0.10.2 dev r2_eth2&lt;/li&gt;&lt;li&gt;ip -n r2 route add 192.168.1.0/24 via 10.0.0.2 dev r2_eth1&lt;/li&gt;&lt;li&gt;ip -n r3 route add 192.168.1.0/24 via 10.0.10.1 dev r3_eth1&lt;br&gt;&lt;/li&gt;&lt;li&gt;ip -n pc2 route add 192.168.1.0/24 via 192.168.10.1 dev pc2_eth0&lt;br&gt;&lt;/li&gt;&lt;/ol&gt;&lt;p&gt;&lt;/p&gt;" style="text;html=1;strokeColor=none;fillColor=none;spacing=5;spacingTop=-20;whiteSpace=wrap;overflow=hidden;rounded=0;fontFamily=Comic Sans MS;fontSize=14;" parent="i0IFHbvj60jat0CUm1yt-1" vertex="1">
          <mxGeometry x="40" y="440" width="590" height="900" as="geometry" />
        </mxCell>
      </root>
    </mxGraphModel>
  </diagram>
  <diagram id="bOwKt8TJ0UCFp--F-tFM" name="router-lan">
    <mxGraphModel dx="1038" dy="515" grid="1" gridSize="10" guides="1" tooltips="1" connect="1" arrows="1" fold="1" page="1" pageScale="1" pageWidth="827" pageHeight="1169" math="0" shadow="0">
      <root>
        <mxCell id="txY806hHe2ZytlH0EjpX-0" />
        <mxCell id="txY806hHe2ZytlH0EjpX-1" parent="txY806hHe2ZytlH0EjpX-0" />
        <mxCell id="tfLXsFjKqoLI3VHInATK-0" value="" style="rounded=0;whiteSpace=wrap;html=1;fillColor=none;dashed=1;strokeColor=#808080;" parent="txY806hHe2ZytlH0EjpX-1" vertex="1">
          <mxGeometry x="47" y="20" width="589" height="350" as="geometry" />
        </mxCell>
        <mxCell id="tfLXsFjKqoLI3VHInATK-1" style="edgeStyle=orthogonalEdgeStyle;curved=1;rounded=0;orthogonalLoop=1;jettySize=auto;html=1;entryX=0.5;entryY=0;entryDx=0;entryDy=0;entryPerimeter=0;endArrow=none;endFill=0;elbow=vertical;" parent="txY806hHe2ZytlH0EjpX-1" source="tfLXsFjKqoLI3VHInATK-3" target="tfLXsFjKqoLI3VHInATK-6" edge="1">
          <mxGeometry relative="1" as="geometry" />
        </mxCell>
        <mxCell id="tfLXsFjKqoLI3VHInATK-2" style="edgeStyle=orthogonalEdgeStyle;curved=1;rounded=0;orthogonalLoop=1;jettySize=auto;html=1;entryX=0.5;entryY=0;entryDx=0;entryDy=0;entryPerimeter=0;endArrow=none;endFill=0;elbow=vertical;" parent="txY806hHe2ZytlH0EjpX-1" source="tfLXsFjKqoLI3VHInATK-3" target="tfLXsFjKqoLI3VHInATK-9" edge="1">
          <mxGeometry relative="1" as="geometry" />
        </mxCell>
        <mxCell id="tfLXsFjKqoLI3VHInATK-3" value="" style="fontColor=#0066CC;verticalAlign=top;verticalLabelPosition=bottom;labelPosition=center;align=center;html=1;outlineConnect=0;fillColor=#CCCCCC;strokeColor=#6881B3;gradientColor=none;gradientDirection=north;strokeWidth=2;shape=mxgraph.networks.router;" parent="txY806hHe2ZytlH0EjpX-1" vertex="1">
          <mxGeometry x="286" y="40" width="100" height="30" as="geometry" />
        </mxCell>
        <mxCell id="tfLXsFjKqoLI3VHInATK-4" style="edgeStyle=orthogonalEdgeStyle;curved=1;rounded=0;orthogonalLoop=1;jettySize=auto;html=1;exitX=0.5;exitY=1;exitDx=0;exitDy=0;exitPerimeter=0;entryX=0.5;entryY=0.07;entryDx=0;entryDy=0;entryPerimeter=0;endArrow=none;endFill=0;elbow=vertical;" parent="txY806hHe2ZytlH0EjpX-1" source="tfLXsFjKqoLI3VHInATK-6" target="tfLXsFjKqoLI3VHInATK-10" edge="1">
          <mxGeometry relative="1" as="geometry" />
        </mxCell>
        <mxCell id="tfLXsFjKqoLI3VHInATK-5" style="edgeStyle=orthogonalEdgeStyle;curved=1;rounded=0;orthogonalLoop=1;jettySize=auto;html=1;exitX=0.5;exitY=1;exitDx=0;exitDy=0;exitPerimeter=0;entryX=0.5;entryY=0.07;entryDx=0;entryDy=0;entryPerimeter=0;endArrow=none;endFill=0;elbow=vertical;" parent="txY806hHe2ZytlH0EjpX-1" source="tfLXsFjKqoLI3VHInATK-6" target="tfLXsFjKqoLI3VHInATK-11" edge="1">
          <mxGeometry relative="1" as="geometry" />
        </mxCell>
        <mxCell id="tfLXsFjKqoLI3VHInATK-6" value="" style="fontColor=#0066CC;verticalAlign=top;verticalLabelPosition=bottom;labelPosition=center;align=center;html=1;outlineConnect=0;fillColor=#CCCCCC;strokeColor=#6881B3;gradientColor=none;gradientDirection=north;strokeWidth=2;shape=mxgraph.networks.switch;" parent="txY806hHe2ZytlH0EjpX-1" vertex="1">
          <mxGeometry x="156" y="130" width="100" height="30" as="geometry" />
        </mxCell>
        <mxCell id="tfLXsFjKqoLI3VHInATK-7" style="edgeStyle=orthogonalEdgeStyle;curved=1;rounded=0;orthogonalLoop=1;jettySize=auto;html=1;exitX=0.5;exitY=1;exitDx=0;exitDy=0;exitPerimeter=0;entryX=0.5;entryY=0.07;entryDx=0;entryDy=0;entryPerimeter=0;endArrow=none;endFill=0;elbow=vertical;" parent="txY806hHe2ZytlH0EjpX-1" source="tfLXsFjKqoLI3VHInATK-9" target="tfLXsFjKqoLI3VHInATK-12" edge="1">
          <mxGeometry relative="1" as="geometry" />
        </mxCell>
        <mxCell id="tfLXsFjKqoLI3VHInATK-8" style="edgeStyle=orthogonalEdgeStyle;curved=1;rounded=0;orthogonalLoop=1;jettySize=auto;html=1;exitX=0.5;exitY=1;exitDx=0;exitDy=0;exitPerimeter=0;entryX=0.5;entryY=0.07;entryDx=0;entryDy=0;entryPerimeter=0;endArrow=none;endFill=0;elbow=vertical;" parent="txY806hHe2ZytlH0EjpX-1" source="tfLXsFjKqoLI3VHInATK-9" target="tfLXsFjKqoLI3VHInATK-13" edge="1">
          <mxGeometry relative="1" as="geometry" />
        </mxCell>
        <mxCell id="tfLXsFjKqoLI3VHInATK-9" value="" style="fontColor=#0066CC;verticalAlign=top;verticalLabelPosition=bottom;labelPosition=center;align=center;html=1;outlineConnect=0;fillColor=#CCCCCC;strokeColor=#6881B3;gradientColor=none;gradientDirection=north;strokeWidth=2;shape=mxgraph.networks.switch;" parent="txY806hHe2ZytlH0EjpX-1" vertex="1">
          <mxGeometry x="426" y="130" width="100" height="30" as="geometry" />
        </mxCell>
        <mxCell id="tfLXsFjKqoLI3VHInATK-10" value="" style="fontColor=#0066CC;verticalAlign=top;verticalLabelPosition=bottom;labelPosition=center;align=center;html=1;outlineConnect=0;fillColor=#CCCCCC;strokeColor=#6881B3;gradientColor=none;gradientDirection=north;strokeWidth=2;shape=mxgraph.networks.pc;" parent="txY806hHe2ZytlH0EjpX-1" vertex="1">
          <mxGeometry x="76" y="240" width="100" height="70" as="geometry" />
        </mxCell>
        <mxCell id="tfLXsFjKqoLI3VHInATK-11" value="" style="fontColor=#0066CC;verticalAlign=top;verticalLabelPosition=bottom;labelPosition=center;align=center;html=1;outlineConnect=0;fillColor=#CCCCCC;strokeColor=#6881B3;gradientColor=none;gradientDirection=north;strokeWidth=2;shape=mxgraph.networks.pc;" parent="txY806hHe2ZytlH0EjpX-1" vertex="1">
          <mxGeometry x="240" y="240" width="100" height="70" as="geometry" />
        </mxCell>
        <mxCell id="tfLXsFjKqoLI3VHInATK-12" value="" style="fontColor=#0066CC;verticalAlign=top;verticalLabelPosition=bottom;labelPosition=center;align=center;html=1;outlineConnect=0;fillColor=#CCCCCC;strokeColor=#6881B3;gradientColor=none;gradientDirection=north;strokeWidth=2;shape=mxgraph.networks.pc;" parent="txY806hHe2ZytlH0EjpX-1" vertex="1">
          <mxGeometry x="356" y="240" width="100" height="70" as="geometry" />
        </mxCell>
        <mxCell id="tfLXsFjKqoLI3VHInATK-13" value="" style="fontColor=#0066CC;verticalAlign=top;verticalLabelPosition=bottom;labelPosition=center;align=center;html=1;outlineConnect=0;fillColor=#CCCCCC;strokeColor=#6881B3;gradientColor=none;gradientDirection=north;strokeWidth=2;shape=mxgraph.networks.pc;" parent="txY806hHe2ZytlH0EjpX-1" vertex="1">
          <mxGeometry x="516" y="240" width="100" height="70" as="geometry" />
        </mxCell>
        <mxCell id="tfLXsFjKqoLI3VHInATK-14" value="VM1" style="text;html=1;strokeColor=none;fillColor=none;align=center;verticalAlign=middle;whiteSpace=wrap;rounded=0;dashed=1;" parent="txY806hHe2ZytlH0EjpX-1" vertex="1">
          <mxGeometry x="76" y="30" width="60" height="30" as="geometry" />
        </mxCell>
        <mxCell id="tfLXsFjKqoLI3VHInATK-15" value="192.168.1.1/24" style="text;html=1;strokeColor=none;fillColor=none;align=center;verticalAlign=middle;whiteSpace=wrap;rounded=0;dashed=1;" parent="txY806hHe2ZytlH0EjpX-1" vertex="1">
          <mxGeometry x="170" y="30" width="116" height="30" as="geometry" />
        </mxCell>
        <mxCell id="tfLXsFjKqoLI3VHInATK-16" value="192.168.10.1/24" style="text;html=1;strokeColor=none;fillColor=none;align=center;verticalAlign=middle;whiteSpace=wrap;rounded=0;dashed=1;" parent="txY806hHe2ZytlH0EjpX-1" vertex="1">
          <mxGeometry x="386" y="30" width="116" height="30" as="geometry" />
        </mxCell>
        <mxCell id="tfLXsFjKqoLI3VHInATK-17" value="S2&lt;br&gt;192.168.10.0/24" style="text;html=1;strokeColor=none;fillColor=none;align=center;verticalAlign=middle;whiteSpace=wrap;rounded=0;dashed=1;" parent="txY806hHe2ZytlH0EjpX-1" vertex="1">
          <mxGeometry x="520" y="130" width="116" height="30" as="geometry" />
        </mxCell>
        <mxCell id="tfLXsFjKqoLI3VHInATK-18" value="pc1&lt;br&gt;192.168.1.101/24" style="text;html=1;strokeColor=none;fillColor=none;align=center;verticalAlign=middle;whiteSpace=wrap;rounded=0;dashed=1;" parent="txY806hHe2ZytlH0EjpX-1" vertex="1">
          <mxGeometry x="76" y="320" width="116" height="30" as="geometry" />
        </mxCell>
        <mxCell id="tfLXsFjKqoLI3VHInATK-19" value="pc2&lt;br&gt;192.168.1.102/24" style="text;html=1;strokeColor=none;fillColor=none;align=center;verticalAlign=middle;whiteSpace=wrap;rounded=0;dashed=1;" parent="txY806hHe2ZytlH0EjpX-1" vertex="1">
          <mxGeometry x="232" y="320" width="116" height="30" as="geometry" />
        </mxCell>
        <mxCell id="tfLXsFjKqoLI3VHInATK-20" value="pc3&lt;br&gt;192.168.10.101/24" style="text;html=1;strokeColor=none;fillColor=none;align=center;verticalAlign=middle;whiteSpace=wrap;rounded=0;dashed=1;" parent="txY806hHe2ZytlH0EjpX-1" vertex="1">
          <mxGeometry x="348" y="320" width="116" height="30" as="geometry" />
        </mxCell>
        <mxCell id="tfLXsFjKqoLI3VHInATK-21" value="pc4&lt;br&gt;192.168.10.102/24" style="text;html=1;strokeColor=none;fillColor=none;align=center;verticalAlign=middle;whiteSpace=wrap;rounded=0;dashed=1;" parent="txY806hHe2ZytlH0EjpX-1" vertex="1">
          <mxGeometry x="508" y="320" width="116" height="30" as="geometry" />
        </mxCell>
        <mxCell id="lJhL4W8-eLQ1PrXfKynF-0" value="S1&lt;br&gt;192.168.1.0/24" style="text;html=1;strokeColor=none;fillColor=none;align=center;verticalAlign=middle;whiteSpace=wrap;rounded=0;dashed=1;" parent="txY806hHe2ZytlH0EjpX-1" vertex="1">
          <mxGeometry x="40" y="130" width="116" height="30" as="geometry" />
        </mxCell>
        <mxCell id="VAAAkZ-AfQJTI8mLEWZX-0" value="R1" style="text;html=1;strokeColor=none;fillColor=none;align=center;verticalAlign=middle;whiteSpace=wrap;rounded=0;dashed=1;" parent="txY806hHe2ZytlH0EjpX-1" vertex="1">
          <mxGeometry x="306" y="70" width="60" height="30" as="geometry" />
        </mxCell>
        <mxCell id="pJYdDKWH8Prz0kmGNzpR-0" value="&lt;h1&gt;实验步骤&lt;/h1&gt;&lt;p&gt;&lt;/p&gt;&lt;ol&gt;&lt;li&gt;ip netns add pc1&lt;/li&gt;&lt;li&gt;ip netns add pc2&lt;/li&gt;&lt;li&gt;ip netns add router&lt;/li&gt;&lt;li&gt;ip link add veth1-1 type veth peer name veth1-2&lt;/li&gt;&lt;li&gt;ip link add veth2-1 type veth peer name veth2-2&lt;/li&gt;&lt;li&gt;ip link set veth1-1 netns pc1&lt;/li&gt;&lt;li&gt;ip link set veth2-1 netns pc2&lt;/li&gt;&lt;li&gt;ip link set veth1-2 netns router&lt;/li&gt;&lt;li&gt;ip link set veth2-2 netns router&lt;/li&gt;&lt;li&gt;ip -n pc1 addr add 192.168.1.101/24 dev veth1-1&lt;/li&gt;&lt;li&gt;ip -n pc2 addr add 192.168.10.102/24 dev veth2-1&lt;/li&gt;&lt;li&gt;ip -n router addr add 192.168.1.1/24 dev veth1-2&lt;/li&gt;&lt;li&gt;ip -n router addr add 192.168.10.1/24 dev veth2-2&lt;/li&gt;&lt;li&gt;ip -n pc1 link set veth1-1 up&lt;/li&gt;&lt;li&gt;ip -n pc2 link set veth2-1 up&lt;/li&gt;&lt;li&gt;ip -n router link set veth1-2 up&lt;/li&gt;&lt;li&gt;ip -n router link set veth2-2 up&lt;/li&gt;&lt;li&gt;ip -n pc1 route add 192.168.10.0/24 via 192.168.1.1 dev veth1-1&lt;/li&gt;&lt;li&gt;ip -n pc2 route add 192.168.1.0/24 via 192.168.10.1 dev veth2-1&lt;/li&gt;&lt;/ol&gt;&lt;p&gt;&lt;/p&gt;" style="text;html=1;strokeColor=none;fillColor=none;spacing=5;spacingTop=-20;whiteSpace=wrap;overflow=hidden;rounded=0;fontFamily=Comic Sans MS;fontSize=14;" parent="txY806hHe2ZytlH0EjpX-1" vertex="1">
          <mxGeometry x="47" y="390" width="590" height="390" as="geometry" />
        </mxCell>
      </root>
    </mxGraphModel>
  </diagram>
  <diagram id="hK6M5ag-WVMc6bE5dIKz" name="zone-router-lan">
    <mxGraphModel dx="2354" dy="533" grid="1" gridSize="10" guides="1" tooltips="1" connect="1" arrows="1" fold="1" page="1" pageScale="1" pageWidth="1169" pageHeight="827" math="0" shadow="0">
      <root>
        <mxCell id="3AWUMx_J7axIJLc7tZUv-0" />
        <mxCell id="3AWUMx_J7axIJLc7tZUv-1" parent="3AWUMx_J7axIJLc7tZUv-0" />
        <mxCell id="11oLqsB3sxfNxTxB0MEf-30" value="" style="rounded=0;whiteSpace=wrap;html=1;fillColor=none;dashed=1;strokeColor=#808080;" parent="3AWUMx_J7axIJLc7tZUv-1" vertex="1">
          <mxGeometry x="10" y="160" width="570" height="350" as="geometry" />
        </mxCell>
        <mxCell id="11oLqsB3sxfNxTxB0MEf-32" value="" style="rounded=0;whiteSpace=wrap;html=1;fillColor=none;dashed=1;strokeColor=#808080;" parent="3AWUMx_J7axIJLc7tZUv-1" vertex="1">
          <mxGeometry x="590" y="160" width="570" height="350" as="geometry" />
        </mxCell>
        <mxCell id="11oLqsB3sxfNxTxB0MEf-0" style="edgeStyle=orthogonalEdgeStyle;rounded=0;orthogonalLoop=1;jettySize=auto;html=1;entryX=0.5;entryY=0;entryDx=0;entryDy=0;entryPerimeter=0;endArrow=none;endFill=0;elbow=vertical;curved=1;" parent="3AWUMx_J7axIJLc7tZUv-1" source="11oLqsB3sxfNxTxB0MEf-2" target="11oLqsB3sxfNxTxB0MEf-5" edge="1">
          <mxGeometry relative="1" as="geometry" />
        </mxCell>
        <mxCell id="11oLqsB3sxfNxTxB0MEf-1" style="edgeStyle=orthogonalEdgeStyle;curved=1;rounded=0;orthogonalLoop=1;jettySize=auto;html=1;exitX=1;exitY=0.5;exitDx=0;exitDy=0;exitPerimeter=0;entryX=0.5;entryY=0;entryDx=0;entryDy=0;entryPerimeter=0;endArrow=none;endFill=0;elbow=vertical;" parent="3AWUMx_J7axIJLc7tZUv-1" source="11oLqsB3sxfNxTxB0MEf-2" target="11oLqsB3sxfNxTxB0MEf-8" edge="1">
          <mxGeometry relative="1" as="geometry" />
        </mxCell>
        <mxCell id="11oLqsB3sxfNxTxB0MEf-2" value="" style="fontColor=#0066CC;verticalAlign=top;verticalLabelPosition=bottom;labelPosition=center;align=center;html=1;outlineConnect=0;fillColor=#CCCCCC;strokeColor=#6881B3;gradientColor=none;gradientDirection=north;strokeWidth=2;shape=mxgraph.networks.router;" parent="3AWUMx_J7axIJLc7tZUv-1" vertex="1">
          <mxGeometry x="820" y="180" width="100" height="30" as="geometry" />
        </mxCell>
        <mxCell id="11oLqsB3sxfNxTxB0MEf-3" style="edgeStyle=orthogonalEdgeStyle;curved=1;rounded=0;orthogonalLoop=1;jettySize=auto;html=1;exitX=0.5;exitY=1;exitDx=0;exitDy=0;exitPerimeter=0;entryX=0.5;entryY=0.07;entryDx=0;entryDy=0;entryPerimeter=0;endArrow=none;endFill=0;elbow=vertical;" parent="3AWUMx_J7axIJLc7tZUv-1" source="11oLqsB3sxfNxTxB0MEf-5" target="11oLqsB3sxfNxTxB0MEf-9" edge="1">
          <mxGeometry relative="1" as="geometry" />
        </mxCell>
        <mxCell id="11oLqsB3sxfNxTxB0MEf-4" style="edgeStyle=orthogonalEdgeStyle;curved=1;rounded=0;orthogonalLoop=1;jettySize=auto;html=1;exitX=0.5;exitY=1;exitDx=0;exitDy=0;exitPerimeter=0;entryX=0.5;entryY=0.07;entryDx=0;entryDy=0;entryPerimeter=0;endArrow=none;endFill=0;elbow=vertical;" parent="3AWUMx_J7axIJLc7tZUv-1" source="11oLqsB3sxfNxTxB0MEf-5" target="11oLqsB3sxfNxTxB0MEf-10" edge="1">
          <mxGeometry relative="1" as="geometry" />
        </mxCell>
        <mxCell id="11oLqsB3sxfNxTxB0MEf-5" value="" style="fontColor=#0066CC;verticalAlign=top;verticalLabelPosition=bottom;labelPosition=center;align=center;html=1;outlineConnect=0;fillColor=#CCCCCC;strokeColor=#6881B3;gradientColor=none;gradientDirection=north;strokeWidth=2;shape=mxgraph.networks.switch;" parent="3AWUMx_J7axIJLc7tZUv-1" vertex="1">
          <mxGeometry x="690" y="270" width="100" height="30" as="geometry" />
        </mxCell>
        <mxCell id="11oLqsB3sxfNxTxB0MEf-6" style="edgeStyle=orthogonalEdgeStyle;curved=1;rounded=0;orthogonalLoop=1;jettySize=auto;html=1;exitX=0.5;exitY=1;exitDx=0;exitDy=0;exitPerimeter=0;entryX=0.5;entryY=0.07;entryDx=0;entryDy=0;entryPerimeter=0;endArrow=none;endFill=0;elbow=vertical;" parent="3AWUMx_J7axIJLc7tZUv-1" source="11oLqsB3sxfNxTxB0MEf-8" target="11oLqsB3sxfNxTxB0MEf-11" edge="1">
          <mxGeometry relative="1" as="geometry" />
        </mxCell>
        <mxCell id="11oLqsB3sxfNxTxB0MEf-7" style="edgeStyle=orthogonalEdgeStyle;curved=1;rounded=0;orthogonalLoop=1;jettySize=auto;html=1;exitX=0.5;exitY=1;exitDx=0;exitDy=0;exitPerimeter=0;entryX=0.5;entryY=0.07;entryDx=0;entryDy=0;entryPerimeter=0;endArrow=none;endFill=0;elbow=vertical;" parent="3AWUMx_J7axIJLc7tZUv-1" source="11oLqsB3sxfNxTxB0MEf-8" target="11oLqsB3sxfNxTxB0MEf-12" edge="1">
          <mxGeometry relative="1" as="geometry" />
        </mxCell>
        <mxCell id="11oLqsB3sxfNxTxB0MEf-8" value="" style="fontColor=#0066CC;verticalAlign=top;verticalLabelPosition=bottom;labelPosition=center;align=center;html=1;outlineConnect=0;fillColor=#CCCCCC;strokeColor=#6881B3;gradientColor=none;gradientDirection=north;strokeWidth=2;shape=mxgraph.networks.switch;" parent="3AWUMx_J7axIJLc7tZUv-1" vertex="1">
          <mxGeometry x="960" y="270" width="100" height="30" as="geometry" />
        </mxCell>
        <mxCell id="11oLqsB3sxfNxTxB0MEf-9" value="" style="fontColor=#0066CC;verticalAlign=top;verticalLabelPosition=bottom;labelPosition=center;align=center;html=1;outlineConnect=0;fillColor=#CCCCCC;strokeColor=#6881B3;gradientColor=none;gradientDirection=north;strokeWidth=2;shape=mxgraph.networks.pc;" parent="3AWUMx_J7axIJLc7tZUv-1" vertex="1">
          <mxGeometry x="600" y="379" width="100" height="70" as="geometry" />
        </mxCell>
        <mxCell id="11oLqsB3sxfNxTxB0MEf-10" value="" style="fontColor=#0066CC;verticalAlign=top;verticalLabelPosition=bottom;labelPosition=center;align=center;html=1;outlineConnect=0;fillColor=#CCCCCC;strokeColor=#6881B3;gradientColor=none;gradientDirection=north;strokeWidth=2;shape=mxgraph.networks.pc;" parent="3AWUMx_J7axIJLc7tZUv-1" vertex="1">
          <mxGeometry x="760" y="379" width="100" height="70" as="geometry" />
        </mxCell>
        <mxCell id="11oLqsB3sxfNxTxB0MEf-11" value="" style="fontColor=#0066CC;verticalAlign=top;verticalLabelPosition=bottom;labelPosition=center;align=center;html=1;outlineConnect=0;fillColor=#CCCCCC;strokeColor=#6881B3;gradientColor=none;gradientDirection=north;strokeWidth=2;shape=mxgraph.networks.pc;" parent="3AWUMx_J7axIJLc7tZUv-1" vertex="1">
          <mxGeometry x="880" y="380" width="100" height="70" as="geometry" />
        </mxCell>
        <mxCell id="11oLqsB3sxfNxTxB0MEf-12" value="" style="fontColor=#0066CC;verticalAlign=top;verticalLabelPosition=bottom;labelPosition=center;align=center;html=1;outlineConnect=0;fillColor=#CCCCCC;strokeColor=#6881B3;gradientColor=none;gradientDirection=north;strokeWidth=2;shape=mxgraph.networks.pc;" parent="3AWUMx_J7axIJLc7tZUv-1" vertex="1">
          <mxGeometry x="1050" y="379" width="100" height="70" as="geometry" />
        </mxCell>
        <mxCell id="11oLqsB3sxfNxTxB0MEf-13" style="edgeStyle=orthogonalEdgeStyle;curved=1;rounded=0;orthogonalLoop=1;jettySize=auto;html=1;entryX=0.5;entryY=0;entryDx=0;entryDy=0;entryPerimeter=0;endArrow=none;endFill=0;elbow=vertical;" parent="3AWUMx_J7axIJLc7tZUv-1" source="11oLqsB3sxfNxTxB0MEf-15" target="11oLqsB3sxfNxTxB0MEf-18" edge="1">
          <mxGeometry relative="1" as="geometry" />
        </mxCell>
        <mxCell id="11oLqsB3sxfNxTxB0MEf-14" style="edgeStyle=orthogonalEdgeStyle;curved=1;rounded=0;orthogonalLoop=1;jettySize=auto;html=1;entryX=0.5;entryY=0;entryDx=0;entryDy=0;entryPerimeter=0;endArrow=none;endFill=0;elbow=vertical;" parent="3AWUMx_J7axIJLc7tZUv-1" source="11oLqsB3sxfNxTxB0MEf-15" target="11oLqsB3sxfNxTxB0MEf-21" edge="1">
          <mxGeometry relative="1" as="geometry" />
        </mxCell>
        <mxCell id="11oLqsB3sxfNxTxB0MEf-15" value="" style="fontColor=#0066CC;verticalAlign=top;verticalLabelPosition=bottom;labelPosition=center;align=center;html=1;outlineConnect=0;fillColor=#CCCCCC;strokeColor=#6881B3;gradientColor=none;gradientDirection=north;strokeWidth=2;shape=mxgraph.networks.router;" parent="3AWUMx_J7axIJLc7tZUv-1" vertex="1">
          <mxGeometry x="230" y="180" width="100" height="30" as="geometry" />
        </mxCell>
        <mxCell id="11oLqsB3sxfNxTxB0MEf-16" style="edgeStyle=orthogonalEdgeStyle;curved=1;rounded=0;orthogonalLoop=1;jettySize=auto;html=1;exitX=0.5;exitY=1;exitDx=0;exitDy=0;exitPerimeter=0;entryX=0.5;entryY=0.07;entryDx=0;entryDy=0;entryPerimeter=0;endArrow=none;endFill=0;elbow=vertical;" parent="3AWUMx_J7axIJLc7tZUv-1" source="11oLqsB3sxfNxTxB0MEf-18" target="11oLqsB3sxfNxTxB0MEf-22" edge="1">
          <mxGeometry relative="1" as="geometry" />
        </mxCell>
        <mxCell id="11oLqsB3sxfNxTxB0MEf-17" style="edgeStyle=orthogonalEdgeStyle;curved=1;rounded=0;orthogonalLoop=1;jettySize=auto;html=1;exitX=0.5;exitY=1;exitDx=0;exitDy=0;exitPerimeter=0;entryX=0.5;entryY=0.07;entryDx=0;entryDy=0;entryPerimeter=0;endArrow=none;endFill=0;elbow=vertical;" parent="3AWUMx_J7axIJLc7tZUv-1" source="11oLqsB3sxfNxTxB0MEf-18" target="11oLqsB3sxfNxTxB0MEf-23" edge="1">
          <mxGeometry relative="1" as="geometry" />
        </mxCell>
        <mxCell id="11oLqsB3sxfNxTxB0MEf-18" value="" style="fontColor=#0066CC;verticalAlign=top;verticalLabelPosition=bottom;labelPosition=center;align=center;html=1;outlineConnect=0;fillColor=#CCCCCC;strokeColor=#6881B3;gradientColor=none;gradientDirection=north;strokeWidth=2;shape=mxgraph.networks.switch;" parent="3AWUMx_J7axIJLc7tZUv-1" vertex="1">
          <mxGeometry x="100" y="270" width="100" height="30" as="geometry" />
        </mxCell>
        <mxCell id="11oLqsB3sxfNxTxB0MEf-19" style="edgeStyle=orthogonalEdgeStyle;curved=1;rounded=0;orthogonalLoop=1;jettySize=auto;html=1;exitX=0.5;exitY=1;exitDx=0;exitDy=0;exitPerimeter=0;entryX=0.5;entryY=0.07;entryDx=0;entryDy=0;entryPerimeter=0;endArrow=none;endFill=0;elbow=vertical;" parent="3AWUMx_J7axIJLc7tZUv-1" source="11oLqsB3sxfNxTxB0MEf-21" target="11oLqsB3sxfNxTxB0MEf-24" edge="1">
          <mxGeometry relative="1" as="geometry" />
        </mxCell>
        <mxCell id="11oLqsB3sxfNxTxB0MEf-20" style="edgeStyle=orthogonalEdgeStyle;curved=1;rounded=0;orthogonalLoop=1;jettySize=auto;html=1;exitX=0.5;exitY=1;exitDx=0;exitDy=0;exitPerimeter=0;entryX=0.5;entryY=0.07;entryDx=0;entryDy=0;entryPerimeter=0;endArrow=none;endFill=0;elbow=vertical;" parent="3AWUMx_J7axIJLc7tZUv-1" source="11oLqsB3sxfNxTxB0MEf-21" target="11oLqsB3sxfNxTxB0MEf-25" edge="1">
          <mxGeometry relative="1" as="geometry" />
        </mxCell>
        <mxCell id="11oLqsB3sxfNxTxB0MEf-21" value="" style="fontColor=#0066CC;verticalAlign=top;verticalLabelPosition=bottom;labelPosition=center;align=center;html=1;outlineConnect=0;fillColor=#CCCCCC;strokeColor=#6881B3;gradientColor=none;gradientDirection=north;strokeWidth=2;shape=mxgraph.networks.switch;" parent="3AWUMx_J7axIJLc7tZUv-1" vertex="1">
          <mxGeometry x="370" y="270" width="100" height="30" as="geometry" />
        </mxCell>
        <mxCell id="11oLqsB3sxfNxTxB0MEf-22" value="" style="fontColor=#0066CC;verticalAlign=top;verticalLabelPosition=bottom;labelPosition=center;align=center;html=1;outlineConnect=0;fillColor=#CCCCCC;strokeColor=#6881B3;gradientColor=none;gradientDirection=north;strokeWidth=2;shape=mxgraph.networks.pc;" parent="3AWUMx_J7axIJLc7tZUv-1" vertex="1">
          <mxGeometry x="20" y="380" width="100" height="70" as="geometry" />
        </mxCell>
        <mxCell id="11oLqsB3sxfNxTxB0MEf-23" value="" style="fontColor=#0066CC;verticalAlign=top;verticalLabelPosition=bottom;labelPosition=center;align=center;html=1;outlineConnect=0;fillColor=#CCCCCC;strokeColor=#6881B3;gradientColor=none;gradientDirection=north;strokeWidth=2;shape=mxgraph.networks.pc;" parent="3AWUMx_J7axIJLc7tZUv-1" vertex="1">
          <mxGeometry x="184" y="380" width="100" height="70" as="geometry" />
        </mxCell>
        <mxCell id="11oLqsB3sxfNxTxB0MEf-24" value="" style="fontColor=#0066CC;verticalAlign=top;verticalLabelPosition=bottom;labelPosition=center;align=center;html=1;outlineConnect=0;fillColor=#CCCCCC;strokeColor=#6881B3;gradientColor=none;gradientDirection=north;strokeWidth=2;shape=mxgraph.networks.pc;" parent="3AWUMx_J7axIJLc7tZUv-1" vertex="1">
          <mxGeometry x="300" y="380" width="100" height="70" as="geometry" />
        </mxCell>
        <mxCell id="11oLqsB3sxfNxTxB0MEf-25" value="" style="fontColor=#0066CC;verticalAlign=top;verticalLabelPosition=bottom;labelPosition=center;align=center;html=1;outlineConnect=0;fillColor=#CCCCCC;strokeColor=#6881B3;gradientColor=none;gradientDirection=north;strokeWidth=2;shape=mxgraph.networks.pc;" parent="3AWUMx_J7axIJLc7tZUv-1" vertex="1">
          <mxGeometry x="460" y="380" width="100" height="70" as="geometry" />
        </mxCell>
        <mxCell id="11oLqsB3sxfNxTxB0MEf-27" style="edgeStyle=orthogonalEdgeStyle;curved=1;rounded=0;orthogonalLoop=1;jettySize=auto;html=1;exitX=0.5;exitY=1;exitDx=0;exitDy=0;exitPerimeter=0;entryX=0.5;entryY=0;entryDx=0;entryDy=0;entryPerimeter=0;endArrow=none;endFill=0;elbow=vertical;" parent="3AWUMx_J7axIJLc7tZUv-1" source="11oLqsB3sxfNxTxB0MEf-26" target="11oLqsB3sxfNxTxB0MEf-15" edge="1">
          <mxGeometry relative="1" as="geometry" />
        </mxCell>
        <mxCell id="11oLqsB3sxfNxTxB0MEf-28" style="edgeStyle=orthogonalEdgeStyle;curved=1;rounded=0;orthogonalLoop=1;jettySize=auto;html=1;exitX=0.5;exitY=1;exitDx=0;exitDy=0;exitPerimeter=0;entryX=0.5;entryY=0;entryDx=0;entryDy=0;entryPerimeter=0;endArrow=none;endFill=0;elbow=vertical;" parent="3AWUMx_J7axIJLc7tZUv-1" source="11oLqsB3sxfNxTxB0MEf-26" target="11oLqsB3sxfNxTxB0MEf-2" edge="1">
          <mxGeometry relative="1" as="geometry" />
        </mxCell>
        <mxCell id="11oLqsB3sxfNxTxB0MEf-26" value="" style="fontColor=#0066CC;verticalAlign=top;verticalLabelPosition=bottom;labelPosition=center;align=center;html=1;outlineConnect=0;fillColor=#CCCCCC;strokeColor=#6881B3;gradientColor=none;gradientDirection=north;strokeWidth=2;shape=mxgraph.networks.switch;" parent="3AWUMx_J7axIJLc7tZUv-1" vertex="1">
          <mxGeometry x="510" y="60" width="100" height="30" as="geometry" />
        </mxCell>
        <mxCell id="11oLqsB3sxfNxTxB0MEf-36" value="&lt;h1&gt;区域网络&lt;/h1&gt;&lt;p&gt;VM1模拟网络区域1&lt;/p&gt;&lt;p&gt;VM2模拟网络区域2&lt;/p&gt;" style="text;html=1;strokeColor=none;fillColor=none;spacing=5;spacingTop=-20;whiteSpace=wrap;overflow=hidden;rounded=0;dashed=1;fontFamily=Comic Sans MS;" parent="3AWUMx_J7axIJLc7tZUv-1" vertex="1">
          <mxGeometry x="910" y="15" width="190" height="120" as="geometry" />
        </mxCell>
        <mxCell id="11oLqsB3sxfNxTxB0MEf-39" value="VM1" style="text;html=1;strokeColor=none;fillColor=none;align=center;verticalAlign=middle;whiteSpace=wrap;rounded=0;dashed=1;" parent="3AWUMx_J7axIJLc7tZUv-1" vertex="1">
          <mxGeometry x="20" y="170" width="60" height="30" as="geometry" />
        </mxCell>
        <mxCell id="11oLqsB3sxfNxTxB0MEf-40" value="VM2" style="text;html=1;strokeColor=none;fillColor=none;align=center;verticalAlign=middle;whiteSpace=wrap;rounded=0;dashed=1;" parent="3AWUMx_J7axIJLc7tZUv-1" vertex="1">
          <mxGeometry x="600" y="170" width="60" height="30" as="geometry" />
        </mxCell>
        <mxCell id="mL43718nOP7sa7TIFRIA-0" value="192.168.1.0/24" style="text;html=1;strokeColor=none;fillColor=none;align=center;verticalAlign=middle;whiteSpace=wrap;rounded=0;dashed=1;" parent="3AWUMx_J7axIJLc7tZUv-1" vertex="1">
          <mxGeometry x="-8" y="270" width="116" height="30" as="geometry" />
        </mxCell>
        <mxCell id="mL43718nOP7sa7TIFRIA-1" value="192.168.1.1/24" style="text;html=1;strokeColor=none;fillColor=none;align=center;verticalAlign=middle;whiteSpace=wrap;rounded=0;dashed=1;" parent="3AWUMx_J7axIJLc7tZUv-1" vertex="1">
          <mxGeometry x="114" y="170" width="116" height="30" as="geometry" />
        </mxCell>
        <mxCell id="mL43718nOP7sa7TIFRIA-2" value="192.168.10.1/24" style="text;html=1;strokeColor=none;fillColor=none;align=center;verticalAlign=middle;whiteSpace=wrap;rounded=0;dashed=1;" parent="3AWUMx_J7axIJLc7tZUv-1" vertex="1">
          <mxGeometry x="330" y="170" width="116" height="30" as="geometry" />
        </mxCell>
        <mxCell id="mL43718nOP7sa7TIFRIA-3" value="192.168.214.131/24" style="text;html=1;strokeColor=none;fillColor=none;align=center;verticalAlign=middle;whiteSpace=wrap;rounded=0;dashed=1;" parent="3AWUMx_J7axIJLc7tZUv-1" vertex="1">
          <mxGeometry x="222" y="105" width="116" height="30" as="geometry" />
        </mxCell>
        <mxCell id="mL43718nOP7sa7TIFRIA-4" value="192.168.214.0/24" style="text;html=1;strokeColor=none;fillColor=none;align=center;verticalAlign=middle;whiteSpace=wrap;rounded=0;dashed=1;" parent="3AWUMx_J7axIJLc7tZUv-1" vertex="1">
          <mxGeometry x="620" y="60" width="116" height="30" as="geometry" />
        </mxCell>
        <mxCell id="mL43718nOP7sa7TIFRIA-5" value="192.168.10.0/24" style="text;html=1;strokeColor=none;fillColor=none;align=center;verticalAlign=middle;whiteSpace=wrap;rounded=0;dashed=1;" parent="3AWUMx_J7axIJLc7tZUv-1" vertex="1">
          <mxGeometry x="464" y="270" width="116" height="30" as="geometry" />
        </mxCell>
        <mxCell id="mL43718nOP7sa7TIFRIA-6" value="pc1&lt;br&gt;192.168.1.101/24" style="text;html=1;strokeColor=none;fillColor=none;align=center;verticalAlign=middle;whiteSpace=wrap;rounded=0;dashed=1;" parent="3AWUMx_J7axIJLc7tZUv-1" vertex="1">
          <mxGeometry x="20" y="460" width="116" height="30" as="geometry" />
        </mxCell>
        <mxCell id="mL43718nOP7sa7TIFRIA-7" value="pc2&lt;br&gt;192.168.1.102/24" style="text;html=1;strokeColor=none;fillColor=none;align=center;verticalAlign=middle;whiteSpace=wrap;rounded=0;dashed=1;" parent="3AWUMx_J7axIJLc7tZUv-1" vertex="1">
          <mxGeometry x="176" y="460" width="116" height="30" as="geometry" />
        </mxCell>
        <mxCell id="mL43718nOP7sa7TIFRIA-8" value="pc3&lt;br&gt;192.168.10.101/24" style="text;html=1;strokeColor=none;fillColor=none;align=center;verticalAlign=middle;whiteSpace=wrap;rounded=0;dashed=1;" parent="3AWUMx_J7axIJLc7tZUv-1" vertex="1">
          <mxGeometry x="292" y="460" width="116" height="30" as="geometry" />
        </mxCell>
        <mxCell id="mL43718nOP7sa7TIFRIA-9" value="pc4&lt;br&gt;192.168.10.102/24" style="text;html=1;strokeColor=none;fillColor=none;align=center;verticalAlign=middle;whiteSpace=wrap;rounded=0;dashed=1;" parent="3AWUMx_J7axIJLc7tZUv-1" vertex="1">
          <mxGeometry x="452" y="460" width="116" height="30" as="geometry" />
        </mxCell>
        <mxCell id="QsW3WxqVLlxRaWDLIz2y-0" value="pc5&lt;br&gt;192.168.2.101/24" style="text;html=1;strokeColor=none;fillColor=none;align=center;verticalAlign=middle;whiteSpace=wrap;rounded=0;dashed=1;" parent="3AWUMx_J7axIJLc7tZUv-1" vertex="1">
          <mxGeometry x="598" y="460" width="116" height="30" as="geometry" />
        </mxCell>
        <mxCell id="QsW3WxqVLlxRaWDLIz2y-1" value="pc6&lt;br&gt;192.168.2.102/24" style="text;html=1;strokeColor=none;fillColor=none;align=center;verticalAlign=middle;whiteSpace=wrap;rounded=0;dashed=1;" parent="3AWUMx_J7axIJLc7tZUv-1" vertex="1">
          <mxGeometry x="756" y="460" width="116" height="30" as="geometry" />
        </mxCell>
        <mxCell id="QsW3WxqVLlxRaWDLIz2y-2" value="pc7&lt;br&gt;192.168.20.101/24" style="text;html=1;strokeColor=none;fillColor=none;align=center;verticalAlign=middle;whiteSpace=wrap;rounded=0;dashed=1;" parent="3AWUMx_J7axIJLc7tZUv-1" vertex="1">
          <mxGeometry x="880" y="460" width="116" height="30" as="geometry" />
        </mxCell>
        <mxCell id="QsW3WxqVLlxRaWDLIz2y-3" value="pc8&lt;br&gt;192.168.20.102/24" style="text;html=1;strokeColor=none;fillColor=none;align=center;verticalAlign=middle;whiteSpace=wrap;rounded=0;dashed=1;" parent="3AWUMx_J7axIJLc7tZUv-1" vertex="1">
          <mxGeometry x="1032" y="460" width="116" height="30" as="geometry" />
        </mxCell>
        <mxCell id="QsW3WxqVLlxRaWDLIz2y-4" value="192.168.2.0/24" style="text;html=1;strokeColor=none;fillColor=none;align=center;verticalAlign=middle;whiteSpace=wrap;rounded=0;dashed=1;" parent="3AWUMx_J7axIJLc7tZUv-1" vertex="1">
          <mxGeometry x="574" y="270" width="116" height="30" as="geometry" />
        </mxCell>
        <mxCell id="QsW3WxqVLlxRaWDLIz2y-5" value="192.168.20.0/24" style="text;html=1;strokeColor=none;fillColor=none;align=center;verticalAlign=middle;whiteSpace=wrap;rounded=0;dashed=1;" parent="3AWUMx_J7axIJLc7tZUv-1" vertex="1">
          <mxGeometry x="1050" y="270" width="116" height="30" as="geometry" />
        </mxCell>
        <mxCell id="QsW3WxqVLlxRaWDLIz2y-6" value="192.168.2.1/24" style="text;html=1;strokeColor=none;fillColor=none;align=center;verticalAlign=middle;whiteSpace=wrap;rounded=0;dashed=1;" parent="3AWUMx_J7axIJLc7tZUv-1" vertex="1">
          <mxGeometry x="704" y="170" width="116" height="30" as="geometry" />
        </mxCell>
        <mxCell id="QsW3WxqVLlxRaWDLIz2y-7" value="192.168.20.1/24" style="text;html=1;strokeColor=none;fillColor=none;align=center;verticalAlign=middle;whiteSpace=wrap;rounded=0;dashed=1;" parent="3AWUMx_J7axIJLc7tZUv-1" vertex="1">
          <mxGeometry x="920" y="170" width="116" height="30" as="geometry" />
        </mxCell>
        <mxCell id="QsW3WxqVLlxRaWDLIz2y-10" value="192.168.214.132/24" style="text;html=1;strokeColor=none;fillColor=none;align=center;verticalAlign=middle;whiteSpace=wrap;rounded=0;dashed=1;" parent="3AWUMx_J7axIJLc7tZUv-1" vertex="1">
          <mxGeometry x="794" y="105" width="116" height="30" as="geometry" />
        </mxCell>
        <mxCell id="HhtmbDSUw60Xo5NjLxld-0" value="R1" style="text;html=1;strokeColor=none;fillColor=none;align=center;verticalAlign=middle;whiteSpace=wrap;rounded=0;dashed=1;" parent="3AWUMx_J7axIJLc7tZUv-1" vertex="1">
          <mxGeometry x="250" y="210" width="60" height="30" as="geometry" />
        </mxCell>
        <mxCell id="HhtmbDSUw60Xo5NjLxld-1" value="R2" style="text;html=1;strokeColor=none;fillColor=none;align=center;verticalAlign=middle;whiteSpace=wrap;rounded=0;dashed=1;" parent="3AWUMx_J7axIJLc7tZUv-1" vertex="1">
          <mxGeometry x="840" y="210" width="60" height="30" as="geometry" />
        </mxCell>
        <mxCell id="5OiZukXg1t0aZ6LV5A84-0" value="Core Switch" style="text;html=1;strokeColor=none;fillColor=none;align=center;verticalAlign=middle;whiteSpace=wrap;rounded=0;dashed=1;" parent="3AWUMx_J7axIJLc7tZUv-1" vertex="1">
          <mxGeometry x="512" y="30" width="96" height="30" as="geometry" />
        </mxCell>
      </root>
    </mxGraphModel>
  </diagram>
</mxfile>
